<svg viewBox="0 0 43 43" fill="none" xmlns="http://www.w3.org/2000/svg">
    <path d="M21.7479 15.0542C21.6703 15.0885 21.5996 15.1375 21.5392 15.1987L17.1914 19.7148C17.0693 19.8419 17.0007 20.014 17.0007 20.1935C17.0007 20.3731 17.0693 20.5452 17.1914 20.6723C17.2514 20.7362 17.323 20.787 17.4022 20.8216C17.4813 20.8563 17.5664 20.8742 17.6523 20.8742C17.7382 20.8742 17.8232 20.8563 17.9024 20.8216C17.9815 20.787 18.0532 20.7362 18.1132 20.6723L21.3914 17.3123V28.3226C21.3914 28.5022 21.4601 28.6745 21.5824 28.8016C21.7047 28.9286 21.8706 29 22.0436 29C22.2166 29 22.3824 28.9286 22.5048 28.8016C22.6271 28.6745 22.6958 28.5022 22.6958 28.3226V17.3123L25.8871 20.6723C25.947 20.7362 26.0187 20.787 26.0978 20.8216C26.177 20.8563 26.262 20.8742 26.3479 20.8742C26.4338 20.8742 26.5189 20.8563 26.598 20.8216C26.6772 20.787 26.7489 20.7362 26.8088 20.6723C26.871 20.6107 26.9202 20.5363 26.9531 20.4539C26.986 20.3714 27.0021 20.2828 27.0001 20.1935C27.0005 20.1045 26.9838 20.0164 26.951 19.9341C26.9181 19.8519 26.8698 19.7774 26.8088 19.7148L22.461 15.1987C22.4007 15.1375 22.3299 15.0885 22.2523 15.0542C22.0896 14.9912 21.9106 14.9912 21.7479 15.0542Z" fill="#231F20" />
</svg>