<svg width="20" height="20" viewBox="0 0 20 20" fill="none" xmlns="http://www.w3.org/2000/svg">
<path d="M13.75 9H10.5V5.75C10.5 5.55109 10.421 5.36026 10.2803 5.2196C10.1397 5.07895 9.94891 5 9.75 5C9.55109 5 9.36032 5.07895 9.21967 5.2196C9.07901 5.36026 9 5.55109 9 5.75V9H5.75C5.55109 9 5.36032 9.07895 5.21967 9.2196C5.07901 9.36026 5 9.55109 5 9.75C5 9.94891 5.07901 10.1396 5.21967 10.2803C5.36032 10.4209 5.55109 10.5 5.75 10.5H9V13.75C9 13.9489 9.07901 14.1396 9.21967 14.2803C9.36032 14.4209 9.55109 14.5 9.75 14.5C9.94891 14.5 10.1397 14.4209 10.2803 14.2803C10.421 14.1396 10.5 13.9489 10.5 13.75V10.5H13.75C13.9489 10.5 14.1397 10.4209 14.2803 10.2803C14.421 10.1396 14.5 9.94891 14.5 9.75C14.5 9.55109 14.421 9.36026 14.2803 9.2196C14.1397 9.07895 13.9489 9 13.75 9Z" fill="#00B9C0"/>
<path d="M9.74998 0C7.82161 0 5.93655 0.571845 4.33317 1.64319C2.72979 2.71453 1.48012 4.23722 0.742163 6.0188C0.00420856 7.80038 -0.188852 9.76079 0.187353 11.6521C0.563559 13.5434 1.49213 15.2807 2.85569 16.6443C4.21925 18.0078 5.95656 18.9364 7.84788 19.3126C9.73919 19.6888 11.6995 19.4958 13.4811 18.7578C15.2627 18.0199 16.7854 16.7701 17.8568 15.1667C18.9281 13.5634 19.5 11.6784 19.5 9.75C19.4973 7.16495 18.4692 4.68655 16.6413 2.85864C14.8134 1.03074 12.335 0.00264726 9.74998 0ZM9.74998 18C8.11828 18 6.52325 17.5161 5.16654 16.6096C3.80983 15.7031 2.75239 14.4146 2.12797 12.9071C1.50354 11.3996 1.34016 9.74085 1.65848 8.1405C1.97681 6.54016 2.76257 5.07017 3.91636 3.91638C5.07014 2.7626 6.54013 1.97678 8.14048 1.65845C9.74082 1.34012 11.3997 1.50351 12.9071 2.12793C14.4146 2.75235 15.7031 3.8098 16.6096 5.1665C17.5161 6.52321 18 8.1183 18 9.75C17.9973 11.9372 17.1273 14.0341 15.5807 15.5807C14.0341 17.1273 11.9372 17.9974 9.74998 18Z" fill="#00B9C0"/>
</svg>
