<svg width="16" height="16" viewBox="0 0 16 16" fill="none" xmlns="http://www.w3.org/2000/svg">
<path d="M14.2292 9.93217C13.8557 9.55891 13.3493 9.34909 12.8214 9.34909C12.2935 9.34909 11.7872 9.55891 11.4137 9.93217L10.6346 10.7471C8.25087 9.66721 6.33861 7.76016 5.25148 5.37873L5.98635 4.6434C6.18325 4.46007 6.34156 4.23912 6.45195 3.99372C6.56235 3.74831 6.6226 3.4833 6.6292 3.21426C6.6358 2.94523 6.58861 2.67755 6.49037 2.42703C6.39214 2.1765 6.24485 1.94849 6.05717 1.75571L5.0213 0.710244C4.56352 0.255297 3.94447 0 3.29924 0C2.65402 0 2.03497 0.255297 1.57719 0.710244L1.0017 1.28597C0.604768 1.69465 0.312208 2.19298 0.14883 2.73889C-0.0145467 3.28481 -0.0439181 3.86224 0.0632058 4.42194C0.738127 7.2147 2.16955 9.76735 4.20013 11.799C6.2307 13.8307 8.78182 15.2628 11.5731 15.9381C11.7984 15.9759 12.0263 15.9965 12.2548 16C13.1726 16.0048 14.0547 15.6448 14.7073 14.999L15.2828 14.4233C15.51 14.1977 15.6904 13.9292 15.8135 13.6335C15.9366 13.3378 16 13.0208 16 12.7005C16 12.3801 15.9366 12.0628 15.8135 11.767C15.6904 11.4713 15.51 11.2028 15.2828 10.9772L14.2292 9.93217ZM14.3266 13.4756L13.7511 14.0513C13.498 14.2988 13.1879 14.4797 12.8481 14.5786C12.5084 14.6775 12.1495 14.691 11.8033 14.618C9.27949 13.9925 6.97393 12.6905 5.13465 10.8518C3.29536 9.01303 1.99198 6.70736 1.36471 4.18274C1.29517 3.83555 1.31123 3.47685 1.4115 3.13727C1.51178 2.79769 1.69324 2.4873 1.94019 2.23368L2.51568 1.64931C2.61819 1.54748 2.7398 1.46699 2.8735 1.41227C3.0072 1.35754 3.15036 1.32934 3.29481 1.33009C3.58888 1.33007 3.87145 1.44474 4.08281 1.64931L5.11868 2.69434C5.18235 2.76432 5.23118 2.84674 5.26221 2.93614C5.29323 3.02553 5.30582 3.1203 5.29919 3.2147C5.29257 3.3091 5.26687 3.40129 5.22368 3.48547C5.18048 3.56966 5.12067 3.64395 5.04786 3.70434L4.31298 4.43967C4.12708 4.62641 4.00089 4.8644 3.95044 5.1231C3.89999 5.38179 3.92758 5.64963 4.02969 5.8926C5.24603 8.58931 7.40633 10.7473 10.1033 11.9604C10.3427 12.0622 10.6068 12.0906 10.8623 12.0417C11.1177 11.9928 11.3528 11.8692 11.5376 11.6861L12.3522 10.8708C12.4767 10.7464 12.6455 10.6766 12.8214 10.6766C12.9974 10.6766 13.1662 10.7464 13.2907 10.8708L14.3266 11.9076C14.4307 12.0099 14.5134 12.1316 14.5699 12.2662C14.6264 12.4008 14.6554 12.5454 14.6554 12.6914C14.6554 12.8374 14.6264 12.982 14.5699 13.1166C14.5134 13.2512 14.4307 13.3733 14.3266 13.4756Z" fill="#231F20"/>
</svg>
