<svg width="8" height="8" viewBox="0 0 8 8" fill="none" xmlns="http://www.w3.org/2000/svg">
<path d="M7.12032 0.583921C7.12825 0.514156 7.12168 0.443506 7.10103 0.376397C7.08038 0.309288 7.04609 0.247166 7.00032 0.193921C6.89369 0.0888797 6.75001 0.0300003 6.60032 0.0300003C6.45064 0.0300003 6.30696 0.0888797 6.20032 0.193921L3.56032 2.76392L1.00032 0.163921C0.893686 0.0588795 0.750008 6.54473e-09 0.600324 0C0.45064 -6.5411e-09 0.306962 0.0588795 0.200324 0.163921C0.0897842 0.265209 0.0236021 0.40597 0.0161151 0.555711C0.00862803 0.705451 0.0604391 0.852112 0.160324 0.963921L3.16032 3.96392C3.21372 4.02212 3.27863 4.06858 3.35093 4.10037C3.42323 4.13215 3.50134 4.14856 3.58032 4.14856C3.6593 4.14856 3.73742 4.13215 3.80972 4.10037C3.88202 4.06858 3.94693 4.02212 4.00032 3.96392L7.00032 0.963921C7.04433 0.911582 7.07758 0.851078 7.09817 0.785873C7.11876 0.720667 7.12629 0.65204 7.12032 0.583921Z" fill="#D8D8D8"/>
<path d="M0.00325644 6.42389C-0.00466539 6.49366 0.00190372 6.56431 0.0225526 6.63142C0.0432015 6.69852 0.0774852 6.76065 0.123256 6.81389C0.229894 6.91893 0.373572 6.97781 0.523256 6.97781C0.672941 6.97781 0.816618 6.91893 0.923257 6.81389L3.56326 4.24389L6.12326 6.84389C6.22989 6.94893 6.37357 7.00781 6.52326 7.00781C6.67294 7.00781 6.81662 6.94893 6.92326 6.84389C7.0338 6.7426 7.09998 6.60184 7.10746 6.4521C7.11495 6.30236 7.06314 6.1557 6.96326 6.04389L3.96326 3.04389C3.90986 2.9857 3.84495 2.93923 3.77265 2.90745C3.70035 2.87566 3.62224 2.85925 3.54326 2.85925C3.46428 2.85925 3.38616 2.87566 3.31386 2.90745C3.24156 2.93923 3.17665 2.9857 3.12326 3.04389L0.123256 6.04389C0.0792518 6.09623 0.046002 6.15673 0.0254108 6.22194C0.00481952 6.28715 -0.00270875 6.35577 0.00325644 6.42389Z" fill="#D8D8D8"/>
</svg>
