<svg width="15" height="15" viewBox="0 0 15 15" fill="none" xmlns="http://www.w3.org/2000/svg">
<path d="M5.40628 14.375C5.33625 14.3759 5.26676 14.3627 5.20188 14.3364C5.13699 14.31 5.07803 14.2709 5.02851 14.2214C4.97899 14.1719 4.93991 14.113 4.91355 14.0481C4.88719 13.9832 4.87408 13.9137 4.87503 13.8437V8.17706C4.87503 8.03616 4.931 7.9009 5.03063 7.80127C5.13026 7.70165 5.26539 7.64581 5.40628 7.64581C5.54718 7.64581 5.68231 7.70165 5.78193 7.80127C5.88156 7.9009 5.93753 8.03616 5.93753 8.17706V13.8437C5.93753 13.9846 5.88156 14.1197 5.78193 14.2193C5.68231 14.3189 5.54718 14.375 5.40628 14.375Z" fill="#B1B1B1"/>
<path d="M13.9063 14.375C13.8362 14.3759 13.7667 14.3627 13.7018 14.3364C13.637 14.31 13.578 14.2709 13.5285 14.2214C13.479 14.1719 13.4399 14.113 13.4135 14.0481C13.3872 13.9832 13.3741 13.9137 13.375 13.8437V4.6354C13.375 4.49451 13.431 4.35925 13.5306 4.25962C13.6302 4.15999 13.7654 4.10415 13.9063 4.10415C14.0471 4.10415 14.1823 4.15999 14.2819 4.25962C14.3815 4.35925 14.4375 4.49451 14.4375 4.6354V13.8437C14.4375 13.9846 14.3815 14.1197 14.2819 14.2193C14.1823 14.3189 14.0471 14.375 13.9063 14.375Z" fill="#B1B1B1"/>
<path d="M9.65627 14.375C9.58624 14.3759 9.51675 14.3627 9.45186 14.3364C9.38698 14.31 9.32802 14.2709 9.2785 14.2214C9.22897 14.1719 9.1899 14.113 9.16354 14.0481C9.13718 13.9832 9.12407 13.9137 9.12502 13.8437V1.09375C9.12502 0.952852 9.18099 0.817595 9.28061 0.717966C9.38024 0.618338 9.51537 0.5625 9.65627 0.5625C9.79716 0.5625 9.93229 0.618338 10.0319 0.717966C10.1315 0.817595 10.1875 0.952852 10.1875 1.09375V13.8437C10.1875 13.9846 10.1315 14.1197 10.0319 14.2193C9.93229 14.3189 9.79716 14.375 9.65627 14.375Z" fill="#B1B1B1"/>
<path d="M1.1563 14.375C1.08627 14.3759 1.01678 14.3627 0.951891 14.3364C0.887006 14.31 0.828048 14.2709 0.778526 14.2214C0.729004 14.1719 0.689929 14.113 0.663569 14.0481C0.637209 13.9832 0.624096 13.9137 0.625048 13.8437V4.6354C0.625048 4.49451 0.681016 4.35925 0.780644 4.25962C0.880273 4.15999 1.0154 4.10415 1.1563 4.10415C1.29719 4.10415 1.43232 4.15999 1.53195 4.25962C1.63158 4.35925 1.68754 4.49451 1.68754 4.6354V13.8437C1.68754 13.9846 1.63158 14.1197 1.53195 14.2193C1.43232 14.3189 1.29719 14.375 1.1563 14.375Z" fill="#B1B1B1"/>
</svg>
