<svg width="64" height="64" viewBox="0 0 64 64" fill="none" xmlns="http://www.w3.org/2000/svg">
<g clip-path="url(#clip0_706_7599)">
<path d="M62.3493 15.8615C61.285 14.9048 59.8887 14.4024 58.4587 14.4615C54.048 14.4615 49.6273 14.4615 45.2066 14.4615H44.3866C44.3866 13.7715 44.3866 13.1315 44.3866 12.4615C44.4247 10.2615 43.8665 8.09219 42.7712 6.18371C41.676 4.27524 40.0844 2.69875 38.1655 1.62147C36.5411 0.694502 34.7276 0.14815 32.8615 0.0235587C30.9953 -0.101033 29.1251 0.199382 27.3918 0.90219C25.6586 1.605 24.1076 2.69186 22.8554 4.08093C21.6032 5.47001 20.6824 7.12508 20.1627 8.92148C19.9003 10.1602 19.7331 11.4172 19.6626 12.6815C19.6323 13.2644 19.6323 13.8485 19.6626 14.4315H5.5105C4.47584 14.3401 3.43842 14.5731 2.54226 15.0982C1.64611 15.6233 0.935708 16.4143 0.509719 17.3615C0.155697 18.1157 -0.028697 18.9383 -0.0304041 19.7715C-0.0304041 30.6581 -0.0304041 41.5481 -0.0304041 52.4415C-0.0432423 53.1565 0.0901774 53.8666 0.361625 54.5282C0.633072 55.1898 1.03688 55.789 1.54821 56.289C2.05955 56.7891 2.66764 57.1794 3.33523 57.436C4.00283 57.6926 4.71575 57.8102 5.43041 57.7815C9.53105 57.7815 13.6317 57.7815 17.7424 57.7815H18.5525C18.5525 59.1115 18.5525 60.3715 18.5525 61.6315C18.5525 61.7315 18.2324 61.8915 18.0524 61.9015C16.8922 61.9015 15.7221 61.9015 14.4919 61.9015V64.0115H49.4974V61.9415C48.3872 61.9415 47.287 61.9415 46.1868 61.9415C45.5667 61.9415 45.3567 61.8015 45.3967 61.1515C45.4567 60.0815 45.3967 58.9915 45.3967 57.8315H46.1567C50.2574 57.8315 54.3581 57.8315 58.4587 57.8315C59.4978 57.8953 60.5319 57.6428 61.4246 57.1073C62.3174 56.5717 63.0268 55.7783 63.4595 54.8315C63.6746 54.3161 63.8486 53.7844 63.9796 53.2415V19.0115C63.7791 17.8168 63.2089 16.7151 62.3493 15.8615ZM22.3431 8.73147C23.121 6.68706 24.5285 4.94269 26.3625 3.75009C28.1965 2.5575 30.362 1.97837 32.5466 2.09631C34.7311 2.21426 36.8217 3.02316 38.5165 4.40628C40.2114 5.7894 41.4229 7.67519 41.9762 9.79147C42.3264 11.808 42.4439 13.8581 42.3262 15.9015C41.5861 15.7515 40.936 15.6415 40.3259 15.4915C40.2343 15.4685 40.1481 15.4275 40.0725 15.3708C39.997 15.3142 39.9336 15.243 39.8859 15.1615C38.6057 12.7415 36.5053 11.8115 33.8849 12.7715C32.6379 13.2619 31.2514 13.2619 30.0043 12.7715C29.4604 12.5386 28.8755 12.416 28.2838 12.4107C27.6921 12.4055 27.1053 12.5178 26.5574 12.741C26.0094 12.9643 25.5112 13.2941 25.0917 13.7113C24.6721 14.1285 24.3396 14.6248 24.1134 15.1715C24.0157 15.337 23.8581 15.4587 23.6733 15.5115C23.0331 15.6615 22.393 15.7715 21.6729 15.9115C21.7129 13.4815 21.463 11.0715 22.3531 8.73147H22.3431ZM42.3462 19.5815C42.3463 19.8493 42.2927 20.1143 42.1885 20.361C42.0842 20.6076 41.9315 20.8308 41.7393 21.0173C41.5472 21.2039 41.3194 21.3499 41.0698 21.4468C40.8201 21.5437 40.5535 21.5895 40.2858 21.5815V17.5815C40.554 17.5658 40.8225 17.6066 41.0739 17.7012C41.3253 17.7958 41.5541 17.942 41.7454 18.1305C41.9368 18.319 42.0865 18.5455 42.1848 18.7954C42.2831 19.0454 42.3278 19.3132 42.3162 19.5815H42.3462ZM42.3462 37.2015V43.3415H21.713V37.1915H19.7127V43.3215H15.6221C15.6221 43.1815 15.6221 43.0215 15.6221 42.8715C15.6221 41.4315 15.6221 39.9915 15.6221 38.5615C15.5906 37.4542 15.9212 36.3669 16.5637 35.4645C17.2063 34.5621 18.1258 33.894 19.1826 33.5615C20.5328 33.1015 21.923 32.7515 23.3332 32.3315C24.4134 34.8315 25.4735 37.3315 26.5537 39.8215L28.4941 38.2815C29.4942 37.4415 30.6143 36.6115 31.6545 35.7415C31.7107 35.6707 31.7822 35.6135 31.8636 35.5742C31.945 35.5348 32.0342 35.5144 32.1246 35.5144C32.215 35.5144 32.3043 35.5348 32.3857 35.5742C32.4671 35.6135 32.5385 35.6707 32.5947 35.7415C34.0549 36.9515 35.5952 38.1215 37.0254 39.3015L37.7055 39.8315L39.3257 36.0715C39.8558 34.8515 40.3259 33.6315 40.9259 32.3315C42.5162 32.8215 44.1365 33.1915 45.6368 33.8215C46.4575 34.1382 47.1704 34.6832 47.6914 35.3919C48.2124 36.1007 48.5198 36.9437 48.5772 37.8215C48.7172 39.6115 48.5772 41.4315 48.5772 43.2815H44.5166V37.1615L42.3462 37.2015ZM30.4543 34.0115L27.2539 36.5715L25.2536 31.8215C25.9937 31.6015 26.6638 31.3915 27.3439 31.2215C27.4292 31.2096 27.5162 31.2159 27.5989 31.24C27.6817 31.2642 27.7583 31.3056 27.8239 31.3615C28.7141 32.1915 29.5242 33.0615 30.4543 34.0115ZM28.8341 28.3215C30.8329 29.0911 33.0462 29.0911 35.045 28.3215C35.144 28.6267 35.1514 28.9542 35.066 29.2635C34.9807 29.5727 34.8064 29.8502 34.565 30.0615C33.6848 30.8415 32.8948 31.7215 32.0146 32.6115C31.0145 31.6115 30.0143 30.6115 29.0142 29.6115C28.8241 29.3515 28.9041 28.8215 28.8341 28.2915V28.3215ZM36.7454 36.5715L33.5548 34.0215C34.4949 33.0815 35.3751 32.1815 36.2852 31.3015C36.3365 31.2565 36.3975 31.2241 36.4635 31.2067C36.5294 31.1893 36.5985 31.1876 36.6653 31.2015C37.3654 31.3915 38.0555 31.6015 38.7856 31.8215C38.0955 33.3815 37.4354 34.9315 36.7153 36.5415L36.7454 36.5715ZM31.9946 26.8815C30.6847 26.8782 29.4104 26.4548 28.359 25.6736C27.3077 24.8924 26.5346 23.7946 26.1536 22.5415C25.9341 21.5733 25.8201 20.5842 25.8136 19.5915C25.7435 18.6561 25.7435 17.7168 25.8136 16.7815C25.8378 16.4055 25.9484 16.0402 26.1368 15.714C26.3251 15.3877 26.5862 15.1093 26.8997 14.9004C27.2132 14.6914 27.5707 14.5575 27.9443 14.5092C28.318 14.4608 28.6977 14.4992 29.0541 14.6215C29.8942 14.8715 30.7043 15.1815 31.5445 15.4215C31.8168 15.4913 32.1024 15.4913 32.3747 15.4215C33.1948 15.1815 33.9949 14.8815 34.815 14.6415C35.1792 14.5093 35.5695 14.4647 35.9542 14.5112C36.3389 14.5577 36.7072 14.694 37.0295 14.9091C37.3517 15.1242 37.6188 15.4122 37.8092 15.7496C37.9997 16.087 38.108 16.4644 38.1256 16.8515C38.1856 17.6115 38.1256 18.3915 38.1256 19.1615H38.2855C38.1937 20.2973 38.03 21.4263 37.7955 22.5415C37.4099 23.7816 36.6403 24.8673 35.5977 25.6419C34.5551 26.4166 33.2935 26.8401 31.9946 26.8515V26.8815ZM23.7333 17.6615V21.6615C23.474 21.6709 23.2154 21.6279 22.9731 21.5352C22.7307 21.4424 22.5097 21.3017 22.3229 21.1216C22.1362 20.9414 21.9877 20.7254 21.8864 20.4866C21.785 20.2478 21.7328 19.9909 21.733 19.7315C21.7195 19.4622 21.7605 19.193 21.8538 18.94C21.947 18.6871 22.0904 18.4555 22.2753 18.2594C22.4603 18.0632 22.6831 17.9065 22.9302 17.7986C23.1773 17.6907 23.4437 17.6338 23.7133 17.6315L23.7333 17.6615ZM2.0699 20.0615C2.012 19.5862 2.06293 19.104 2.21873 18.6513C2.37452 18.1985 2.63109 17.7871 2.96921 17.4481C3.30733 17.1091 3.71809 16.8513 4.17045 16.6942C4.62281 16.5372 5.10495 16.4849 5.58046 16.5415H19.5826C19.5826 17.5415 19.5826 18.4715 19.5826 19.4115C19.5458 20.3795 19.8384 21.3313 20.4127 22.1115C20.8072 22.6405 21.3229 23.0672 21.9163 23.356C22.5096 23.6449 23.1635 23.7873 23.8233 23.7715C23.9821 23.7668 24.1387 23.8101 24.2725 23.8958C24.4063 23.9814 24.5111 24.1053 24.5734 24.2515C25.0434 25.0527 25.5857 25.8092 26.1937 26.5115C26.4069 26.6989 26.5752 26.932 26.6861 27.1935C26.7969 27.4549 26.8474 27.7379 26.8338 28.0215C26.7538 29.4715 27.0638 29.1015 25.7136 29.5015C23.4132 30.2015 21.0929 30.8615 18.7125 31.5015C17.2527 31.8893 15.9529 32.7288 14.999 33.8999C14.0452 35.0709 13.486 36.5136 13.4016 38.0215C13.3316 40.4515 13.4016 42.8915 13.4016 45.3715H50.5374V44.2415C50.5374 42.1615 50.5375 40.0715 50.4575 38.0015C50.3686 36.4927 49.8039 35.0509 48.8443 33.8831C47.8847 32.7152 46.5797 31.8815 45.1167 31.5015C42.6563 30.8115 40.2059 30.0715 37.7455 29.3915C37.2154 29.2415 37.0154 29.0115 37.0854 28.4915C37.0701 28.2217 37.0701 27.9513 37.0854 27.6815C37.1533 27.3568 37.2823 27.048 37.4654 26.7715C38.0755 25.9015 38.7356 25.0815 39.3357 24.2115C39.5258 23.9415 39.6557 23.7715 40.0358 23.7615C40.6112 23.7805 41.1843 23.6794 41.7184 23.4646C42.2525 23.2497 42.736 22.9259 43.1378 22.5137C43.5397 22.1015 43.8512 21.6101 44.0524 21.0708C44.2536 20.5315 44.3402 19.9561 44.3065 19.3815V16.5115H58.4287C58.884 16.466 59.3437 16.5211 59.7753 16.673C60.2069 16.8249 60.5998 17.0698 60.9261 17.3904C61.2525 17.711 61.5044 18.0994 61.6639 18.5282C61.8235 18.957 61.8867 19.4155 61.8493 19.8715C61.8493 29.5981 61.8493 39.3248 61.8493 49.0515C61.8493 49.1815 61.8493 49.3015 61.8493 49.5415H61.1292C46.8936 49.5415 32.6647 49.5415 18.4425 49.5415C18.0358 49.5531 17.6361 49.4339 17.3023 49.2015C16.5278 48.5468 15.6287 48.056 14.6591 47.7587C13.6896 47.4613 12.6697 47.3636 11.6614 47.4715C8.6609 47.6315 5.75045 47.4715 2.78998 47.4715H2.05989C2.05989 47.2015 2.05989 46.9815 2.05989 46.7615L2.0699 20.0615ZM58.4988 55.7715H22.7632V57.8315H43.3263V61.9115H20.6429V55.7715H5.64053C3.35017 55.7715 2.11995 54.5615 2.10994 52.2815V49.6015H2.77008C6.39065 49.6015 10.0112 49.6015 13.6418 49.6015C14.0009 49.5865 14.3542 49.696 14.6419 49.9115C16.3422 51.4215 18.3124 51.7315 20.5628 51.7115C34.0749 51.6315 47.567 51.7115 61.1192 51.7115H61.9092C62.0418 52.2124 62.0515 52.738 61.9375 53.2435C61.8235 53.749 61.5892 54.2196 61.2544 54.6151C60.9197 55.0107 60.4943 55.3197 60.0145 55.5158C59.5348 55.7119 59.0148 55.7893 58.4988 55.7415V55.7715Z" fill="#00B9C0"/>
<path d="M4.1709 28.8711H17.493V26.8711H4.1709V28.8711Z" fill="#00B9C0"/>
<path d="M4.18066 22.7617V24.7617H17.4928V22.7617H4.18066Z" fill="#00B9C0"/>
<path d="M17.5031 18.6406H4.1709V20.6406H17.5031V18.6406Z" fill="#00B9C0"/>
<path d="M59.8389 33.0586H52.7178V35.0586H59.8789L59.8389 33.0586Z" fill="#00B9C0"/>
<path d="M52.7178 37.1914V39.1914H59.8789V37.1914H52.7178Z" fill="#00B9C0"/>
<path d="M52.7178 43.3281H59.8789V41.3281H52.7178V43.3281Z" fill="#00B9C0"/>
<path d="M52.7178 47.4609H59.8789V45.4609H52.7178V47.4609Z" fill="#00B9C0"/>
<path d="M4.1709 53.6289H6.1709V51.6289H4.1709V53.6289Z" fill="#00B9C0"/>
<path d="M8.29102 53.6119H10.291V51.6719H8.29102V53.6119Z" fill="#00B9C0"/>
<path d="M12.4121 53.6211H14.4121V51.6211H12.4121V53.6211Z" fill="#00B9C0"/>
</g>
<defs>
<clipPath id="clip0_706_7599">
<rect width="64" height="64" fill="white"/>
</clipPath>
</defs>
</svg>
