<svg width="21" height="21" viewBox="0 0 21 21" fill="none" xmlns="http://www.w3.org/2000/svg">
<path d="M11.588 17.5206C10.807 18.3017 9.54066 18.3017 8.75962 17.5206L7.91499 16.676C7.13394 15.895 7.13394 14.6286 7.91499 13.8476L8.75962 13.003C10.3217 11.4409 10.3217 8.90821 8.75962 7.34611L7.91499 6.50148C7.13394 5.72043 7.13394 4.4541 7.91499 3.67306L8.75962 2.82843C9.54066 2.04738 10.807 2.04738 11.588 2.82843L17.5199 8.76033C18.301 9.54137 18.301 10.8077 17.5199 11.5888L14.554 14.5547L11.588 17.5206Z" stroke="#00B9C0" stroke-width="2"/>
<path d="M8.75961 2.83091C9.54066 2.04986 10.807 2.04987 11.588 2.83091L12.4327 3.67554C13.2137 4.45659 13.2137 5.72292 12.4327 6.50397L11.588 7.3486C10.0259 8.9107 10.0259 11.4434 11.588 13.0055L12.4327 13.8501C13.2137 14.6311 13.2137 15.8975 12.4327 16.6785L11.588 17.5231C10.807 18.3042 9.54066 18.3042 8.75961 17.5231L2.82772 11.5912C2.04667 10.8102 2.04667 9.54386 2.82772 8.76281L5.79367 5.79686L8.75961 2.83091Z" stroke="#00B9C0" stroke-width="2"/>
</svg>
