<svg width="20" height="22" viewBox="0 0 20 22" fill="none" xmlns="http://www.w3.org/2000/svg">
<path d="M7.46012 12.6723L4.38162 10.9845C4.2071 10.8929 4.00165 10.8702 3.80966 10.9213C3.61766 10.9724 3.45452 11.0932 3.35545 11.2577C3.2608 11.423 3.23671 11.6165 3.28831 11.7982C3.3399 11.9799 3.46325 12.1357 3.63253 12.2332L6.71104 13.9209C6.88542 14.0084 7.08821 14.03 7.27861 13.9811C7.46901 13.9322 7.63289 13.8166 7.7372 13.6574C7.83499 13.4912 7.86072 13.2954 7.80898 13.1115C7.75724 12.9275 7.6321 12.7699 7.46012 12.6723Z" fill="#00B9C0"/>
<path d="M19.6203 5.73547C19.371 5.33272 19.0178 4.99698 18.5942 4.75995L11.411 0.857844C10.9817 0.623339 10.4952 0.5 10 0.5C9.50485 0.5 9.01835 0.623339 8.58902 0.857844L1.40585 4.75995C0.981337 4.99594 0.627927 5.33191 0.379679 5.73547C0.130492 6.14099 -0.000557169 6.60229 1.78056e-06 7.07194V14.9543C0.00606338 15.4181 0.137633 15.8727 0.382059 16.2742C0.626485 16.6757 0.975521 17.0106 1.39557 17.2467L8.57875 21.1488C9.00066 21.3781 9.47805 21.4992 9.96405 21.5H10.0257C10.5086 21.5002 10.9829 21.379 11.4007 21.1488L18.5839 17.2467C19.0129 17.0113 19.3695 16.6729 19.6179 16.2655C19.8664 15.8581 19.9982 15.3959 20 14.925V7.04276C19.9928 6.58337 19.8621 6.13327 19.6203 5.73547ZM9.98459 10.1546L7.08058 8.56452L14.7768 4.34054L17.6809 5.93065L9.98459 10.1546ZM9.3381 2.05784C9.53509 1.9508 9.75771 1.89365 9.98459 1.89196C10.2084 1.89264 10.428 1.94992 10.6208 2.05784L13.2376 3.49183L5.54133 7.71582L2.28834 5.93065L9.3381 2.05784ZM2.15493 15.998C1.96196 15.8899 1.80185 15.7359 1.69032 15.5512C1.57879 15.3665 1.51966 15.1575 1.51871 14.9445V7.19876L5.16166 9.14981L9.21497 11.374V19.8221L2.15493 15.998ZM17.804 15.998L10.7542 19.9001V11.3936L18.4505 7.16959V14.9152C18.456 15.1333 18.3999 15.3489 18.288 15.5393C18.1761 15.7298 18.0125 15.8881 17.8143 15.998H17.804Z" fill="#00B9C0"/>
</svg>
