<svg width="16" height="14" viewBox="0 0 16 14" fill="none" xmlns="http://www.w3.org/2000/svg">
<path d="M15.4375 5.36096C15.4375 3.07331 13.5762 0.62538 10.8148 0.62538C9.77656 0.612722 8.77147 0.974323 8 1.63806C7.2262 0.973229 6.21831 0.611601 5.17757 0.62538C2.41615 0.62538 0.5625 3.07331 0.5625 5.36096C0.5625 9.33884 6.2684 12.712 7.69487 13.2803C7.78575 13.3376 7.8912 13.3703 8 13.375C8.104 13.3699 8.20442 13.3371 8.28988 13.2803C9.73161 12.712 15.4375 9.33884 15.4375 5.36096ZM8 12.2239C6.76423 11.6338 1.70673 8.63215 1.70673 5.36096C1.70673 3.60515 3.10269 1.7182 5.17757 1.7182C5.63286 1.71299 6.0836 1.80516 6.49674 1.98795C6.90989 2.17075 7.27496 2.43953 7.5652 2.7746L7.65673 2.8256L7.71776 2.86203C7.78882 2.887 7.86338 2.90174 7.93898 2.90574C8.01209 2.90167 8.08413 2.88693 8.15257 2.86203L8.21359 2.8256C8.24658 2.81303 8.27743 2.79584 8.30513 2.7746H8.34327C8.63344 2.44183 8.99761 2.175 9.40931 1.99352C9.821 1.81204 10.2699 1.72048 10.7233 1.72549C12.8058 1.72549 14.2017 3.61244 14.2017 5.36824C14.2933 8.63215 9.22815 11.6338 8 12.2239Z" fill="#B1B1B1"/>
</svg>
