<svg viewBox="0 0 20 20" fill="none" xmlns="http://www.w3.org/2000/svg">
<path d="M16 3H19H16ZM1 3H12H1ZM8 10H19H8ZM1 10H3H1ZM16 17H19H16ZM1 17H12H1ZM14 5C14.5304 5 15.0391 4.78929 15.4142 4.41421C15.7893 4.03914 16 3.53043 16 3C16 2.46957 15.7893 1.96086 15.4142 1.58579C15.0391 1.21071 14.5304 1 14 1C13.4696 1 12.9609 1.21071 12.5858 1.58579C12.2107 1.96086 12 2.46957 12 3C12 3.53043 12.2107 4.03914 12.5858 4.41421C12.9609 4.78929 13.4696 5 14 5ZM6 12C6.53043 12 7.03914 11.7893 7.41421 11.4142C7.78929 11.0391 8 10.5304 8 10C8 9.46957 7.78929 8.96086 7.41421 8.58579C7.03914 8.21071 6.53043 8 6 8C5.46957 8 4.96086 8.21071 4.58579 8.58579C4.21071 8.96086 4 9.46957 4 10C4 10.5304 4.21071 11.0391 4.58579 11.4142C4.96086 11.7893 5.46957 12 6 12ZM14 19C14.5304 19 15.0391 18.7893 15.4142 18.4142C15.7893 18.0391 16 17.5304 16 17C16 16.4696 15.7893 15.9609 15.4142 15.5858C15.0391 15.2107 14.5304 15 14 15C13.4696 15 12.9609 15.2107 12.5858 15.5858C12.2107 15.9609 12 16.4696 12 17C12 17.5304 12.2107 18.0391 12.5858 18.4142C12.9609 18.7893 13.4696 19 14 19Z" fill="#00B6C9"/>
<path d="M16 3H19M1 3H12M8 10H19M1 10H3M16 17H19M1 17H12M14 5C14.5304 5 15.0391 4.78929 15.4142 4.41421C15.7893 4.03914 16 3.53043 16 3C16 2.46957 15.7893 1.96086 15.4142 1.58579C15.0391 1.21071 14.5304 1 14 1C13.4696 1 12.9609 1.21071 12.5858 1.58579C12.2107 1.96086 12 2.46957 12 3C12 3.53043 12.2107 4.03914 12.5858 4.41421C12.9609 4.78929 13.4696 5 14 5ZM6 12C6.53043 12 7.03914 11.7893 7.41421 11.4142C7.78929 11.0391 8 10.5304 8 10C8 9.46957 7.78929 8.96086 7.41421 8.58579C7.03914 8.21071 6.53043 8 6 8C5.46957 8 4.96086 8.21071 4.58579 8.58579C4.21071 8.96086 4 9.46957 4 10C4 10.5304 4.21071 11.0391 4.58579 11.4142C4.96086 11.7893 5.46957 12 6 12V12ZM14 19C14.5304 19 15.0391 18.7893 15.4142 18.4142C15.7893 18.0391 16 17.5304 16 17C16 16.4696 15.7893 15.9609 15.4142 15.5858C15.0391 15.2107 14.5304 15 14 15C13.4696 15 12.9609 15.2107 12.5858 15.5858C12.2107 15.9609 12 16.4696 12 17C12 17.5304 12.2107 18.0391 12.5858 18.4142C12.9609 18.7893 13.4696 19 14 19Z" stroke="white" stroke-width="1.5" stroke-miterlimit="10" stroke-linecap="round" stroke-linejoin="round"/>
</svg>
