<svg width="56" height="64" viewBox="0 0 56 64" fill="none" xmlns="http://www.w3.org/2000/svg">
<g clip-path="url(#clip0_706_7630)">
<path d="M54.2626 58.0088C53.5342 58.0088 52.8058 58.0088 52.0275 58.0088C52.0275 57.5688 52.0274 57.2288 51.9575 56.8888C51.8079 55.1788 51.738 53.4588 51.4786 51.7788C49.9563 42.0487 45.6951 32.9561 39.1955 25.5688C39.0338 25.3803 38.9086 25.1633 38.8263 24.9288C38.5269 24.0188 38.2474 23.0988 37.968 22.1788L37.6987 22.1088C37.9156 21.975 38.1194 21.821 38.3074 21.6488L43.7355 16.1888C44.5637 15.3488 44.5737 14.9688 43.7355 14.1188C43.3563 13.7388 42.8973 13.4288 42.588 13.1188L47.3975 8.29881C47.627 8.53881 47.8964 8.84881 48.1957 9.13881C48.2783 9.22023 48.3761 9.28456 48.4834 9.32813C48.5908 9.37169 48.7056 9.39363 48.8214 9.3927C48.9373 9.39177 49.0518 9.36799 49.1585 9.32271C49.2651 9.27743 49.3618 9.21155 49.443 9.12882C49.5242 9.04608 49.5885 8.94812 49.6319 8.84053C49.6754 8.73294 49.6973 8.61781 49.6964 8.50174C49.6954 8.38567 49.6717 8.27092 49.6266 8.16403C49.5814 8.05715 49.5157 7.96024 49.4331 7.87882L48.0062 6.49881L41.8796 0.368822C41.8057 0.263813 41.7096 0.176496 41.5981 0.113145C41.4865 0.0497945 41.3624 0.0119728 41.2346 0.00241224C41.1068 -0.00714828 40.9784 0.0117867 40.8587 0.0578474C40.739 0.103908 40.6311 0.175955 40.5425 0.268815C40.0935 0.658815 40.1234 1.14882 40.6323 1.64882C40.8944 1.87963 41.171 2.0934 41.4604 2.28882L36.611 7.13881C36.1919 6.69881 35.7429 6.13882 35.244 5.69882C35.151 5.59423 35.0358 5.5118 34.9068 5.45757C34.7779 5.40334 34.6386 5.37867 34.4989 5.38538C34.3593 5.39209 34.2229 5.43001 34.0998 5.49635C33.9766 5.5627 33.8698 5.65578 33.7872 5.76882C26.9422 12.6621 20.0871 19.5388 13.2221 26.3988C13.1157 26.4797 13.0285 26.5831 12.9666 26.7017C12.9046 26.8202 12.8696 26.951 12.8639 27.0847C12.8582 27.2184 12.882 27.3517 12.9335 27.4751C12.9851 27.5986 13.0631 27.7091 13.1622 27.7988C13.4116 28.0988 13.6711 28.3788 13.8108 28.5288C13.1223 29.2988 12.4537 30.0088 11.8151 30.7488C11.1765 31.4888 11.1965 31.8488 11.8151 32.5188L17.2034 37.9288C17.9418 38.6688 18.311 38.6688 19.0494 37.9288C19.7877 37.1888 20.3765 36.5488 21.045 35.7988C21.2545 36.0488 21.3444 36.1888 21.4541 36.2988C22.452 37.2388 22.6915 37.2388 23.6095 36.2988C25.3058 34.5988 27.012 32.8988 28.6983 31.1888C29.0077 30.8788 29.2871 30.5488 29.4667 30.3488C30.4645 30.6888 31.2129 30.9388 31.9712 31.2388C32.077 31.2849 32.1721 31.3522 32.251 31.4364C32.3299 31.5207 32.3909 31.6202 32.4302 31.7288C32.6697 32.6188 32.8892 33.5188 33.0488 34.4288C33.7165 37.4187 33.7877 40.5113 33.2583 43.5288C32.6397 46.4288 31.1729 48.7588 28.0697 49.2488C25.5838 49.511 23.0857 49.6412 20.586 49.6388V47.4088H21.3644C22.7713 47.4088 24.1782 47.4088 25.5851 47.4088C26.3335 47.4088 26.6428 47.1088 26.6528 46.3588C26.6528 45.0888 26.6528 43.8188 26.6528 42.5388C26.6528 41.7388 26.3534 41.4488 25.5552 41.4488H2.82474C2.0664 41.4488 1.7671 41.7388 1.75713 42.4488C1.75713 43.7488 1.75713 45.0388 1.75713 46.3388C1.75713 47.1388 2.04649 47.3888 2.87468 47.3988C4.28161 47.3988 5.68852 47.3988 7.09545 47.3988C7.34491 47.3988 7.58441 47.3988 7.8638 47.3988C7.8638 48.1788 7.8638 48.8688 7.8638 49.5588C7.84038 49.756 7.73988 49.9358 7.58438 50.0588C6.09233 51.0694 5.02608 52.5975 4.59091 54.3488C4.24167 55.4888 4.05214 56.6788 3.77275 57.9288C3.02438 57.9288 2.21616 57.9288 1.4179 57.9288C0.619642 57.9288 0.420077 58.2488 0.420077 58.9288C0.420077 60.2988 0.420077 61.6688 0.420077 63.0288C0.409628 63.1514 0.425787 63.2748 0.467581 63.3905C0.509376 63.5062 0.575764 63.6114 0.662103 63.6989C0.748442 63.7864 0.852732 63.854 0.967711 63.8972C1.08269 63.9403 1.20557 63.958 1.32801 63.9488H54.2126C55.1406 63.9488 55.4101 63.6788 55.4201 62.7488C55.4201 61.5688 55.4201 60.3888 55.4201 59.2088C55.4899 58.2888 55.2105 58.0088 54.2626 58.0088ZM50.2113 57.9588C50.0666 57.9893 49.9199 58.0093 49.7724 58.0188H41.7898C41.4505 58.0188 41.1811 58.0188 41.1212 57.5588C40.3671 52.6406 40.0998 47.6597 40.323 42.6888C40.4659 41.0363 40.7394 39.3979 41.1412 37.7888C41.3441 37.0371 41.6823 36.3288 42.139 35.6988C42.4942 35.3081 42.9043 34.9712 43.3563 34.6988C47.168 40.1588 50.5107 51.6988 50.2113 57.9588ZM42.6779 3.90881L45.8708 7.07881L41.3108 11.6388L38.1677 8.49881C39.6744 6.95881 41.2011 5.39882 42.6779 3.90881ZM18.1813 36.0988L13.5913 31.4988L15.138 30.0088L19.7777 34.6488L18.1813 36.0988ZM28.399 28.8988L22.6515 34.6888L15.1678 27.1788L34.6154 7.68881L42.109 15.1888L36.4015 20.7788C35.3101 19.9591 33.942 19.6002 32.5899 19.7788C31.2773 19.9734 30.0663 20.5996 29.1473 21.5588C27.1018 23.6688 26.8922 25.8788 28.399 28.9188V28.8988ZM33.2983 29.5588C32.7621 29.5949 32.2244 29.5166 31.7206 29.3292C31.2168 29.1418 30.7584 28.8494 30.3756 28.4714C29.9928 28.0934 29.6942 27.6384 29.4997 27.1364C29.3052 26.6343 29.2191 26.0967 29.2471 25.5588C29.2272 25.0335 29.3142 24.5097 29.5025 24.019C29.6908 23.5284 29.9767 23.0813 30.3427 22.7047C30.7087 22.3282 31.1472 22.0301 31.6316 21.8286C32.1161 21.6271 32.6364 21.5263 33.1609 21.5324C33.6854 21.5385 34.2032 21.6513 34.6828 21.8641C35.1625 22.0768 35.5939 22.385 35.9511 22.77C36.3083 23.155 36.5837 23.6086 36.7606 24.1035C36.9375 24.5984 37.0122 25.1241 36.9802 25.6488C37.0072 26.1519 36.9323 26.6552 36.7599 27.1284C36.5874 27.6016 36.3211 28.0349 35.977 28.4021C35.6329 28.7694 35.2183 29.063 34.7579 29.2652C34.2975 29.4675 33.8009 29.5741 33.2983 29.5788V29.5588ZM3.663 45.5588V43.2188H24.9665V45.5588H3.663ZM18.8299 47.4288V49.4888H9.77954V47.4288H18.8299ZM7.65429 52.4288C7.94512 52.0428 8.32467 51.733 8.76077 51.5258C9.19686 51.3186 9.67645 51.2202 10.1587 51.2388C15.2676 51.2388 20.3665 51.2388 25.4754 51.2388C26.442 51.2492 27.4075 51.1688 28.3591 50.9988C32.1109 50.2288 34.1764 47.7388 35.0245 44.1288C35.6421 41.163 35.6659 38.1039 35.0944 35.1288C34.8849 33.8288 34.5955 32.5488 34.3361 31.1888C35.2969 30.953 36.1855 30.4853 36.9247 29.8264C37.6638 29.1676 38.231 28.3376 38.5768 27.4088C39.9638 29.3288 41.2809 31.1388 42.5681 32.9988C39.6644 34.5988 39.1255 37.3788 38.7464 40.1688C38.2056 45.3291 38.3197 50.5373 39.0857 55.6688C39.1755 56.3988 39.2552 57.1188 39.345 57.8988H5.72844C5.84009 55.957 6.50886 54.0889 7.65429 52.5188V52.4288ZM53.6937 62.1188H2.33582V59.7388H53.6937V62.1188Z" fill="#00B9C0"/>
<path d="M33.1786 22.6992C32.408 22.7503 31.6834 23.0847 31.1438 23.6384C30.6042 24.1921 30.2876 24.926 30.2549 25.6992C30.2992 26.4198 30.6102 27.0978 31.1269 27.6009C31.6436 28.1039 32.3289 28.3957 33.0488 28.4192C33.838 28.4039 34.5905 28.0828 35.1486 27.5235C35.7067 26.9642 36.027 26.2101 36.0423 25.4192C35.9751 24.695 35.6477 24.0198 35.1209 23.5195C34.5941 23.0191 33.9038 22.7276 33.1786 22.6992ZM33.1786 26.6392C32.7495 26.7092 32.2805 26.1392 32.3005 25.6392C32.297 25.401 32.3785 25.1693 32.5303 24.986C32.6822 24.8027 32.8943 24.6797 33.1286 24.6392C33.5577 24.5692 34.0167 25.1492 34.0067 25.7392C33.9862 25.9644 33.8903 26.1759 33.7345 26.3393C33.5786 26.5028 33.3721 26.6085 33.1486 26.6392H33.1786Z" fill="#00B9C0"/>
</g>
<defs>
<clipPath id="clip0_706_7630">
<rect width="55" height="64" fill="white" transform="translate(0.5)"/>
</clipPath>
</defs>
</svg>
