<svg width="16" height="16" viewBox="0 0 16 16" fill="none" xmlns="http://www.w3.org/2000/svg">
<path d="M13.1656 10.3941C12.82 10.0493 12.3515 9.85541 11.863 9.85541C11.3746 9.85541 10.9061 10.0493 10.5605 10.3941L9.83964 11.147C7.63412 10.1493 5.86481 8.38744 4.85894 6.1873L5.53888 5.50795C5.72106 5.33858 5.86753 5.13445 5.96968 4.90772C6.07182 4.681 6.12757 4.43616 6.13367 4.18761C6.13978 3.93906 6.09612 3.69176 6.00523 3.4603C5.91434 3.22885 5.77805 3.01819 5.6044 2.84009L4.64596 1.87421C4.2224 1.4539 3.64962 1.21804 3.05263 1.21804C2.45563 1.21804 1.88286 1.4539 1.45929 1.87421L0.926823 2.40611C0.559563 2.78368 0.28887 3.24407 0.137706 3.74843C-0.0134594 4.25279 -0.0406353 4.78626 0.0584813 5.30335C0.682953 7.8835 2.00738 10.2418 3.88617 12.1189C5.76497 13.9959 8.12539 15.3189 10.708 15.9428C10.9165 15.9778 11.1273 15.9968 11.3387 16C12.1879 16.0044 13.0042 15.6718 13.6079 15.0752L14.1404 14.5433C14.3507 14.3349 14.5176 14.0868 14.6315 13.8136C14.7454 13.5404 14.804 13.2476 14.804 12.9517C14.804 12.6557 14.7454 12.3625 14.6315 12.0893C14.5176 11.8161 14.3507 11.568 14.1404 11.3596L13.1656 10.3941ZM13.2557 13.6678L12.7232 14.1997C12.4891 14.4283 12.2021 14.5954 11.8877 14.6868C11.5734 14.7782 11.2413 14.7907 10.921 14.7232C8.58586 14.1453 6.45264 12.9424 4.75084 11.2437C3.04904 9.54493 1.84308 7.41478 1.26269 5.08236C1.19835 4.7616 1.21322 4.4302 1.30599 4.11648C1.39877 3.80275 1.56667 3.51599 1.79516 3.28167L2.32763 2.74179C2.42249 2.64771 2.535 2.57335 2.65871 2.5228C2.78241 2.47224 2.91487 2.44618 3.04853 2.44687C3.32061 2.44686 3.58206 2.55279 3.77762 2.74179L4.73606 3.70727C4.79497 3.77192 4.84016 3.84807 4.86886 3.93065C4.89757 4.01324 4.90921 4.1008 4.90309 4.18801C4.89696 4.27522 4.87318 4.3604 4.83321 4.43817C4.79324 4.51595 4.73791 4.58458 4.67054 4.64038L3.99059 5.31973C3.81858 5.49226 3.70183 5.71213 3.65515 5.95113C3.60847 6.19013 3.634 6.43758 3.72847 6.66205C4.8539 9.15347 6.85271 11.1472 9.34812 12.2679C9.56956 12.362 9.81399 12.3882 10.0503 12.343C10.2866 12.2979 10.5042 12.1836 10.6752 12.0146L11.4289 11.2613C11.5441 11.1463 11.7002 11.0818 11.863 11.0818C12.0259 11.0818 12.182 11.1463 12.2972 11.2613L13.2557 12.2192C13.352 12.3136 13.4286 12.4261 13.4808 12.5504C13.5331 12.6748 13.56 12.8084 13.56 12.9433C13.56 13.0781 13.5331 13.2117 13.4808 13.3361C13.4286 13.4605 13.352 13.5733 13.2557 13.6678Z" fill="#231F20"/>
<path d="M10.708 5.30338C10.9584 5.54954 11.1558 5.84427 11.2883 6.16936C11.4207 6.49444 11.4852 6.84308 11.478 7.19398C11.4769 7.27459 11.4918 7.35447 11.5216 7.42936C11.5515 7.50424 11.5959 7.5726 11.6522 7.63036C11.7085 7.68812 11.7756 7.7344 11.8497 7.76623C11.9239 7.79807 12.0035 7.81472 12.0842 7.81579C12.2458 7.8158 12.4008 7.7525 12.5158 7.63916C12.6308 7.52581 12.6965 7.37174 12.6986 7.21036C12.7063 6.69557 12.6106 6.18453 12.4169 5.7074C12.2233 5.23027 11.9358 4.79667 11.5714 4.43261C11.2069 4.06855 10.7731 3.78127 10.2955 3.58782C9.81796 3.39436 9.30636 3.29876 8.79107 3.30648C8.71039 3.30755 8.63071 3.3246 8.55658 3.35644C8.48244 3.38827 8.4153 3.43415 8.359 3.49191C8.30271 3.54967 8.25836 3.61803 8.22848 3.69292C8.1986 3.7678 8.18377 3.84768 8.18486 3.92829C8.18118 4.01021 8.19492 4.09222 8.22513 4.16846C8.25534 4.2447 8.30135 4.31347 8.36015 4.37067C8.41896 4.42787 8.48921 4.47201 8.5663 4.50015C8.6434 4.52829 8.72558 4.53997 8.80745 4.53411C9.51683 4.53472 10.1982 4.8105 10.708 5.30338Z" fill="#231F20"/>
<path d="M13.8946 2.11159C13.2282 1.44148 12.4356 0.909897 11.5624 0.547483C10.6893 0.185069 9.75294 -0.00105824 8.80744 4.52562e-06C8.6445 4.52561e-06 8.48822 0.0647205 8.373 0.179833C8.25778 0.294946 8.19305 0.451026 8.19305 0.61382C8.19305 0.776614 8.25778 0.932693 8.373 1.04781C8.48822 1.16292 8.6445 1.22763 8.80744 1.22763C10.3899 1.2298 11.9067 1.85931 13.0249 2.97797C14.1431 4.09663 14.7712 5.61301 14.7712 7.19395C14.7712 7.35674 14.8359 7.51282 14.9511 7.62794C15.0663 7.74305 15.2226 7.80777 15.3856 7.80777C15.5485 7.80777 15.7048 7.74305 15.82 7.62794C15.9352 7.51282 16 7.35674 16 7.19395C16.0034 6.24971 15.8191 5.31425 15.4577 4.44177C15.0963 3.56929 14.565 2.77722 13.8946 2.11159Z" fill="#231F20"/>
</svg>
