<svg width="40" height="40" viewBox="0 0 40 40" fill="none" xmlns="http://www.w3.org/2000/svg">
<path fill-rule="evenodd" clip-rule="evenodd" d="M20 40C31.0457 40 40 31.0457 40 20C40 8.9543 31.0457 0 20 0C8.9543 0 0 8.9543 0 20C0 31.0457 8.9543 40 20 40ZM20 39.0244C30.5069 39.0244 39.0244 30.5069 39.0244 20C39.0244 9.49312 30.5069 0.97561 20 0.97561C9.49312 0.97561 0.97561 9.49312 0.97561 20C0.97561 30.5069 9.49312 39.0244 20 39.0244Z" fill="#212121"/>
<path d="M16.041 14.8804C16.041 14.0694 16.9558 13.5957 17.6181 14.0638L24.8514 19.1755C25.4154 19.5741 25.4152 20.4107 24.8511 20.8091L17.6178 25.9165C16.9554 26.3842 16.041 25.9105 16.041 25.0996L16.041 14.8804Z" fill="#212121"/>
</svg>
