<svg width="20" height="20" viewBox="0 0 20 20" fill="none" xmlns="http://www.w3.org/2000/svg">
<path d="M10.004 19.0037C4.94399 19.0037 0.863987 14.8337 1.00399 9.74372C1.13399 5.04372 5.05399 1.13372 9.74399 1.00372C11.2787 0.959617 12.7991 1.30872 14.1609 2.01785C15.5226 2.72697 16.6804 3.77256 17.5241 5.05523C18.3679 6.33791 18.8696 7.81505 18.9816 9.34628C19.0936 10.8775 18.8121 12.4119 18.164 13.8037L19.324 19.3437L13.794 18.1737C12.6058 18.722 11.3126 19.0052 10.004 19.0037Z" fill="white" stroke="#00BAC1" stroke-width="1.4"/>
<path d="M10.0039 11.2539C10.1681 11.2539 10.3306 11.2216 10.4823 11.1588C10.6339 11.0959 10.7717 11.0039 10.8878 10.8878C11.0039 10.7717 11.0959 10.6339 11.1588 10.4823C11.2216 10.3306 11.2539 10.1681 11.2539 10.0039C11.2539 9.83975 11.2216 9.67721 11.1588 9.52555C11.0959 9.37389 11.0039 9.2361 10.8878 9.12002C10.7717 9.00395 10.6339 8.91187 10.4823 8.84906C10.3306 8.78624 10.1681 8.75391 10.0039 8.75391C9.67239 8.75391 9.35444 8.8856 9.12002 9.12002C8.8856 9.35444 8.75391 9.67239 8.75391 10.0039C8.75391 10.3354 8.8856 10.6534 9.12002 10.8878C9.35444 11.1222 9.67239 11.2539 10.0039 11.2539ZM6.00391 11.2539C6.16806 11.2539 6.3306 11.2216 6.48226 11.1588C6.63392 11.0959 6.77172 11.0039 6.88779 10.8878C7.00386 10.7717 7.09594 10.6339 7.15876 10.4823C7.22157 10.3306 7.25391 10.1681 7.25391 10.0039C7.25391 9.83975 7.22157 9.67721 7.15876 9.52555C7.09594 9.37389 7.00386 9.2361 6.88779 9.12002C6.77172 9.00395 6.63392 8.91187 6.48226 8.84906C6.3306 8.78624 6.16806 8.75391 6.00391 8.75391C5.67239 8.75391 5.35444 8.8856 5.12002 9.12002C4.8856 9.35444 4.75391 9.67239 4.75391 10.0039C4.75391 10.3354 4.8856 10.6534 5.12002 10.8878C5.35444 11.1222 5.67239 11.2539 6.00391 11.2539ZM14.0039 11.2539C14.1681 11.2539 14.3306 11.2216 14.4823 11.1588C14.6339 11.0959 14.7717 11.0039 14.8878 10.8878C15.0039 10.7717 15.0959 10.6339 15.1588 10.4823C15.2216 10.3306 15.2539 10.1681 15.2539 10.0039C15.2539 9.83975 15.2216 9.67721 15.1588 9.52555C15.0959 9.37389 15.0039 9.2361 14.8878 9.12002C14.7717 9.00395 14.6339 8.91187 14.4823 8.84906C14.3306 8.78624 14.1681 8.75391 14.0039 8.75391C13.6724 8.75391 13.3544 8.8856 13.12 9.12002C12.8856 9.35444 12.7539 9.67239 12.7539 10.0039C12.7539 10.3354 12.8856 10.6534 13.12 10.8878C13.3544 11.1222 13.6724 11.2539 14.0039 11.2539Z" fill="white" stroke="#00BAC1" stroke-width="1.4"/>
</svg>
