<svg width="44" height="24" viewBox="0 0 44 24" fill="none" xmlns="http://www.w3.org/2000/svg">
<g clip-path="url(#clip0_1118_7135)">
<path d="M8.56986 22.58L1.41986 15.43C0.512431 14.5191 0.00292969 13.2858 0.00292969 12C0.00292969 10.7142 0.512431 9.48089 1.41986 8.57L8.56986 1.42C9.48025 0.511443 10.7137 0.000813899 11.9999 0H39.4299C40.7144 -2.7305e-06 41.9465 0.509604 42.8558 1.41699C43.7651 2.32438 44.2772 3.55543 44.2799 4.84V19.14C44.2812 19.7778 44.1567 20.4095 43.9136 20.9991C43.6704 21.5887 43.3134 22.1245 42.8629 22.5759C42.4124 23.0274 41.8773 23.3855 41.2882 23.6299C40.6991 23.8742 40.0676 24 39.4299 24H11.9999C10.7137 23.9992 9.48025 23.4886 8.56986 22.58Z" fill="#FF0064"/>
</g>
<defs>
<clipPath id="clip0_1118_7135">
<rect width="44" height="24" fill="white"/>
</clipPath>
</defs>
</svg>
