<svg width="5" height="9" viewBox="0 0 5 9" fill="none" xmlns="http://www.w3.org/2000/svg">
<path d="M0.708642 8.99214C0.620761 8.99321 0.533572 8.97588 0.452262 8.94118C0.370952 8.90648 0.297182 8.85513 0.235341 8.79018C0.107864 8.65557 0.0364078 8.47421 0.0364077 8.28527C0.0364077 8.09633 0.107864 7.91497 0.235341 7.78036L3.35427 4.49845L0.198932 1.21655C0.0714544 1.08194 -3.45436e-07 0.900579 -3.61954e-07 0.711637C-3.78472e-07 0.522694 0.0714543 0.341333 0.198932 0.206727C0.326286 0.0749178 0.498639 0.000924089 0.678302 0.000924081C0.857964 0.000924073 1.03032 0.0749177 1.15767 0.206727L4.79845 3.99354C4.92593 4.12815 4.99738 4.30951 4.99738 4.49845C4.99738 4.68739 4.92593 4.86875 4.79845 5.00336L1.15767 8.79018C1.03796 8.91418 0.877498 8.98635 0.708642 8.99214Z" fill="#00B6C9"/>
</svg>
