<svg width="5" height="9" viewBox="0 0 5 9" fill="none" xmlns="http://www.w3.org/2000/svg">
<path d="M4.29136 0.00785895C4.37924 0.00679294 4.46643 0.0241231 4.54774 0.0588192C4.62905 0.0935153 4.70282 0.144868 4.76466 0.209822C4.89214 0.344428 4.96359 0.525788 4.96359 0.714731C4.96359 0.903673 4.89214 1.08503 4.76466 1.21964L1.64573 4.50155L4.80107 7.78345C4.92855 7.91806 5 8.09942 5 8.28836C5 8.47731 4.92855 8.65867 4.80107 8.79327C4.67371 8.92508 4.50136 8.99908 4.3217 8.99908C4.14204 8.99908 3.96968 8.92508 3.84233 8.79327L0.201553 5.00646C0.0740754 4.87185 0.0026194 4.69049 0.00261938 4.50155C0.00261935 4.31261 0.0740753 4.13125 0.201553 3.99664L3.84233 0.209822C3.96204 0.0858197 4.1225 0.0136465 4.29136 0.00785895Z" fill="#00B6C9"/>
</svg>
