<svg width="21" height="16" viewBox="0 0 21 16" fill="none" xmlns="http://www.w3.org/2000/svg">
<path fill-rule="evenodd" clip-rule="evenodd" d="M12.443 1.14286C12.2221 1.14286 12.0178 1.23542 11.907 1.38571L11.9019 1.39199L7.43805 7.10059V14.8571H15.9724C16.2636 14.8571 16.5157 14.6977 16.5787 14.4737L16.5809 14.4646L19.0446 6.87486C19.1243 6.57143 18.8309 6.28571 18.4368 6.28571H14.6822C14.1048 6.28571 13.5325 6.13314 13.1218 5.81714C12.6937 5.48742 12.493 5.016 12.622 4.5L13.3167 1.72743C13.3927 1.42458 13.0986 1.14286 12.7074 1.14286H12.443ZM5.98922 14.8571V7.51029H2.32512C1.98392 7.51029 1.7072 7.72744 1.7043 7.99658L1.64274 14.3634C1.63984 14.6354 1.91873 14.8571 2.26355 14.8571H5.98922ZM6.30942 6.36743L10.6602 0.803432C11.0326 0.305718 11.7099 0 12.443 0H12.7074C14.0114 0 14.9908 0.940006 14.738 1.94915L14.044 4.72116C14.0085 4.86116 14.0584 4.94173 14.1338 4.99944C14.2272 5.07144 14.412 5.14286 14.6822 5.14286H18.4368C19.761 5.14286 20.7441 6.11028 20.4572 7.12971L20.4543 7.13885L17.9898 14.7314C17.7747 15.4732 16.938 16 15.9724 16H2.26355C1.11463 16 0.185215 15.2617 0.193908 14.3548L0.255477 7.98744C0.26417 7.09087 1.18852 6.36743 2.32512 6.36743H6.30942Z" fill="#00B9C0"/>
</svg>
