<svg width="17" height="19" viewBox="0 0 17 19" fill="none" xmlns="http://www.w3.org/2000/svg">
<path d="M7.73007 9.81262C7.6172 9.81231 7.50649 9.78123 7.41 9.72266L0.300016 5.4826C0.207262 5.42907 0.130601 5.35174 0.0778478 5.25854C0.0250944 5.16535 -0.00175537 5.05971 8.90059e-05 4.95264C-0.00147121 4.84426 0.025331 4.73739 0.0779699 4.64264C0.130609 4.54789 0.207172 4.46859 0.300016 4.41266L7.41 0.172607C7.50792 0.118324 7.61811 0.0898438 7.73007 0.0898438C7.84203 0.0898438 7.9521 0.118324 8.05002 0.172607L15.16 4.41266C15.254 4.4681 15.3321 4.547 15.3864 4.64166C15.4408 4.73633 15.4696 4.84348 15.4701 4.95264C15.4699 5.0605 15.441 5.16636 15.3866 5.25946C15.3321 5.35257 15.2539 5.42956 15.16 5.4826L8.05002 9.72266C7.95418 9.78271 7.84316 9.81391 7.73007 9.81262ZM1.84005 4.95264L7.73007 8.45264L13.6201 4.95264L7.73007 1.44263L1.84005 4.95264Z" fill="#231F20"/>
<path d="M7.72985 13.5719C7.61698 13.5716 7.50627 13.5405 7.40978 13.4819L0.299794 9.25193C0.171443 9.1602 0.082197 9.02368 0.049672 8.8693C0.0171469 8.71493 0.0437064 8.55392 0.124135 8.41819C0.204563 8.28247 0.332968 8.18187 0.483998 8.13627C0.635028 8.09067 0.797707 8.10338 0.939809 8.17192L7.72985 12.1719L14.5298 8.17192C14.671 8.11153 14.8295 8.10484 14.9753 8.15306C15.1212 8.20127 15.2443 8.30109 15.3216 8.43376C15.399 8.56642 15.4253 8.72279 15.3955 8.87345C15.3657 9.02412 15.2819 9.15873 15.1598 9.25193L8.04979 13.4819C7.95396 13.542 7.84294 13.5732 7.72985 13.5719Z" fill="#231F20"/>
<path d="M7.72977 17.3454C7.6169 17.3451 7.50619 17.314 7.4097 17.2554L0.299717 13.0154C0.159335 12.9304 0.0584426 12.7932 0.0190772 12.6338C-0.0202882 12.4745 0.00512494 12.3061 0.0897559 12.1655C0.130061 12.0941 0.184309 12.0316 0.249302 11.9817C0.314294 11.9318 0.388717 11.8955 0.468052 11.8749C0.547386 11.8544 0.630046 11.8501 0.711094 11.8622C0.792142 11.8743 0.869871 11.9026 0.939731 11.9454L7.72977 15.9454L14.5297 11.9454C14.6716 11.8619 14.8409 11.8381 15.0003 11.8794C15.1597 11.9206 15.2963 12.0236 15.3798 12.1655C15.4633 12.3073 15.4871 12.4766 15.4458 12.636C15.4046 12.7954 15.3016 12.9319 15.1597 13.0154L8.04972 17.2554C7.95388 17.3155 7.84286 17.3467 7.72977 17.3454Z" fill="#231F20"/>
</svg>
