<svg width="60" height="40" viewBox="0 0 60 40" fill="none" xmlns="http://www.w3.org/2000/svg">
<rect x="0.883789" y="0.996094" width="58.6903" height="38.5909" rx="6" fill="white"/>
<path fill-rule="evenodd" clip-rule="evenodd" d="M17.8754 11.453C17.6348 11.4771 17.4349 11.5151 17.2207 11.5776C16.552 11.7725 15.8447 12.209 15.3978 12.7025C14.8819 13.2721 14.5348 13.9913 14.4416 14.6837C14.4216 14.8327 14.4169 15.1835 14.4336 15.2894L14.4425 15.346L14.6018 15.3493C15.3602 15.3649 16.2215 14.9833 16.8564 14.3502C17.3826 13.8255 17.7692 13.1171 17.9096 12.4199C17.9279 12.3294 17.9484 12.212 17.9553 12.159C17.9728 12.0246 17.9814 11.6753 17.9702 11.5533C17.9599 11.4413 17.9628 11.4443 17.8754 11.453ZM28.7046 12.6356C28.0357 12.6551 27.5539 12.6966 26.7346 12.805C26.4626 12.841 25.9642 12.9153 25.9403 12.9234C25.929 12.9272 25.9261 14.4589 25.9261 20.5309V28.1337H26.4784H27.0307V24.8523C27.0307 23.0476 27.0331 21.5685 27.0362 21.5655C27.0392 21.5625 27.1225 21.5745 27.2212 21.5921C27.4458 21.6324 27.8113 21.6747 28.101 21.694C28.396 21.7136 29.3078 21.7135 29.5643 21.6939C30.366 21.6325 31.1145 21.4678 31.7392 21.2152C31.9461 21.1316 32.2897 20.9565 32.483 20.8364C33.4559 20.2318 34.1509 19.2842 34.4132 18.2047C34.5717 17.552 34.6003 16.7469 34.4884 16.0819C34.3276 15.1258 33.8196 14.2474 33.1083 13.6955C32.4865 13.2131 31.6845 12.8899 30.7315 12.7377C30.3547 12.6776 30.0411 12.6505 29.5358 12.6345C29.1585 12.6226 29.1486 12.6226 28.7046 12.6356ZM29.8371 13.5682C31.002 13.672 31.9454 14.0523 32.5594 14.6658C33.1545 15.2603 33.4555 16.1252 33.4266 17.1575C33.3976 18.1979 33.1193 18.9602 32.5385 19.5899C32.4154 19.7235 32.1919 19.9109 32.0068 20.0359C31.1852 20.5909 30.0887 20.8393 28.6476 20.7969C27.9757 20.7772 27.486 20.7205 27.1104 20.6189L27.0364 20.5989V17.163V13.7271L27.0929 13.7132C27.25 13.6746 27.8565 13.597 28.1808 13.5738C28.6925 13.5373 29.4611 13.5347 29.8371 13.5682ZM17.4712 15.5333C16.9791 15.5631 16.5098 15.6869 15.6265 16.0199C14.8989 16.2942 14.7011 16.3404 14.4174 16.302C14.2136 16.2743 14.0085 16.2108 13.4971 16.0169C12.8599 15.7752 12.5575 15.683 12.2084 15.6242C11.8644 15.5662 11.585 15.5647 11.1798 15.6188C9.82868 15.799 8.6303 16.6315 7.95419 17.8594C7.60839 18.4875 7.40394 19.2111 7.32893 20.0728C7.3108 20.281 7.31097 20.9377 7.32921 21.1766C7.42755 22.4641 7.81018 23.7954 8.43558 25.0259C8.71684 25.5793 8.93993 25.9366 9.36157 26.509C9.70961 26.9815 9.92545 27.2385 10.2227 27.5345C10.4744 27.785 10.5743 27.8695 10.7857 28.0107C11.0281 28.1726 11.2862 28.2857 11.5369 28.3398C11.6353 28.3611 11.687 28.3647 11.8858 28.3645C12.3074 28.364 12.5459 28.3054 13.2169 28.0376C13.5796 27.8929 13.771 27.8266 13.964 27.7789C14.4204 27.6661 14.9581 27.6491 15.4158 27.733C15.7065 27.7863 15.8806 27.8427 16.3684 28.0412C16.8011 28.2174 16.9924 28.2773 17.2662 28.3225C17.423 28.3483 17.8561 28.3516 17.9893 28.328C18.2157 28.2878 18.3728 28.2371 18.5769 28.1385C18.9985 27.9346 19.3865 27.5912 19.8553 27.0072C20.0851 26.7209 20.4913 26.1517 20.6794 25.8524C21.0233 25.3054 21.3636 24.6024 21.5583 24.0367C21.6133 23.8769 21.6182 23.8542 21.5976 23.8542C21.5906 23.8542 21.5167 23.8216 21.4335 23.7818C21.0286 23.5882 20.6539 23.3228 20.3292 22.9997C19.664 22.3378 19.3148 21.5499 19.2654 20.5992C19.2123 19.5801 19.572 18.6542 20.318 17.8892C20.547 17.6543 20.7596 17.4776 21.021 17.3048L21.1547 17.2164L21.1132 17.1586C20.9611 16.9468 20.6925 16.6624 20.4725 16.4804C19.8132 15.9349 18.9562 15.6084 18.0178 15.545C17.745 15.5266 17.6244 15.5241 17.4712 15.5333ZM39.0668 16.9369C38.6032 16.9786 38.2952 17.0293 37.932 17.1236C37.4705 17.2435 37.0268 17.4293 36.6015 17.6807C36.4594 17.7647 36.3225 17.853 36.3225 17.8607C36.3225 17.8638 36.3871 18.0126 36.4661 18.1913C36.545 18.3699 36.6226 18.5453 36.6384 18.5812C36.6542 18.617 36.6718 18.6463 36.6776 18.6463C36.6833 18.6463 36.7172 18.6276 36.7529 18.6049C37.2528 18.2862 37.9274 18.026 38.5373 17.9167C39.1564 17.8057 39.8396 17.8124 40.3365 17.9343C40.802 18.0485 41.2285 18.3079 41.5413 18.6671C42.0054 19.1999 42.2181 19.924 42.2405 21.0476L42.2469 21.3714L41.713 21.3782C41.0985 21.3859 40.697 21.4091 40.1884 21.4661C38.4875 21.6567 37.2699 22.1397 36.4649 22.9431C35.9006 23.5062 35.593 24.1657 35.5129 24.9839C35.4942 25.1743 35.4976 25.5923 35.5191 25.7492C35.587 26.2448 35.7488 26.6917 35.9921 27.0549C36.2856 27.4932 36.6288 27.7892 37.1246 28.0318C37.5039 28.2174 37.8397 28.3129 38.2868 28.3621C38.4637 28.3815 39.0827 28.3817 39.2604 28.3623C39.8285 28.3003 40.372 28.1304 40.8537 27.8642C41.3522 27.5888 41.8675 27.1358 42.1893 26.6902C42.2353 26.6264 42.2717 26.587 42.2867 26.5848C42.3143 26.5807 42.3116 26.5666 42.3464 26.894C42.3589 27.0123 42.3817 27.2263 42.3971 27.3695C42.4125 27.5127 42.4367 27.7432 42.4511 27.8818L42.4771 28.1337H42.9924C43.3971 28.1337 43.5078 28.1306 43.5077 28.1195C43.5077 28.1118 43.4975 28.0468 43.4851 27.9752C43.4284 27.648 43.3922 27.2897 43.3696 26.8317C43.3609 26.6563 43.3535 25.5699 43.3479 23.6447C43.3432 22.0382 43.3363 20.7059 43.3326 20.6841C43.329 20.6623 43.3179 20.5604 43.308 20.4577C43.2207 19.5461 43.0209 18.9176 42.6367 18.3462C42.365 17.9421 42.0412 17.6467 41.572 17.3749C41.2004 17.1596 40.747 17.0212 40.2055 16.9576C40.0469 16.939 39.9215 16.9335 39.5906 16.9307C39.362 16.9288 39.1263 16.9316 39.0668 16.9369ZM44.339 17.1801C44.339 17.1832 44.4904 17.5641 44.6755 18.0264C45.746 20.7012 46.192 21.8155 46.4575 22.4791C46.5969 22.8275 46.8926 23.566 47.1146 24.1202C47.3366 24.6744 47.5556 25.2221 47.6014 25.3373C47.6471 25.4525 47.8572 25.9772 48.0682 26.5034C48.5244 27.6409 48.4994 27.5761 48.5241 27.6863C48.5513 27.8081 48.5416 27.8861 48.4741 28.087C48.2991 28.6079 47.9168 29.3406 47.5639 29.8312C47.0182 30.5899 46.4367 31.1948 45.882 31.5811C45.6051 31.7738 45.1419 32.0284 44.7063 32.2271C44.6608 32.2478 44.6237 32.2703 44.6237 32.277C44.6237 32.2869 44.9848 33.1498 44.9918 33.1565C44.9958 33.1603 45.1798 33.0831 45.3529 33.0049C45.6354 32.8773 45.895 32.748 46.0276 32.6687C46.6912 32.2719 47.3988 31.6317 47.8803 30.9924C48.1245 30.6681 48.526 30.0325 48.7851 29.5602C49.2998 28.6218 49.738 27.6281 50.5275 25.609C50.6262 25.3568 50.7442 25.0588 50.7898 24.9467C50.8355 24.8346 50.9804 24.478 51.112 24.1542C51.2436 23.8304 51.4921 23.219 51.6642 22.7956C51.8363 22.3722 52.1107 21.6971 52.2739 21.2955C52.4371 20.8939 52.7239 20.1882 52.9112 19.7275C53.0985 19.2667 53.4068 18.5076 53.5964 18.0406C53.7859 17.5735 53.9433 17.1876 53.9461 17.1829C53.9489 17.1781 53.686 17.1756 53.3618 17.1772L52.7725 17.1801L52.6798 17.4235C52.6288 17.5574 52.5071 17.8784 52.4094 18.1368C52.3117 18.3952 52.144 18.8384 52.0367 19.1218C51.9294 19.4051 51.6236 20.2126 51.3573 20.9162C51.0909 21.6199 50.814 22.3509 50.742 22.5409C50.67 22.7308 50.507 23.1613 50.3797 23.4975C50.2523 23.8338 50.1064 24.2184 50.0553 24.3523C49.8656 24.8494 49.7161 25.2708 49.485 25.96C49.2681 26.6065 49.2455 26.6675 49.2229 26.6675C49.2013 26.6675 49.1931 26.6515 49.1593 26.543C49.0801 26.2893 48.8203 25.5045 48.7321 25.2524C48.5504 24.7334 48.4013 24.3568 46.9725 20.8087C46.1739 18.8254 45.518 17.1964 45.515 17.1886C45.5107 17.1776 45.3819 17.1745 44.9242 17.1745C44.6024 17.1745 44.339 17.177 44.339 17.1801ZM42.1738 22.2651L42.2438 22.2724L42.2437 23.4906C42.2436 24.8531 42.2461 24.8024 42.1592 25.161C42.1124 25.3537 42.0678 25.4728 41.9676 25.6723C41.7321 26.141 41.3944 26.5419 40.9798 26.845C40.7045 27.0464 40.3166 27.231 39.9523 27.3342C39.4167 27.4859 38.7446 27.5139 38.3022 27.4029C37.885 27.2982 37.473 27.0641 37.1922 26.7721C36.9606 26.5312 36.8051 26.2137 36.7278 25.8241C36.689 25.6285 36.6755 25.4721 36.6755 25.2176C36.6755 24.9719 36.6881 24.8196 36.7226 24.6467C36.8333 24.0924 37.0683 23.7154 37.5523 23.3153C38.1744 22.8011 39.1133 22.4691 40.3023 22.343C40.8774 22.2821 41.9194 22.2387 42.1738 22.2651Z" fill="black"/>
</svg>
