<svg width="59" height="40" viewBox="0 0 59 40" fill="none" xmlns="http://www.w3.org/2000/svg">
<rect x="0.30957" y="0.996094" width="58.6903" height="38.5909" rx="6" fill="white"/>
<path d="M22.9114 9.06942V10.7091H19.6055V23.7798H22.9114V27.0593L29.5174 27.0547L36.1212 27.0466L36.1292 25.4115L36.1338 23.7798H39.4156V10.7091H36.1338V23.7798H22.9114V10.7091L29.5174 10.7045L36.1212 10.6965L36.1292 9.06137L36.1338 7.42969H22.9114V9.06942Z" fill="black"/>
<path d="M39.715 10.7252C39.7771 10.7344 39.7805 10.739 39.7805 10.8908C39.7805 10.9782 39.7897 11.0449 39.8047 11.0449C39.8185 11.0449 39.8288 10.9782 39.8288 10.8908C39.8288 10.739 39.8311 10.7344 39.8967 10.7252C39.9335 10.7194 39.8921 10.7148 39.8047 10.7148C39.7173 10.7148 39.6759 10.7194 39.715 10.7252Z" fill="black"/>
<path d="M40.0182 10.8777C40.0136 11.0008 40.0182 11.0456 40.0423 11.0456C40.0619 11.0456 40.0711 11.0031 40.0711 10.9065V10.7685L40.1205 10.8456C40.147 10.8892 40.178 10.926 40.193 10.926C40.2056 10.926 40.2367 10.8846 40.2631 10.8341L40.3126 10.7444L40.3149 10.8938C40.3149 10.9789 40.3241 11.0456 40.339 11.0456C40.3528 11.0456 40.3632 10.9743 40.3632 10.8777C40.3632 10.7283 40.3586 10.7087 40.3172 10.7087C40.2896 10.7087 40.2608 10.7375 40.2413 10.7812C40.224 10.8191 40.2056 10.8536 40.1953 10.8536C40.1861 10.8536 40.1585 10.8191 40.1366 10.7812C40.0642 10.6581 40.0274 10.6869 40.0182 10.8777Z" fill="black"/>
<path d="M20.8554 30.2758C20.6197 30.3206 20.5219 30.3528 20.323 30.4563C19.8757 30.6852 19.6055 31.1555 19.6055 31.712C19.6055 32.4261 20.0263 32.9516 20.7358 33.1286C20.9796 33.1861 21.5672 33.1884 21.8247 33.1286C22.5296 32.9642 22.9597 32.4284 22.9597 31.712C22.9597 31.006 22.5423 30.4805 21.842 30.3022C21.6258 30.2459 21.0808 30.2321 20.8554 30.2758ZM21.5258 30.8921C21.8466 30.9427 22.1099 31.144 22.1973 31.4061C22.2571 31.5844 22.2525 31.8764 22.1846 32.0547C22.0432 32.4169 21.6063 32.61 21.0888 32.5376C20.5898 32.4675 20.3253 32.1754 20.3276 31.6982C20.3299 31.4671 20.3862 31.3072 20.5196 31.1601C20.7358 30.922 21.098 30.8277 21.5258 30.8921Z" fill="black"/>
<path d="M23.4219 31.7147V33.1141H24.1268V30.9431H25.5365V33.1141H26.2414V30.3164H23.4219V31.7147Z" fill="black"/>
<path d="M27.1648 31.3651V32.4149H26.752V33.121L26.99 33.1072C27.1188 33.0991 27.2763 33.075 27.3395 33.0531C27.4982 32.9979 27.6799 32.8312 27.7512 32.6748C27.8087 32.5495 27.8087 32.5299 27.8167 31.7446L27.8236 30.9431H29.0609V33.1141H29.7658V30.3164H27.1648V31.3651Z" fill="black"/>
<path d="M31.2891 30.3934C31.2477 30.4854 30.6233 31.8883 30.3117 32.5828C30.1955 32.8415 30.0955 33.0681 30.0886 33.083C30.0794 33.1072 30.1587 33.1141 30.4382 33.1141H30.8004L30.92 32.8369L31.0395 32.5587L31.7778 32.5644L32.5148 32.5713L32.631 32.8369L32.7471 33.1014L33.1047 33.1095C33.2991 33.1118 33.46 33.1072 33.46 33.0968C33.46 33.0853 33.1829 32.4575 32.8449 31.7032L32.232 30.3291L31.7778 30.321L31.3213 30.3164L31.2891 30.3934ZM32.0181 31.4306L32.2423 31.9446L31.7904 31.9515C31.542 31.9538 31.3328 31.9515 31.3259 31.9469C31.3213 31.9389 31.3868 31.7687 31.4742 31.5652C31.7214 30.9937 31.7559 30.9189 31.7755 30.9189C31.7881 30.9189 31.8951 31.1512 32.0181 31.4306Z" fill="black"/>
<path d="M33.168 30.6303V30.9431H34.2857V33.1141H34.9905V30.9431H36.0852V30.3164H33.168V30.6303Z" fill="black"/>
<path d="M36.498 31.7147V33.1141L36.9764 33.1095L37.4536 33.1014L37.9492 32.3183C38.2217 31.886 38.5011 31.4479 38.5713 31.3409L38.6978 31.1489L38.7104 32.1252L38.7219 33.1014L39.0692 33.1095L39.4153 33.1164V30.3164H38.4793L37.8641 31.2927C37.5237 31.8308 37.2374 32.2701 37.2248 32.2701C37.2121 32.2701 37.2029 31.8699 37.2029 31.2927V30.3164H36.498V31.7147Z" fill="black"/>
<path d="M39.6582 30.3406C39.6582 30.3532 39.6847 30.3647 39.7191 30.3647C39.7766 30.3647 39.7801 30.3693 39.7801 30.5211C39.7801 30.6108 39.7893 30.6786 39.8042 30.6786C39.818 30.6786 39.8284 30.6108 39.8284 30.5211C39.8284 30.3693 39.8307 30.3647 39.8893 30.3647C39.9227 30.3647 39.9503 30.3532 39.9503 30.3406C39.9503 30.3256 39.8836 30.3164 39.8042 30.3164C39.7237 30.3164 39.6582 30.3256 39.6582 30.3406Z" fill="black"/>
<path d="M40.0225 30.4985C40.0225 30.6123 40.0317 30.6756 40.0466 30.6652C40.0616 30.6583 40.0708 30.5882 40.0731 30.5134V30.3766L40.1122 30.4536C40.134 30.4962 40.1662 30.533 40.1857 30.533C40.2018 30.533 40.234 30.4962 40.2582 30.4536L40.3019 30.3766L40.3088 30.5261C40.3191 30.7399 40.3628 30.7158 40.3628 30.4962C40.3628 30.3375 40.3582 30.3156 40.3191 30.3156C40.2927 30.3156 40.2582 30.3524 40.2317 30.4053L40.188 30.4962L40.142 30.4053C40.0639 30.2558 40.0225 30.2869 40.0225 30.4985Z" fill="black"/>
</svg>
