<svg width="60" height="40" viewBox="0 0 60 40" fill="none" xmlns="http://www.w3.org/2000/svg">
<rect x="0.97168" y="0.996094" width="58.6903" height="38.5909" rx="6" fill="white"/>
<g clip-path="url(#clip0_0_1)">
<path fill-rule="evenodd" clip-rule="evenodd" d="M7.40332 21.5066V27.9733H9.51045H11.6175L11.6312 24.1706L11.6449 20.3679H11.8002H11.9555L12.3531 21.6139C12.5717 22.2991 12.8058 23.035 12.8731 23.2492C12.9405 23.4633 13.3039 24.6135 13.6807 25.8052L14.3659 27.9718L15.8676 27.9725L17.3693 27.9733L17.5551 27.4153C17.8255 26.6034 18.0778 25.812 18.9865 22.9247L19.7994 20.342H19.9504H20.1014V24.1577V27.9733H22.2088H24.3162V21.5065V15.0398L22.0087 15.0571C19.7597 15.074 19.6924 15.0774 19.3544 15.1939C19.1637 15.2596 18.9234 15.3667 18.8206 15.4319C18.5341 15.6136 18.1596 16.0056 18.0001 16.2909C17.8859 16.495 17.3951 18.0109 17.1675 18.8624C17.1447 18.9481 16.9644 19.5555 16.7671 20.2122C16.5697 20.8689 16.3896 21.4763 16.3669 21.562C16.2218 22.1095 16.0339 22.6538 15.9783 22.6881C15.8663 22.7574 15.7348 22.7338 15.7054 22.6391C15.69 22.5891 15.5187 22.011 15.325 21.3543C15.1312 20.6976 14.8631 19.7982 14.7295 19.3556C14.5957 18.913 14.4683 18.4809 14.4464 18.3952C14.2885 17.7803 13.8827 16.5327 13.7709 16.3186C13.5987 15.9892 13.1735 15.563 12.8418 15.3873C12.265 15.0818 12.2665 15.082 9.73751 15.0601L7.40332 15.0399V21.5066ZM26.1633 15.1701C26.1458 15.238 26.1372 18.1406 26.1442 21.6205L26.1569 27.9474L27.9709 27.962C29.1173 27.9712 29.9156 27.9554 30.1399 27.9192C30.7921 27.8138 31.3896 27.4539 31.7258 26.9639C31.8763 26.7447 32.0823 26.3263 33.1204 24.1317C33.3027 23.7462 33.5366 23.2556 33.6401 23.0415C33.7437 22.8274 33.8939 22.512 33.974 22.3406C34.8526 20.4613 34.9174 20.342 35.0597 20.342C35.1307 20.342 35.2034 20.3789 35.2212 20.4241C35.239 20.4693 35.2536 22.1863 35.2536 24.2398V27.9733H37.3611H39.4685V21.5062V15.0391L37.4544 15.06C35.3861 15.0815 35.2932 15.0902 34.7955 15.3091C34.5271 15.4272 34.0732 15.8181 33.8718 16.1048C33.7891 16.2224 33.571 16.634 33.3871 17.0195C33.2032 17.4049 32.9477 17.9391 32.8193 18.2064C32.6909 18.4737 32.586 18.7001 32.586 18.7095C32.586 18.7188 32.469 18.9673 32.3261 19.2617C32.1831 19.5561 31.9166 20.1123 31.7338 20.4977C31.3637 21.2781 31.2322 21.5547 30.9063 22.2378C30.7121 22.6447 30.6644 22.7074 30.5408 22.7174L30.3985 22.7289V18.8878V15.0467H28.2968H26.1952L26.1633 15.1701ZM41.2292 24.5989V27.9733H43.336H45.4428L45.4568 26.0655L45.4708 24.1577L48.0851 24.126C49.5229 24.1087 50.7714 24.0771 50.8594 24.0559C52.6118 23.635 53.8133 22.7752 54.5077 21.4451L54.623 21.2245H47.926H41.2292V24.5989Z" fill="#016644"/>
<path d="M41.7862 17.5211C41.6387 17.1986 41.0119 15.7292 41.0119 15.0382C40.8154 14.9883 50.1304 15.0488 50.5924 15.0994C51.4651 15.1952 52.0164 15.3803 52.7266 15.8162C53.4214 16.2426 54.2267 17.1844 54.5048 17.8958C54.7607 18.5503 54.8999 19.5774 54.8109 20.1545L54.7734 20.3981L50.3621 20.3793L45.9507 20.3606L45.4705 20.2248C45.2065 20.1501 44.8404 20.0307 44.6571 19.9595C44.291 19.8171 43.4263 19.4442 42.8186 18.8831C42.3259 18.428 41.9337 17.8437 41.7862 17.5211Z" fill="url(#paint0_linear_0_1)"/>
</g>
<defs>
<linearGradient id="paint0_linear_0_1" x1="54.8387" y1="19.2844" x2="41.6618" y2="16.8987" gradientUnits="userSpaceOnUse">
<stop stop-color="#2D4093"/>
<stop offset="1" stop-color="#50A8DE"/>
</linearGradient>
<clipPath id="clip0_0_1">
<rect width="47.4347" height="23.3153" fill="white" transform="translate(7.40332 9.83984)"/>
</clipPath>
</defs>
</svg>
