<svg width="59" height="40" viewBox="0 0 59 40" fill="none" xmlns="http://www.w3.org/2000/svg">
<rect x="0.22168" y="0.996094" width="58.6903" height="38.5909" rx="6" fill="white"/>
<path d="M7.14829 19.9107L6.56546 22.0764L4.43523 22.1213C3.7986 20.9459 3.4375 19.6012 3.4375 18.1722C3.4375 16.7904 3.77512 15.4873 4.37358 14.3398H4.37404L6.27054 14.6859L7.10132 16.5623C6.92744 17.0669 6.83267 17.6086 6.83267 18.1722C6.83274 18.7839 6.94406 19.37 7.14829 19.9107Z" fill="#FBBB00"/>
<path d="M20.0347 16.6172C20.1309 17.1213 20.181 17.6419 20.181 18.1739C20.181 18.7705 20.118 19.3525 19.998 19.9138C19.5904 21.8241 18.5255 23.4921 17.0503 24.6725L17.0499 24.672L14.6611 24.5507L14.323 22.45C15.3019 21.8786 16.0669 20.9843 16.4698 19.9138H11.9932V16.6172H16.5352H20.0347Z" fill="#518EF8"/>
<path d="M17.0504 24.6697L17.0509 24.6701C15.6162 25.818 13.7937 26.5048 11.8097 26.5048C8.6215 26.5048 5.84958 24.731 4.43555 22.1207L7.1486 19.9102C7.8556 21.7883 9.67581 23.1253 11.8097 23.1253C12.7269 23.1253 13.5862 22.8785 14.3236 22.4476L17.0504 24.6697Z" fill="#28B446"/>
<path d="M17.1526 11.7583L14.4405 13.9684C13.6774 13.4936 12.7753 13.2193 11.8089 13.2193C9.62665 13.2193 7.7724 14.6177 7.10082 16.5632L4.3735 14.3407H4.37305C5.76638 11.6667 8.57326 9.83984 11.8089 9.83984C13.8402 9.83984 15.7027 10.5601 17.1526 11.7583Z" fill="#F14336"/>
<path fill-rule="evenodd" clip-rule="evenodd" d="M24.7715 17.8716V25.9033H25.7907H26.8099V22.6411V19.3788H28.9327C31.1743 19.3788 31.6543 19.323 32.4593 18.9689C33.8017 18.3782 34.9423 17.0253 35.2205 15.6934C35.4308 14.6876 35.2878 13.4747 34.8581 12.619C34.309 11.525 33.1544 10.5564 31.9129 10.148C31.2004 9.91355 31.1819 9.91232 27.9842 9.87608L24.7715 9.83984V17.8716ZM31.5515 12.1356C32.7425 12.6981 33.4029 13.921 33.1759 15.1438C33.0582 15.7776 32.8466 16.1683 32.3787 16.6161C31.595 17.3657 31.487 17.3914 29.0035 17.4213L26.8099 17.4477V14.666V11.8843L28.9148 11.8844L31.0198 11.8845L31.5515 12.1356ZM38.7304 14.7496C37.8172 14.9372 36.9268 15.4207 36.2444 16.0996C35.9266 16.4159 35.6978 16.7055 35.7361 16.7431C35.7744 16.7808 36.1829 17.0472 36.6438 17.3351L37.482 17.8584L37.8537 17.4471C38.6183 16.6011 39.876 16.2198 40.9738 16.5013C41.848 16.7254 42.6804 17.3897 42.9796 18.1022C43.1325 18.4663 43.2019 19.4314 43.0732 19.4039C43.0244 19.3935 42.6854 19.2783 42.3198 19.1479C41.7658 18.9504 41.4616 18.904 40.4927 18.8692C39.0488 18.8175 38.3303 18.9347 37.401 19.3734C36.5348 19.7822 36.0079 20.2845 35.638 21.054C35.3865 21.5771 35.3625 21.704 35.3625 22.5088C35.3625 23.3184 35.3857 23.4394 35.647 23.988C36.8844 26.5868 40.8103 27.0547 42.6973 24.8283C42.8949 24.5952 43.0903 24.4045 43.1314 24.4045C43.1724 24.4045 43.2061 24.7417 43.2061 25.1539V25.9033H44.189H45.1719L45.1339 22.09C45.1015 18.8498 45.0732 18.1982 44.9457 17.7542C44.5336 16.3199 43.49 15.2996 41.9653 14.8402C41.2838 14.6349 39.528 14.5857 38.7304 14.7496ZM45.5104 14.9993C45.5104 15.0182 45.653 15.3467 45.8274 15.7293C46.2391 16.6335 46.1324 16.3947 47.9903 20.5691C48.8752 22.5573 49.6962 24.3899 49.8148 24.6415C49.9334 24.8931 50.0305 25.1429 50.0305 25.1966C50.0305 25.2504 49.8864 25.6 49.7103 25.9735C49.5343 26.3471 48.9916 27.5058 48.5044 28.5484C48.0171 29.5911 47.5808 30.5148 47.5348 30.6011C47.4563 30.7484 47.5191 30.7567 48.5342 30.7334L49.6175 30.7086L50.1838 29.4301C50.4953 28.727 50.9843 27.616 51.2703 26.9614C51.5564 26.3067 52.1166 25.0371 52.5151 24.1399C52.9137 23.2428 53.3492 22.2509 53.483 21.9357C53.6169 21.6205 53.8072 21.1841 53.9059 20.9658C54.8012 18.9876 56.5003 15.0822 56.5003 15.0022C56.5003 14.9846 56.0066 14.9703 55.4032 14.9703H54.3061L54.1934 15.2568C54.1315 15.4144 54.0296 15.6624 53.9672 15.8079C53.8462 16.0897 52.9158 18.3749 51.8314 21.054C51.4683 21.9511 51.1395 22.7172 51.1009 22.7563C51.0624 22.7954 50.5804 21.7439 50.0298 20.4198C49.4793 19.0956 48.9563 17.8534 48.8675 17.6595C48.7788 17.4655 48.4921 16.791 48.2306 16.1606L47.755 15.0144L46.6327 14.9897C46.0154 14.9761 45.5104 14.9804 45.5104 14.9993ZM42.1869 20.7043C42.4794 20.8134 42.8257 20.9772 42.9565 21.0683C43.1633 21.2124 43.1877 21.277 43.1434 21.5628C42.9676 22.697 42.133 23.7369 41.0534 24.1668C39.1358 24.9306 37.2063 23.8685 37.4888 22.2047C37.6017 21.5398 38.5113 20.766 39.4612 20.5267C40.0436 20.3799 41.5867 20.4805 42.1869 20.7043Z" fill="black"/>
</svg>
