<svg width="147" height="40" viewBox="0 0 147 40" fill="none" xmlns="http://www.w3.org/2000/svg">
<rect y="0.996094" width="146.324" height="38.5909" rx="6" fill="white"/>
<path fill-rule="evenodd" clip-rule="evenodd" d="M16.235 14.0557C17.2869 14.055 18.3237 14.3221 19.2584 14.8343C20.1931 15.3466 20.9987 16.0892 21.6077 17L24 13.4603C22.7722 12.4633 21.2727 12 19.482 12C16.8441 12 13.8286 13.2974 12 15.6883C13.1861 14.6308 14.6862 14.0525 16.235 14.0557Z" fill="#0068B4"/>
<path fill-rule="evenodd" clip-rule="evenodd" d="M16.5 27C17.5878 27 18.6512 26.6481 19.5556 25.9888C20.4601 25.3295 21.1651 24.3924 21.5814 23.2961C21.9976 22.1997 22.1066 20.9933 21.8943 19.8295C21.6821 18.6656 21.1582 17.5964 20.3891 16.7574C19.6199 15.9182 18.6399 15.3468 17.573 15.1153C16.5061 14.8838 15.4002 15.0026 14.3953 15.4568C13.3903 15.9109 12.5313 16.6799 11.927 17.6666C11.3226 18.6532 11 19.8133 11 21C11 22.5913 11.5795 24.1174 12.6109 25.2426C13.6424 26.3678 15.0413 27 16.5 27Z" fill="#1A1A18"/>
<path fill-rule="evenodd" clip-rule="evenodd" d="M16.6631 15.1384C16.7661 15.3332 16.9714 15.5773 17.2542 15.4553C17.7686 15.3332 18.3725 15.4188 18.8614 15.5773C18.921 15.6145 18.965 15.67 18.9862 15.7346C19.0073 15.7991 19.0041 15.8687 18.9772 15.9313C18.6169 16.4892 17.4818 17.1199 17.4379 17.1631C17.3787 17.2242 17.3309 17.2944 17.2965 17.3708C17.2622 17.4466 16.8332 18.9938 16.8332 18.9938C17.1314 19.9285 17.0625 20.9342 16.639 21.8243C16.2396 22.5823 16.7933 23.3737 16.5233 24.1916C16.3171 24.7034 16.3427 25.3992 16.7677 25.8017C16.7933 25.8775 16.7933 26.0216 16.6647 25.9973C16.3691 25.948 16.1502 25.6941 15.9185 25.5333C15.6358 25.1793 15.9058 24.7405 15.7772 24.3372C15.7899 24.0203 15.5974 23.7762 15.4305 23.5321C15.3147 23.0561 14.8905 22.5467 14.3504 22.4588C13.9 22.2511 13.312 22.2026 13.0004 21.7766C12.9877 21.4233 13.2576 21.1792 13.4374 20.8987C13.9518 20.2635 14.71 19.8375 15.1948 19.178L15.2227 18.9908C15.2227 18.9908 14.9743 17.6263 14.9032 17.3435C14.8322 17.0608 14.0805 16.7371 13.6947 16.3793C13.566 16.2694 13.3471 16.1352 13.4502 15.9525C13.5788 15.757 13.836 15.757 14.0413 15.6599C14.4527 15.55 14.9288 15.5841 15.3657 15.55C15.5846 15.3544 15.6485 14.9762 16.0343 15.0012C16.2253 15.0285 16.5089 14.967 16.6631 15.1384Z" fill="white"/>
<path fill-rule="evenodd" clip-rule="evenodd" d="M18 16.1809C18 16.242 17.7519 16.5024 17.5017 16.7379C17.3973 16.8363 17.2867 16.9124 17.197 16.9872C17.1296 17.007 17.0177 17.0183 17.0015 16.9073C16.9853 16.7965 17.0992 16.105 17.3386 16.0053C17.6575 15.9729 17.9973 16.0963 18 16.1809Z" fill="#1A1A18"/>
<path fill-rule="evenodd" clip-rule="evenodd" d="M15.7148 16.0632C15.7952 16.1789 15.8662 16.3205 15.925 16.4825C15.956 16.5742 16.0278 16.9139 15.9885 16.9752C15.9109 17.0992 15.3456 16.7288 15.0481 16.5069C15.0196 16.4475 15.0025 16.3687 15 16.2851C15.0074 15.8948 15.6549 15.9973 15.7148 16.0632Z" fill="#1A1A18"/>
<path fill-rule="evenodd" clip-rule="evenodd" d="M15.7817 21.1404C15.7518 21.7092 15.7968 22.2898 15.9929 22.8109C16.0239 22.8934 15.9478 22.9529 15.8728 23C15.4196 22.8462 15.2385 22.479 14.9064 22.2185C14.6343 22.0765 14.3322 22.005 14.045 21.9101C14 21.8866 14 21.8365 14 21.7917C14.5432 21.5429 15.1175 21.3501 15.6158 21.0101C15.7518 20.963 15.7518 21.0932 15.7817 21.1404Z" fill="#1A1A18"/>
<path fill-rule="evenodd" clip-rule="evenodd" d="M15.7644 27.3581C14.7125 27.3585 13.6758 27.1445 12.7412 26.7343C11.8065 26.324 11.0013 25.7293 10.3928 25L8 27.8346C9.22841 28.6292 10.7272 29 12.5184 29C15.1554 29 18.1707 27.9617 20 26.0491C18.814 26.8963 17.3138 27.3599 15.7644 27.3581Z" fill="#0068B4"/>
<path d="M29.9817 19H29L31.493 15H32.4618L35 19H33.8827L33.353 18.153H30.4919L29.9817 19ZM30.9246 17.4235H32.9268L31.9257 15.8235L30.9246 17.4235Z" fill="#1A1A18"/>
<path d="M37 15H38.1273L40.4809 17.353L42.8346 15H44V19H42.8041V16.2235L40.5115 18.5177H40.283L38.0663 16.2706V19H37V15Z" fill="#1A1A18"/>
<path d="M45 15H48.9719V15.6824H45.8845V16.5941H47.693V17.3118H45.8845V18.2765H49V19H45V15Z" fill="#1A1A18"/>
<path d="M51 15H51.8053L53.4864 17.353L55.1676 15H56V19H55.1458V16.2235L53.5081 18.5177H53.3449L51.7617 16.2706V19H51V15Z" fill="#1A1A18"/>
<path d="M61.4417 18.3177C61.5542 18.3177 61.6399 18.3019 61.6988 18.2706C61.7577 18.2353 61.7871 18.1667 61.7871 18.0648V17.553C61.7871 17.4471 61.7577 17.3785 61.6988 17.3471C61.6399 17.3118 61.5542 17.2941 61.4417 17.2941H58.2209V18.3177H61.4417ZM61.7469 15.8529C61.7469 15.7863 61.7149 15.7373 61.6506 15.7059C61.5917 15.6745 61.4926 15.6588 61.3534 15.6588H58.2209V16.6294H61.3534C61.4926 16.6294 61.5917 16.6176 61.6506 16.5941C61.7149 16.5667 61.7469 16.5138 61.7469 16.4353V15.8529ZM62.1727 16.9588C62.2583 16.9784 62.3494 17 62.4458 17.0235C62.5422 17.0471 62.6306 17.0843 62.7108 17.1353C62.7966 17.1824 62.8662 17.251 62.9197 17.3412C62.9733 17.4274 63 17.5471 63 17.7V18.2353C63 18.502 62.8768 18.6961 62.6306 18.8177C62.3842 18.9393 62.0334 19 61.5784 19H57V15H61.5784C61.8086 15 62.0094 15.0118 62.1807 15.0353C62.3574 15.0588 62.502 15.1019 62.6144 15.1647C62.7269 15.2235 62.8099 15.3039 62.8635 15.4059C62.9224 15.5039 62.9518 15.6294 62.9518 15.7824V16.3353C62.9518 16.4373 62.9251 16.5236 62.8715 16.5941C62.8233 16.6647 62.7617 16.7255 62.6868 16.7765C62.6117 16.8235 62.5288 16.8608 62.4377 16.8883C62.3467 16.9157 62.2583 16.9353 62.1727 16.947V16.9588Z" fill="#1A1A18"/>
<path d="M64 15H67.9719V15.6824H64.8845V16.5941H66.693V17.3118H64.8845V18.2765H68V19H64V15Z" fill="#1A1A18"/>
<path d="M72.1146 17.5235L74 19H72.6561L70.9044 17.5235H69.9999V19H69V15H72.6879C73.0106 15 73.2569 15.0588 73.4268 15.1765C73.6009 15.2902 73.6879 15.4981 73.6879 15.8V16.7588C73.6879 16.9118 73.6603 17.0392 73.6051 17.1412C73.5542 17.2392 73.482 17.3176 73.3885 17.3765C73.2951 17.4314 73.1868 17.4706 73.0637 17.4941C72.9448 17.5137 72.8196 17.5235 72.6879 17.5235H72.1146ZM72.3503 16.8059C72.4225 16.8059 72.4841 16.8039 72.535 16.8C72.5859 16.7961 72.6263 16.7863 72.6561 16.7706C72.69 16.751 72.7134 16.7216 72.7262 16.6824C72.7389 16.6392 72.7452 16.5824 72.7452 16.5117V16C72.7452 15.9255 72.7389 15.8666 72.7262 15.8235C72.7134 15.7804 72.6922 15.7491 72.6624 15.7294C72.6327 15.7059 72.5924 15.6921 72.5414 15.6882C72.4904 15.6843 72.4267 15.6824 72.3503 15.6824H69.9999V16.8059H72.3503Z" fill="#1A1A18"/>
<path d="M78.968 19C78.6275 19 78.3801 18.9333 78.2256 18.8C78.0752 18.6628 78 18.4294 78 18.1V15.8C78 15.6314 78.0258 15.496 78.0772 15.3941C78.1326 15.2882 78.2039 15.2059 78.291 15.147C78.382 15.0882 78.4849 15.049 78.5998 15.0294C78.7186 15.0098 78.8413 15 78.968 15H82.0437C82.2381 15 82.3962 15.0196 82.5195 15.0588C82.642 15.0941 82.7392 15.147 82.8103 15.2177C82.8815 15.2843 82.9312 15.3667 82.9589 15.4647C82.9866 15.5628 83 15.6745 83 15.8V18.1C83 18.2647 82.9826 18.404 82.9471 18.5177C82.9146 18.6314 82.8617 18.7255 82.7866 18.8C82.7155 18.8707 82.6183 18.9216 82.495 18.953C82.3725 18.9843 82.2223 19 82.0437 19H78.968ZM82.0674 18.2647V15.7118H78.9324V18.2647H82.0674Z" fill="#1A1A18"/>
<path d="M84 15H88V15.6824H84.9077V16.7941H86.5723V17.5118H84.9077V19H84V15Z" fill="#1A1A18"/>
<path d="M93.6226 19H92.4232V15.6824H90V15H96V15.6824H93.6226V19Z" fill="#1A1A18"/>
<path d="M97 15H97.9602V16.5824H101.039V15H102V19H101.039V17.3118H97.9602V19H97V15Z" fill="#1A1A18"/>
<path d="M103 15H106.972V15.6824H103.884V16.5941H105.693V17.3118H103.884V18.2765H107V19H103V15Z" fill="#1A1A18"/>
<path d="M30 23H30.9609V24.5824H34.0392V23H35V27H34.0392V25.3117H30.9609V27H30V23Z" fill="#1A1A18"/>
<path d="M36 23H37V27H36V23Z" fill="#1A1A18"/>
<path d="M38 23H39.3956V26.2647H44V27H38V23Z" fill="#1A1A18"/>
<path d="M45 23H47.6995C48.1455 23 48.5153 23.0588 48.8087 23.1765C49.106 23.2902 49.3427 23.4392 49.5187 23.6235C49.6948 23.8078 49.818 24.0176 49.8885 24.2529C49.9628 24.4843 50 24.7196 50 24.9588C50 25.3157 49.9413 25.6235 49.824 25.8824C49.7105 26.1372 49.552 26.349 49.3485 26.5177C49.1452 26.6824 48.9026 26.8039 48.6209 26.8823C48.3392 26.9608 48.032 27 47.6995 27H45V23ZM47.4413 26.2647C47.5822 26.2647 47.7425 26.2569 47.9225 26.2411C48.1025 26.2255 48.2707 26.1765 48.4272 26.0941C48.5876 26.0117 48.7207 25.8863 48.8263 25.7177C48.9358 25.5451 48.9906 25.3039 48.9906 24.9941C48.9906 24.5666 48.8888 24.2471 48.6854 24.0352C48.4859 23.8196 48.1572 23.7118 47.6995 23.7118H45.9213V26.2647H47.4413Z" fill="#1A1A18"/>
<path d="M51 23H52V27H51V23Z" fill="#1A1A18"/>
<path d="M53 23H53.6646L57.1304 25.7353V23H58V27H57.3354L53.8696 24.2529V27H53V23Z" fill="#1A1A18"/>
<path d="M65 26.2118C65 26.3882 64.9657 26.5294 64.8973 26.6353C64.8289 26.7412 64.7359 26.8216 64.6186 26.8765C64.5012 26.9274 64.3643 26.9608 64.2078 26.9765C64.0513 26.9921 63.8851 27 63.709 27H60.0415C59.8312 27 59.6577 26.9765 59.5207 26.9294C59.3887 26.8823 59.2836 26.8176 59.2053 26.7353C59.1271 26.6529 59.0733 26.5568 59.0439 26.447C59.0146 26.3372 59 26.2216 59 26.1V23.8235C59 23.6627 59.0244 23.5294 59.0733 23.4235C59.1271 23.3176 59.2053 23.2333 59.308 23.1705C59.4156 23.1078 59.5476 23.0647 59.7041 23.0411C59.8606 23.0137 60.0415 23 60.2469 23H63.8778C64.088 23 64.2616 23.0157 64.3985 23.047C64.5403 23.0784 64.6528 23.1235 64.7359 23.1823C64.8239 23.2372 64.8851 23.3039 64.9193 23.3824C64.9535 23.4608 64.9706 23.5451 64.9706 23.6353V24.0176L63.8704 24.1647V23.6823H60.1515V26.2941H63.8704V25.3882H61.912V24.7059H65V26.2118Z" fill="#1A1A18"/>
<path d="M67.9817 27H67L69.493 23H70.4618L73 27H71.8827L71.3531 26.1529H68.4919L67.9817 27ZM68.9246 25.4235H70.9268L69.9257 23.8235L68.9246 25.4235Z" fill="#1A1A18"/>
<path d="M74 23H74.7975L78.9565 25.7353V23H80V27H79.2025L75.0435 24.2529V27H74V23Z" fill="#1A1A18"/>
<path d="M81 23H83.6999C84.1459 23 84.5153 23.0588 84.809 23.1765C85.1065 23.2902 85.3432 23.4392 85.5189 23.6235C85.6946 23.8078 85.818 24.0176 85.8883 24.2529C85.9633 24.4843 86 24.7196 86 24.9588C86 25.3157 85.9414 25.6235 85.8243 25.8824C85.711 26.1372 85.5525 26.349 85.3486 26.5177C85.1456 26.6824 84.9027 26.8039 84.6207 26.8823C84.3396 26.9608 84.0326 27 83.6999 27H81V23ZM83.4414 26.2647C83.5828 26.2647 83.7429 26.2569 83.9225 26.2411C84.1029 26.2255 84.2709 26.1765 84.4278 26.0941C84.5879 26.0117 84.7207 25.8863 84.8261 25.7177C84.9363 25.5451 84.9909 25.3039 84.9909 24.9941C84.9909 24.5666 84.8894 24.2471 84.6856 24.0352C84.4864 23.8196 84.1576 23.7118 83.6999 23.7118H81.9216V26.2647H83.4414Z" fill="#1A1A18"/>
<path d="M87 23H90.9715V23.6823H87.8847V24.5941H89.6932V25.3117H87.8847V26.2765H91V27H87V23Z" fill="#1A1A18"/>
<path d="M95.7379 25.5235L98 27H96.3868L94.2855 25.5235H93.2002V27H92V23H96.4255C96.813 23 97.108 23.0588 97.3124 23.1765C97.5209 23.2902 97.6257 23.498 97.6257 23.8V24.7588C97.6257 24.9118 97.5921 25.0392 97.526 25.1412C97.465 25.2392 97.3785 25.3176 97.2667 25.3764C97.1538 25.4313 97.0246 25.4706 96.8761 25.4941C96.7337 25.5137 96.5831 25.5235 96.4255 25.5235H95.7379ZM96.0207 24.8059C96.1071 24.8059 96.1814 24.8039 96.2424 24.7999C96.3034 24.7961 96.3512 24.7862 96.3868 24.7706C96.4285 24.751 96.456 24.7215 96.4713 24.6824C96.4865 24.6392 96.4947 24.5824 96.4947 24.5117V24C96.4947 23.9254 96.4865 23.8666 96.4713 23.8235C96.456 23.7804 96.4306 23.749 96.395 23.7294C96.3594 23.7058 96.3106 23.6921 96.2495 23.6882C96.1885 23.6843 96.1122 23.6823 96.0207 23.6823H93.2002V24.8059H96.0207Z" fill="#1A1A18"/>
<path d="M100.027 25.3117C99.4589 25.3117 99.1754 25.0509 99.1754 24.5294V23.7588C99.1754 23.602 99.2039 23.4745 99.2601 23.3764C99.3163 23.2784 99.3923 23.2019 99.4874 23.147C99.5868 23.0882 99.7034 23.049 99.8382 23.0294C99.9765 23.0097 100.123 23 100.28 23H102.871C103.035 23 103.184 23.0118 103.318 23.0353C103.452 23.0549 103.565 23.0941 103.656 23.1529C103.751 23.2117 103.825 23.2961 103.876 23.4059C103.928 23.5117 103.955 23.6509 103.955 23.8235C103.955 23.8431 103.952 23.8627 103.948 23.8823C103.948 23.9019 103.948 23.9176 103.948 23.9294V23.9705L103.098 24.1117V23.6823H100.097V24.5941H103.091C103.39 24.5941 103.615 24.649 103.767 24.7588C103.922 24.8686 104 25.0667 104 25.3529V26.2235C104 26.3921 103.97 26.5275 103.909 26.6294C103.853 26.7313 103.771 26.8098 103.662 26.8647C103.558 26.9196 103.431 26.9569 103.279 26.9765C103.132 26.9921 102.967 27 102.786 27H99.8642C99.5608 27 99.3405 26.9274 99.2013 26.7823C99.0674 26.6373 99 26.4255 99 26.1471C99 26.1274 99 26.1039 99 26.0764C99.0043 26.049 99.0086 26.0236 99.013 26C99.0173 25.9725 99.0225 25.9451 99.0268 25.9177L99.8443 25.7941V26.2941H103.078V25.3117H100.027Z" fill="#1A1A18"/>
<path d="M113 26.2118C113 26.3882 112.966 26.5294 112.897 26.6353C112.829 26.7412 112.736 26.8216 112.619 26.8765C112.501 26.9274 112.364 26.9608 112.208 26.9765C112.052 26.9921 111.885 27 111.709 27H108.042C107.832 27 107.658 26.9765 107.521 26.9294C107.389 26.8823 107.284 26.8176 107.205 26.7353C107.127 26.6529 107.073 26.5568 107.044 26.447C107.015 26.3372 107 26.2216 107 26.1V23.8235C107 23.6627 107.024 23.5294 107.073 23.4235C107.127 23.3176 107.205 23.2333 107.308 23.1705C107.416 23.1078 107.548 23.0647 107.704 23.0411C107.861 23.0137 108.042 23 108.247 23H111.878C112.088 23 112.262 23.0157 112.399 23.047C112.541 23.0784 112.653 23.1235 112.736 23.1823C112.824 23.2372 112.886 23.3039 112.92 23.3824C112.954 23.4608 112.971 23.5451 112.971 23.6353V24.0176L111.87 24.1647V23.6823H108.152V26.2941H111.87V25.3882H109.912V24.7059H113V26.2118Z" fill="#1A1A18"/>
<path d="M117.115 25.5235L119 27H117.656L115.905 25.5235H115V27H114V23H117.688C118.011 23 118.257 23.0588 118.426 23.1765C118.601 23.2902 118.687 23.498 118.687 23.8V24.7588C118.687 24.9118 118.66 25.0392 118.605 25.1412C118.554 25.2392 118.482 25.3176 118.388 25.3764C118.295 25.4313 118.186 25.4706 118.063 25.4941C117.945 25.5137 117.819 25.5235 117.688 25.5235H117.115ZM117.351 24.8059C117.423 24.8059 117.484 24.8039 117.534 24.7999C117.586 24.7961 117.626 24.7862 117.656 24.7706C117.69 24.751 117.713 24.7215 117.726 24.6824C117.739 24.6392 117.745 24.5824 117.745 24.5117V24C117.745 23.9254 117.739 23.8666 117.726 23.8235C117.713 23.7804 117.692 23.749 117.662 23.7294C117.633 23.7058 117.592 23.6921 117.541 23.6882C117.49 23.6843 117.427 23.6823 117.351 23.6823H115V24.8059H117.351Z" fill="#1A1A18"/>
<path d="M119.968 27C119.627 27 119.38 26.9333 119.225 26.8C119.075 26.6627 119 26.4294 119 26.1V23.8C119 23.6313 119.025 23.496 119.077 23.3941C119.133 23.2882 119.204 23.2058 119.291 23.147C119.382 23.0882 119.484 23.049 119.6 23.0294C119.718 23.0097 119.841 23 119.968 23H123.044C123.237 23 123.396 23.0195 123.519 23.0588C123.641 23.0941 123.738 23.147 123.81 23.2177C123.881 23.2843 123.93 23.3666 123.958 23.4647C123.986 23.5627 124 23.6745 124 23.8V26.1C124 26.2647 123.982 26.4039 123.946 26.5177C123.915 26.6313 123.861 26.7255 123.786 26.8C123.715 26.8706 123.618 26.9216 123.495 26.953C123.373 26.9843 123.222 27 123.044 27H119.968ZM123.067 26.2647V23.7118H119.933V26.2647H123.067Z" fill="#1A1A18"/>
<path d="M127.016 23V26.2647H129.984V23H131V26.0764C131 26.4137 130.907 26.6529 130.722 26.7941C130.536 26.9314 130.284 27 129.964 27H126.972C126.647 27 126.403 26.9314 126.24 26.7941C126.079 26.6529 126 26.4137 126 26.0764V23H127.016Z" fill="#1A1A18"/>
<path d="M133 23H136.146C136.422 23 136.633 23.0588 136.777 23.1765C136.925 23.2902 137 23.498 137 23.8V24.7588C137 24.9118 136.976 25.0392 136.929 25.1412C136.886 25.2392 136.824 25.3176 136.745 25.3764C136.665 25.4313 136.573 25.4706 136.468 25.4941C136.366 25.5137 136.259 25.5235 136.146 25.5235H133.853V27H133V23ZM135.864 24.8059C135.926 24.8059 135.978 24.8039 136.021 24.7999C136.065 24.7961 136.099 24.7862 136.125 24.7706C136.15 24.751 136.168 24.7215 136.179 24.6824C136.19 24.6392 136.196 24.5824 136.196 24.5117V24C136.196 23.9254 136.19 23.8666 136.179 23.8235C136.168 23.7804 136.15 23.749 136.125 23.7294C136.103 23.7098 136.071 23.698 136.027 23.6941C135.984 23.6862 135.929 23.6823 135.864 23.6823H133.853V24.8059H135.864Z" fill="#1A1A18"/>
</svg>
