<svg width="59" height="40" viewBox="0 0 59 40" fill="none" xmlns="http://www.w3.org/2000/svg">
<rect x="0.133789" y="0.996094" width="58.6903" height="38.5909" rx="6" fill="white"/>
<path fill-rule="evenodd" clip-rule="evenodd" d="M45.9132 30.9971V31.7951L45.7861 31.6742C45.5926 31.4903 45.3743 31.3948 45.0807 31.3657C44.6524 31.3233 44.2059 31.4868 43.8883 31.8024C43.5933 32.0956 43.4433 32.4774 43.4399 32.9436C43.4375 33.2739 43.476 33.4455 43.618 33.7366C43.8582 34.2294 44.391 34.5557 44.9553 34.5557C45.3 34.5557 45.6337 34.4291 45.8174 34.2287L45.9132 34.1243V34.3043V34.4843H46.2484H46.5836V32.3418V30.1992H46.2484H45.9132V30.9971ZM26.1981 30.5042C26.1893 30.513 26.1821 30.7242 26.1821 30.9736V31.427H25.8828H25.5834V31.7279V32.0288H25.8828H26.1821L26.1823 32.733C26.1825 33.5011 26.2046 33.7884 26.2789 33.988C26.4242 34.3785 26.7105 34.5446 27.2357 34.5432C27.5279 34.5424 27.6759 34.5112 27.9337 34.3959L28.069 34.3354L27.9761 34.0572C27.9249 33.9042 27.8794 33.7753 27.8748 33.7707C27.8703 33.7662 27.8234 33.7834 27.7706 33.8091C27.5302 33.9258 27.1695 33.9412 27.029 33.8407C26.8713 33.7277 26.8653 33.6922 26.8573 32.8172L26.8501 32.0288H27.3901H27.9301V31.7279V31.427H27.3913H26.8526V30.9575V30.4881H26.5333C26.3577 30.4881 26.2068 30.4953 26.1981 30.5042ZM14.4727 31.3877C14.2804 31.43 14.1206 31.5184 13.977 31.6622L13.8502 31.7891V31.6081V31.427H13.5149H13.1797V32.9556V34.4843H13.5137H13.8477L13.8549 33.5033C13.862 32.5381 13.863 32.5204 13.9172 32.402C14.0286 32.1587 14.2137 32.0291 14.4765 32.0101C14.8787 31.9811 15.0994 32.1187 15.2008 32.4618C15.2329 32.5708 15.239 32.741 15.239 33.5378V34.4843H15.5728H15.9065L15.914 33.5128L15.9214 32.5414L16.0054 32.3754C16.1434 32.1027 16.3582 31.9901 16.7025 32.01C16.9203 32.0225 17.0734 32.0995 17.1688 32.2445C17.2924 32.4323 17.2983 32.4903 17.2983 33.5252V34.4843H17.6695H18.0406V33.4404C18.0406 32.831 18.0304 32.3426 18.0162 32.2669C17.9616 31.9776 17.7528 31.6678 17.5198 31.5305C17.0229 31.2378 16.2855 31.333 15.8996 31.7398L15.7609 31.886L15.618 31.7292C15.3396 31.4237 14.9024 31.2933 14.4727 31.3877ZM19.9265 31.3796C19.2391 31.496 18.7252 32.0594 18.6674 32.7599C18.6207 33.3255 18.7667 33.7655 19.1202 34.1251C19.383 34.3923 19.7819 34.5557 20.1718 34.5557C20.5164 34.5557 20.8501 34.4291 21.0339 34.2287L21.1296 34.1243V34.3043V34.4843H21.4648H21.8001V32.9556V31.427H21.4648H21.1296V31.611V31.7951L20.9981 31.67C20.7316 31.4166 20.3381 31.31 19.9265 31.3796ZM23.5361 31.3703C23.0921 31.4424 22.7695 31.6479 22.6209 31.9532C22.5471 32.1049 22.5193 32.4079 22.564 32.5742C22.6624 32.9404 23.0289 33.1659 23.6558 33.2461C24.2458 33.3215 24.4342 33.4097 24.434 33.6101C24.4337 33.8479 24.1 34.0002 23.6425 33.9714C23.3284 33.9515 23.0537 33.8676 22.821 33.7203C22.7701 33.6881 22.7207 33.6708 22.7112 33.6818C22.6705 33.7294 22.4226 34.1425 22.4226 34.1629C22.4226 34.2033 22.6815 34.344 22.8865 34.4151C23.439 34.6065 24.1315 34.5896 24.5718 34.3739C24.7501 34.2865 24.9384 34.1045 25.0218 33.9387C25.0861 33.811 25.0926 33.7764 25.0925 33.5575C25.0925 33.3434 25.0855 33.3034 25.0291 33.1964C24.8535 32.8632 24.5247 32.6941 23.9073 32.6193C23.5276 32.5733 23.4926 32.5659 23.3753 32.5068C23.2306 32.4339 23.1952 32.3022 23.282 32.1593C23.437 31.9036 24.0638 31.9051 24.6429 32.1626L24.7701 32.2191L24.904 31.9506L25.0379 31.6821L24.9877 31.6411C24.9047 31.5736 24.6024 31.4577 24.3981 31.4152C24.2082 31.3757 23.6742 31.3478 23.5361 31.3703ZM29.7098 31.3812C29.3948 31.4341 29.0933 31.6013 28.8738 31.8447C28.41 32.3595 28.3521 33.2893 28.746 33.8973C28.9351 34.189 29.2403 34.4034 29.6063 34.5015C29.834 34.5625 30.3204 34.5554 30.5761 34.4874C30.7788 34.4335 31.1067 34.2806 31.2163 34.1888L31.2819 34.1339L31.1262 33.8999C31.0405 33.7711 30.9665 33.6658 30.9618 33.6658C30.957 33.6658 30.8904 33.7037 30.8139 33.75C30.6329 33.8597 30.4597 33.9237 30.2498 33.9585C29.9217 34.013 29.5428 33.8997 29.3624 33.6932C29.2865 33.6063 29.1927 33.4184 29.1655 33.2987L29.1504 33.2325H30.2763H31.4022L31.402 32.9376C31.4017 32.4068 31.2686 32.0357 30.9723 31.7399C30.6566 31.4248 30.2085 31.2975 29.7098 31.3812ZM33.3426 31.392C33.1773 31.4383 33.0062 31.548 32.8991 31.6763L32.8159 31.776L32.8155 31.6015L32.815 31.427H32.4797H32.1445V32.9556V34.4843H32.4788H32.813L32.82 33.4672C32.8269 32.4536 32.8272 32.4497 32.8842 32.3228C33.0108 32.041 33.2485 31.9256 33.5994 31.9755C33.7019 31.9901 33.802 32.0083 33.822 32.016C33.8508 32.0271 33.8776 31.965 33.9513 31.7165C34.0024 31.5441 34.0362 31.3949 34.0264 31.385C33.9904 31.3488 33.4782 31.3541 33.3426 31.392ZM35.5868 31.3792C35.3974 31.4094 35.1355 31.5042 34.9777 31.5998C34.7758 31.7221 34.5501 31.9771 34.4405 32.2067C34.3097 32.4808 34.2684 32.6982 34.2822 33.0399C34.3044 33.5947 34.5305 34.0165 34.9546 34.2945C35.3608 34.5608 35.9822 34.632 36.4925 34.4706C36.6379 34.4246 36.9058 34.2742 36.9395 34.2195C36.9556 34.1932 36.9209 34.1136 36.8115 33.9259L36.6613 33.6684L36.564 33.7292C36.3962 33.8339 36.2628 33.8865 36.0652 33.9256C35.6149 34.0148 35.2201 33.8246 35.0336 33.4287C34.9614 33.2757 34.9581 33.2553 34.9581 32.9677C34.9581 32.681 34.9616 32.6593 35.0322 32.5103C35.2887 31.9687 35.9409 31.8148 36.5126 32.161C36.5906 32.2083 36.6614 32.2384 36.6699 32.2281C36.6784 32.2178 36.7482 32.102 36.8249 31.9707C36.9256 31.7984 36.9582 31.7223 36.9422 31.6967C36.8981 31.6265 36.6183 31.4793 36.4336 31.4292C36.2171 31.3705 35.7972 31.3457 35.5868 31.3792ZM38.502 31.3925C38.2269 31.447 37.9573 31.5961 37.7478 31.8096C37.4597 32.1032 37.3233 32.4229 37.2996 32.8603C37.2825 33.1748 37.3336 33.4382 37.4652 33.714C37.5978 33.9919 37.8694 34.2697 38.1309 34.3948C38.6781 34.6568 39.3087 34.5932 39.6592 34.2409L39.7831 34.1163V34.3003V34.4843H40.1064H40.4297V32.9556V31.427H40.1064H39.7831V31.6094V31.7919L39.6505 31.6731C39.3457 31.4 38.9511 31.3035 38.502 31.3925ZM42.5052 31.4005C42.3335 31.4577 42.2019 31.5473 42.0798 31.6906L41.9864 31.8001L41.9862 31.6135L41.9861 31.427H41.6628H41.3396V32.9556V34.4843H41.6608H41.982L41.9919 33.5033C42.0026 32.4429 42.0101 32.3767 42.139 32.2011C42.2926 31.9918 42.4966 31.9275 42.8299 31.9834C43.0794 32.0253 43.0368 32.0668 43.1601 31.6615C43.2035 31.5191 43.2321 31.3957 43.2237 31.3873C43.2154 31.3789 43.0816 31.368 42.9266 31.3631C42.6955 31.3558 42.6194 31.3625 42.5052 31.4005ZM30.3663 32.0196C30.5283 32.1029 30.6618 32.2661 30.7165 32.4476C30.7903 32.6923 30.8763 32.6668 29.9774 32.6668H29.1872L29.1948 32.6066C29.2085 32.4982 29.3349 32.2551 29.4243 32.1653C29.5905 31.9982 29.7824 31.9303 30.0557 31.942C30.1911 31.9478 30.2601 31.965 30.3663 32.0196ZM20.5051 32.0076C21.0561 32.1325 21.3293 32.858 21.0451 33.4416C20.682 34.1871 19.5971 34.077 19.3686 33.2713C19.3388 33.1664 19.3312 33.0696 19.3392 32.8982C19.3531 32.6029 19.4149 32.4361 19.5763 32.2587C19.8075 32.0043 20.1191 31.92 20.5051 32.0076ZM39.248 32.033C39.6053 32.1652 39.831 32.5225 39.831 32.956C39.831 33.3543 39.64 33.6865 39.3156 33.8526C38.8885 34.0713 38.3206 33.8771 38.1061 33.4389C37.958 33.1365 37.9566 32.7895 38.1024 32.4764C38.3005 32.0508 38.787 31.8626 39.248 32.033ZM45.3145 32.0078C45.6406 32.081 45.8988 32.3914 45.9608 32.7844C46.0441 33.3125 45.7411 33.8037 45.259 33.9223C44.8535 34.022 44.4147 33.8018 44.2299 33.4058C44.1657 33.2681 44.1533 33.2107 44.1453 33.0131C44.1306 32.651 44.2211 32.4032 44.4434 32.1973C44.667 31.9901 44.956 31.9272 45.3145 32.0078Z" fill="black"/>
<path d="M47.5689 17.2835C47.5689 23.6144 42.4367 28.7466 36.1057 28.7466C29.7748 28.7466 24.6426 23.6144 24.6426 17.2835C24.6426 10.9525 29.7748 5.82031 36.1057 5.82031C42.4367 5.82031 47.5689 10.9525 47.5689 17.2835Z" fill="#F79E1B"/>
<path d="M33.5123 17.2835C33.5123 23.6144 28.38 28.7466 22.0491 28.7466C15.7182 28.7466 10.5859 23.6144 10.5859 17.2835C10.5859 10.9525 15.7182 5.82031 22.0491 5.82031C28.38 5.82031 33.5123 10.9525 33.5123 17.2835Z" fill="#EB001B"/>
<path fill-rule="evenodd" clip-rule="evenodd" d="M24.6519 17.2835C24.6519 20.9624 26.3843 24.2366 29.0774 26.3341C31.7706 24.2366 33.5029 20.9624 33.5029 17.2835C33.5029 13.6045 31.7706 10.3304 29.0774 8.23289C26.3843 10.3304 24.6519 13.6045 24.6519 17.2835Z" fill="#FF5A00"/>
<path fill-rule="evenodd" clip-rule="evenodd" d="M29.0774 26.3341C31.7706 24.2366 33.5029 20.9624 33.5029 17.2835C33.5029 13.6045 31.7706 10.3304 29.0774 8.23289C26.3843 10.3304 24.6519 13.6045 24.6519 17.2835C24.6519 20.9624 26.3843 24.2366 29.0774 26.3341Z" fill="#FF5A00"/>
</svg>
