<svg width="44" height="40" viewBox="0 0 44 40" fill="none" xmlns="http://www.w3.org/2000/svg">
<path d="M13.6031 25.0994C13.1155 25.0994 12.6799 25.0154 12.2963 24.8473C11.9152 24.6792 11.6133 24.446 11.3908 24.1477C11.2845 24.0026 11.2019 23.8464 11.1431 23.6792C11.0367 23.3769 11.3028 23.1037 11.6232 23.1037C11.92 23.1037 12.1489 23.3529 12.3168 23.5976C12.3326 23.6205 12.3494 23.6429 12.3674 23.6648C12.4999 23.821 12.6727 23.9418 12.8858 24.027C13.0989 24.1122 13.3356 24.1548 13.596 24.1548C13.8825 24.1548 14.1358 24.1051 14.356 24.0057C14.5785 23.9062 14.7525 23.7678 14.878 23.5902C15.0035 23.4103 15.0662 23.2031 15.0662 22.9688C15.0662 22.7249 15.0035 22.5107 14.878 22.326C14.7549 22.139 14.5738 21.9922 14.3347 21.8857C14.0979 21.7791 13.8115 21.7259 13.4753 21.7259H13.3084C13.0613 21.7259 12.861 21.5255 12.861 21.2784C12.861 21.0313 13.0613 20.831 13.3084 20.831H13.4753C13.7452 20.831 13.9819 20.7824 14.1855 20.6854C14.3915 20.5883 14.5525 20.4534 14.6685 20.2805C14.7845 20.1054 14.8425 19.9006 14.8425 19.6662C14.8425 19.4413 14.7916 19.246 14.6898 19.0803C14.5904 18.9122 14.4483 18.7808 14.2637 18.6861C14.0814 18.5914 13.8659 18.544 13.6174 18.544C13.3806 18.544 13.1593 18.5878 12.9533 18.6754C12.7497 18.7607 12.584 18.8838 12.4561 19.0447C12.4336 19.0727 12.4129 19.1017 12.394 19.1316C12.2416 19.3736 12.0246 19.6165 11.7385 19.6165C11.4374 19.6165 11.1863 19.3621 11.2798 19.0758C11.338 18.898 11.4235 18.7325 11.5364 18.5795C11.7589 18.2812 12.0525 18.0481 12.4171 17.88C12.7816 17.7119 13.1865 17.6278 13.6316 17.6278C14.0979 17.6278 14.5004 17.719 14.8389 17.9013C15.1798 18.0812 15.4426 18.3215 15.6273 18.6222C15.8143 18.9228 15.9066 19.2519 15.9043 19.6094C15.9066 20.0166 15.793 20.3622 15.5634 20.6463C15.3413 20.9238 15.047 21.1121 14.6804 21.2112C14.6651 21.2153 14.6543 21.2291 14.6543 21.245C14.6543 21.2622 14.6669 21.2767 14.6838 21.2795C15.1525 21.3562 15.5167 21.5464 15.7764 21.8501C16.044 22.1603 16.1765 22.545 16.1742 23.0043C16.1765 23.4044 16.0653 23.763 15.8404 24.0803C15.6178 24.3975 15.3136 24.6473 14.9277 24.8295C14.5418 25.0095 14.1003 25.0994 13.6031 25.0994Z" fill="#212121"/>
<path d="M20.0556 25.0994C19.7312 25.0947 19.4116 25.0355 19.0968 24.9219C18.7843 24.8082 18.5002 24.6188 18.2445 24.3537C17.9888 24.0885 17.784 23.7322 17.6301 23.2848C17.4786 22.8374 17.4029 22.2786 17.4029 21.6087C17.4029 20.9742 17.4656 20.4107 17.5911 19.9183C17.7189 19.4259 17.9024 19.0104 18.1415 18.6719C18.3806 18.331 18.6694 18.0717 19.008 17.8942C19.3465 17.7166 19.7265 17.6278 20.1479 17.6278C20.5811 17.6278 20.9658 17.7131 21.302 17.8835C21.6382 18.054 21.9104 18.2895 22.1188 18.5902C22.2085 18.7183 22.2843 18.8539 22.3462 18.9971C22.481 19.3091 22.2148 19.6165 21.8749 19.6165C21.6179 19.6165 21.4058 19.4327 21.2767 19.2105C21.2033 19.084 21.1111 18.9719 21.0002 18.8743C20.7824 18.6825 20.4983 18.5866 20.1479 18.5866C19.6152 18.5866 19.1997 18.8187 18.9014 19.2827C18.6096 19.7402 18.4605 20.374 18.4542 21.1838C18.454 21.2026 18.4693 21.218 18.4881 21.218C18.5 21.218 18.511 21.2118 18.5173 21.2017C18.6409 21.0028 18.7914 20.8331 18.9689 20.6925C19.1536 20.5457 19.3595 20.4332 19.5868 20.3551C19.8165 20.2746 20.0579 20.2344 20.3112 20.2344C20.7326 20.2344 21.1138 20.3374 21.4547 20.5433C21.798 20.7469 22.0714 21.0286 22.275 21.3885C22.4786 21.7483 22.5804 22.1603 22.5804 22.6243C22.5804 23.0883 22.4751 23.5085 22.2644 23.8849C22.056 24.2614 21.7625 24.5597 21.3837 24.7798C21.0049 24.9976 20.5622 25.1042 20.0556 25.0994ZM20.052 24.1761C20.3314 24.1761 20.5811 24.1075 20.8013 23.9702C21.0215 23.8329 21.1955 23.6482 21.3233 23.4162C21.4512 23.1842 21.5151 22.925 21.5151 22.6385C21.5151 22.3591 21.4523 22.1046 21.3269 21.875C21.2038 21.6454 21.0333 21.4631 20.8155 21.3281C20.6001 21.1932 20.3539 21.1257 20.0769 21.1257C19.8662 21.1257 19.6709 21.166 19.4909 21.2464C19.3134 21.3269 19.1571 21.4382 19.0222 21.5803C18.8872 21.7223 18.7807 21.8857 18.7026 22.0703C18.6268 22.2526 18.5889 22.4455 18.5889 22.6491C18.5889 22.9214 18.6517 23.1735 18.7772 23.4055C18.905 23.6375 19.079 23.8246 19.2992 23.9666C19.5217 24.1063 19.7727 24.1761 20.052 24.1761Z" fill="#212121"/>
<path d="M26.4059 25.1207C25.8448 25.1184 25.3654 24.9704 24.9677 24.6768C24.5699 24.3833 24.2657 23.956 24.055 23.3949C23.8443 22.8338 23.739 22.1579 23.739 21.3672C23.739 20.5788 23.8443 19.9053 24.055 19.3466C24.2681 18.7879 24.5735 18.3617 24.9712 18.0682C25.3713 17.7746 25.8495 17.6278 26.4059 17.6278C26.9622 17.6278 27.4393 17.7758 27.837 18.0717C28.2347 18.3653 28.5389 18.7914 28.7496 19.3501C28.9627 19.9065 29.0692 20.5788 29.0692 21.3672C29.0692 22.1603 28.9639 22.8374 28.7532 23.3984C28.5425 23.9571 28.2383 24.3845 27.8405 24.6804C27.4428 24.974 26.9646 25.1207 26.4059 25.1207ZM26.4059 24.1726C26.8983 24.1726 27.283 23.9323 27.56 23.4517C27.8394 22.9711 27.979 22.2763 27.979 21.3672C27.979 20.7635 27.9151 20.2533 27.7873 19.8366C27.6618 19.4176 27.4807 19.1004 27.2439 18.8849C27.0096 18.6671 26.7302 18.5582 26.4059 18.5582C25.9158 18.5582 25.5311 18.7997 25.2518 19.2827C24.9724 19.7656 24.8315 20.4605 24.8292 21.3672C24.8292 21.9732 24.8919 22.4858 25.0174 22.9048C25.1452 23.3215 25.3263 23.6375 25.5607 23.853C25.7951 24.0661 26.0768 24.1726 26.4059 24.1726Z" fill="#212121"/>
<path fill-rule="evenodd" clip-rule="evenodd" d="M32.5005 21C33.8812 21 35.0005 19.8807 35.0005 18.5C35.0005 17.1193 33.8812 16 32.5005 16C31.1198 16 30.0005 17.1193 30.0005 18.5C30.0005 19.8807 31.1198 21 32.5005 21ZM32.5005 20C33.3289 20 34.0005 19.3284 34.0005 18.5C34.0005 17.6716 33.3289 17 32.5005 17C31.6721 17 31.0005 17.6716 31.0005 18.5C31.0005 19.3284 31.6721 20 32.5005 20Z" fill="#212121"/>
<path d="M40.9227 20.2974L39.1577 23.2719C38.9961 23.5443 39.1484 23.9269 39.4202 23.9315C40.0392 23.9422 40.4962 24.5157 40.3302 25.1122C38.097 33.1362 30.7364 39.0244 22.0005 39.0244C12.6588 39.0244 4.8897 32.2912 3.28146 23.4132C3.23852 23.1761 3.03393 23 2.793 23C2.49348 23 2.26381 23.2674 2.31681 23.5622C3.99703 32.9084 12.1706 40 22.0005 40C31.3979 40 39.2815 33.5187 41.4251 24.7824C41.5401 24.3136 41.9572 23.9751 42.4397 23.9834L42.8455 23.9904C43.1173 23.9951 43.2826 23.6181 43.1305 23.3403L41.9645 21.21L41.4702 20.307C41.3676 20.1194 41.1701 20.0775 41.024 20.1837C40.9859 20.2115 40.9512 20.2494 40.9227 20.2974Z" fill="#212121"/>
<path d="M1.93906 18.9571L0.919164 15.6529C0.825764 15.3503 1.06315 15.014 1.32851 15.073L1.58432 15.1298C2.11756 15.2482 2.64474 14.9157 2.79765 14.3913C5.22237 6.07568 12.9019 0 22.0005 0C31.8304 0 40.004 7.09161 41.6842 16.4378C41.7372 16.7326 41.5076 17 41.208 17C40.9671 17 40.7625 16.8239 40.7196 16.5868C39.1113 7.70876 31.3422 0.97561 22.0005 0.97561C13.3794 0.97561 6.09758 6.71011 3.76147 14.5728C3.60236 15.1083 3.94514 15.6542 4.49053 15.7754L4.67275 15.8159C4.93818 15.8748 5.01079 16.2802 4.79795 16.5147L3.03804 18.454L2.47361 19.076C2.29238 19.2757 2.0186 19.2148 1.93906 18.9571Z" fill="#212121"/>
</svg>
