<svg width="5" height="8" viewBox="0 0 5 8" fill="none" xmlns="http://www.w3.org/2000/svg">
<path d="M0.580015 7.12055C0.510249 7.12847 0.4396 7.1219 0.372491 7.10125C0.305382 7.0806 0.24326 7.04632 0.190015 7.00055C0.0849732 6.89391 0.0260938 6.75023 0.0260938 6.60055C0.0260938 6.45086 0.0849732 6.30718 0.190015 6.20055L2.76002 3.56055L0.160015 1.00055C0.0549732 0.893908 -0.00390625 0.75023 -0.00390625 0.600546C-0.00390625 0.450861 0.0549732 0.307184 0.160015 0.200546C0.261303 0.090006 0.402064 0.0238239 0.551804 0.0163368C0.701545 0.00884982 0.848206 0.0606609 0.960015 0.160546L3.96001 3.16055C4.01821 3.21394 4.06467 3.27885 4.09646 3.35115C4.12824 3.42345 4.14466 3.50157 4.14466 3.58055C4.14466 3.65952 4.12824 3.73764 4.09646 3.80994C4.06467 3.88224 4.01821 3.94715 3.96001 4.00055L0.960015 7.00055C0.907676 7.04455 0.847172 7.0778 0.781966 7.09839C0.716761 7.11898 0.648134 7.12651 0.580015 7.12055V7.12055Z" fill="#221C1C"/>
</svg>
