<svg width="74" height="64" viewBox="0 0 74 64" fill="none" xmlns="http://www.w3.org/2000/svg">
<g clip-path="url(#clip0_706_7590)">
<path d="M71.1922 7.0481C71.0987 6.91976 70.9948 6.79934 70.8815 6.68808C69.5433 5.17233 67.9972 3.85263 66.289 2.76808C63.2333 0.999924 59.7681 0.0570379 56.2354 0.0324864C52.7027 0.0079348 49.2247 0.902568 46.1446 2.62808C45.9569 2.7449 45.7428 2.81258 45.5219 2.82481C45.301 2.83705 45.0806 2.79346 44.8811 2.69809C33.5104 -1.87191 22.8215 -0.6619 12.7944 6.4581C11.5554 7.41122 10.3766 8.43983 9.26485 9.53809L9.19472 9.60809C7.92487 10.9407 6.74253 12.3536 5.65512 13.8381C3.20837 17.3087 1.50197 21.2432 0.641572 25.3981C0.340759 26.8781 0.160311 28.3981 -0.0703125 29.8681V34.0481C-0.020177 34.2781 0.0199363 34.5081 0.0600447 34.7381C0.340804 36.4381 0.501213 38.1781 0.912324 39.8381C2.79737 47.4253 7.41674 54.055 13.8894 58.463C20.3621 62.871 28.2352 64.7487 36.0072 63.7381C46.4454 62.4081 54.3667 57.0381 59.7513 48.0581C63.1114 42.4768 64.5909 35.9689 63.9728 29.4881C63.9227 29.2502 63.9611 29.0022 64.0811 28.7905C64.2011 28.5788 64.3943 28.418 64.6246 28.3381C66.0577 27.6039 67.4203 26.7403 68.6955 25.7581C74.7118 20.8181 75.6944 13.0081 71.1922 7.0481ZM61.7968 35.3181C61.2153 41.4954 58.6072 47.3089 54.3768 51.8581C46.6459 60.1781 37.09 63.3481 25.9299 61.1881C18.9171 59.8603 12.6629 55.9473 8.41257 50.2281C5.87139 47.0191 4.03437 43.3135 3.02044 39.3515C2.00651 35.3894 1.83828 31.2591 2.52667 27.2281C3.20917 22.8452 4.89377 18.6777 7.45001 15.0481C7.45001 15.0481 9.84651 12.0481 10.7289 11.0981C10.8492 10.9681 10.9796 10.8681 11.0999 10.7481C19.1216 3.19808 28.5571 0.748084 39.2861 3.09808C40.6698 3.39808 42.0033 3.92808 43.357 4.34808C43.2968 4.52808 43.2969 4.55808 43.2768 4.56809L42.8056 5.0181C39.1858 8.4981 37.4411 12.6381 38.3936 17.6881C39.1055 21.2161 41.1522 24.3353 44.109 26.3981C44.2705 26.4917 44.3976 26.6345 44.4716 26.8055C44.5456 26.9765 44.5626 27.1667 44.5202 27.3481C44.3096 28.8681 44.1491 30.3981 43.9987 31.9281C43.9351 32.2381 43.9764 32.5604 44.1161 32.8445C44.2558 33.1286 44.4861 33.3585 44.7708 33.4981C45.0583 33.626 45.3785 33.662 45.6873 33.6011C45.9961 33.5402 46.2784 33.3854 46.4955 33.1581C47.8291 32.0881 49.1627 31.0281 50.5063 29.9981C50.7972 29.7928 51.1575 29.7102 51.509 29.7681C53.6279 30.2337 55.8074 30.3619 57.9665 30.1481C59.25 30.0181 60.5134 29.7581 61.7968 29.5481C61.8968 31.4701 61.8968 33.396 61.7968 35.3181ZM68.9261 22.5781C64.5543 27.4081 58.8991 28.7881 52.7023 27.7081C51.0378 27.4281 49.7944 27.5481 48.6112 28.7081C47.8963 29.3333 47.1464 29.9176 46.3651 30.4581C46.5155 29.2181 46.5958 28.1681 46.7863 27.1281C46.8899 26.6981 46.8477 26.2461 46.6662 25.8426C46.4848 25.4391 46.1744 25.107 45.7836 24.8981C44.2329 23.9259 42.9313 22.6059 41.9826 21.0434C41.0338 19.4809 40.4641 17.719 40.3188 15.8981C40.1926 14.1022 40.5001 12.3022 41.2155 10.6493C41.9308 8.99629 43.0331 7.5385 44.43 6.3981C49.8947 1.4981 58.8389 0.78809 65.3364 4.69809C66.308 5.44102 67.2418 6.232 68.134 7.06809C69.564 8.36316 70.6376 10.0019 71.2525 11.8281C71.8733 13.6626 71.9848 15.6304 71.5752 17.5229C71.1657 19.4155 70.2503 21.1623 68.9261 22.5781Z" fill="#00B9C0"/>
<path d="M33.4808 17.2294C33.3705 18.4494 33.3104 19.6694 33.1399 20.8794C33.0521 21.7751 32.6814 22.6198 32.0814 23.2919C31.4813 23.9641 30.6827 24.4289 29.8008 24.6194C29.4632 24.6952 29.1568 24.8716 28.9222 25.1252C28.6876 25.3789 28.5359 25.6977 28.4873 26.0394C28.0875 27.7547 28.1254 29.5425 28.5976 31.2394C29.0375 33.5365 30.0322 35.692 31.4955 37.5194C31.7307 37.7906 31.9818 38.0477 32.2475 38.2894C32.468 38.5225 32.7469 38.6926 33.0553 38.7823C33.3638 38.8719 33.6907 38.8779 34.0022 38.7994C34.8814 38.5472 35.8168 38.5681 36.6838 38.8592C37.5508 39.1504 38.3082 39.6981 38.8553 40.4294C40.185 42.1027 41.3849 43.8745 42.445 45.7294C43.6582 47.9094 42.9965 49.8894 40.7806 51.0794C39.1776 51.9236 37.397 52.3774 35.5845 52.4034C33.772 52.4295 31.979 52.0272 30.3523 51.2294C26.6859 49.5455 23.6793 46.7017 21.7992 43.1394C18.4191 37.53 16.7243 31.071 16.916 24.5294C16.905 20.8863 18.2238 17.3638 20.6261 14.6194C21.6427 13.4399 22.9028 12.4933 24.3202 11.8443C25.7375 11.1954 27.2787 10.8594 28.8382 10.8594C29.4198 10.8089 30.0056 10.8808 30.5576 11.0703C31.1096 11.2599 31.6155 11.5628 32.0427 11.9597C32.4699 12.3565 32.8089 12.8383 33.0376 13.374C33.2663 13.9097 33.3797 14.4872 33.3705 15.0694C33.3705 15.7794 33.3705 16.5094 33.3705 17.2294H33.4808ZM31.2749 17.2294H31.2147C31.2147 16.5594 31.2147 15.8794 31.2147 15.2294C31.0943 13.6794 30.4025 13.0094 28.8483 13.0294C27.6153 13.0291 26.3964 13.2923 25.2739 13.8011C24.1514 14.31 23.1513 15.0527 22.3407 15.9794C20.2534 18.3174 19.1008 21.339 19.102 24.4694C18.8862 30.8941 20.6119 37.2352 24.0553 42.6694C25.8089 45.8038 28.5976 48.2351 31.9466 49.5494C33.141 50.0411 34.4253 50.2781 35.7169 50.2454C37.0086 50.2127 38.2791 49.9109 39.4469 49.3594C40.9509 48.6294 41.2517 47.8494 40.4496 46.4194C39.6474 44.9894 38.4442 43.4194 37.4415 42.0194C37.0889 41.5103 36.5744 41.1346 35.9812 40.9531C35.388 40.7717 34.7508 40.795 34.1726 41.0194C33.7815 41.1503 33.3644 41.184 32.9573 41.1178C32.5502 41.0516 32.1654 40.8874 31.8363 40.6394C31.0489 40.092 30.3317 39.4506 29.7006 38.7294C27.9133 36.4196 26.7561 33.6876 26.3415 30.7994C25.8999 28.8443 26.011 26.8053 26.6623 24.9094C26.8133 24.3506 27.1175 23.845 27.5409 23.4492C27.9643 23.0535 28.4899 22.7834 29.0588 22.6694C29.6452 22.5949 30.1826 22.3041 30.5648 21.8544C30.9471 21.4047 31.1467 20.8286 31.1245 20.2394C31.1746 19.2294 31.2147 18.2294 31.2749 17.2294Z" fill="#00B9C0"/>
<path d="M56.6833 10.8385H63.7023C64.6047 10.8385 65.0861 11.2285 65.0861 11.9285C65.0861 12.6285 64.5948 12.9985 63.7425 12.9985H49.7045C48.7018 12.9985 48.1603 12.3985 48.3809 11.6485C48.46 11.3807 48.6334 11.1503 48.8691 10.9996C49.1049 10.849 49.3873 10.7883 49.6644 10.8285L56.6833 10.8385Z" fill="#00B9C0"/>
<path d="M56.6535 18.7098H49.8752C49.6336 18.7135 49.3921 18.6967 49.1533 18.6598C48.8978 18.6225 48.6666 18.4884 48.5078 18.2853C48.3491 18.0823 48.275 17.826 48.301 17.5698C48.2992 17.3241 48.3882 17.0864 48.5509 16.902C48.7137 16.7175 48.9388 16.5993 49.1834 16.5698C49.4236 16.5496 49.6651 16.5496 49.9053 16.5698H63.472C63.7371 16.5566 64.0027 16.5734 64.2641 16.6198C64.4939 16.6666 64.7002 16.7923 64.8468 16.975C64.9934 17.1577 65.071 17.3859 65.0663 17.6198C65.09 17.8599 65.0259 18.1003 64.8858 18.2969C64.7458 18.4936 64.5392 18.6331 64.3042 18.6898C64.0433 18.74 63.7775 18.7601 63.512 18.7498L56.6535 18.7098Z" fill="#00B9C0"/>
</g>
<defs>
<clipPath id="clip0_706_7590">
<rect width="74" height="64" fill="white"/>
</clipPath>
</defs>
</svg>
