<svg width="64" height="64" viewBox="0 0 64 64" fill="none" xmlns="http://www.w3.org/2000/svg">
<g clip-path="url(#clip0_706_7643)">
<path d="M60.8568 2.48165C60.7507 2.26875 60.5677 2.10394 60.3448 2.02044C60.122 1.93693 59.8756 1.94093 59.6556 2.03164C56.3233 2.8522 53.2155 4.40299 50.5571 6.57164C48.9994 7.81249 47.7943 9.43952 47.062 11.2906C46.3297 13.1416 46.0955 15.1521 46.3831 17.1217C46.4632 17.8017 46.5633 18.4816 46.6434 19.0716C45.2421 17.8816 43.8007 16.7016 42.3994 15.4816C41.9957 15.1147 41.6363 14.7019 41.3285 14.2516C40.0173 12.3316 36.7642 7.25165 33.5712 4.45165C29.5675 1.02165 24.9731 -0.658364 19.6381 0.281636C13.7826 1.28164 8.92804 4.28163 4.48388 8.09163C4.27409 8.24739 4.13367 8.47896 4.09252 8.73684C4.05137 8.99471 4.11279 9.25843 4.2637 9.47164C5.45595 11.8806 6.92016 14.1453 8.62778 16.2216C9.929 17.7616 11.3604 19.2216 12.7717 20.7216L12.5816 20.9017C6.91625 26.0517 4.34373 32.4417 5.34467 40.0217C6.41567 48.1617 10.9099 53.9417 18.3569 57.2417C22.3856 58.8288 26.7785 59.2583 31.0388 58.4816C40.2775 56.5516 47.6044 48.7116 48.335 39.3416C48.9756 31.0316 45.8227 24.4017 39.1064 19.4617L38.6459 19.1016L41.2684 17.0416C41.4686 17.1816 41.6488 17.3016 41.8189 17.4416C49.6363 23.8116 52.9994 31.9817 51.1677 41.9317C50.0474 48.4295 46.3893 54.2165 40.9982 58.0198C35.6071 61.823 28.9246 63.3309 22.4207 62.2117C15.9168 61.0924 10.1243 57.4378 6.31751 52.0518C2.5107 46.6657 1.00141 39.9895 2.12168 33.4917C2.24179 32.7117 2.00157 32.2717 1.38099 32.1817C0.760411 32.0917 0.380079 32.3817 0.279985 33.1817C-0.275362 36.5449 -0.156305 39.9848 0.630289 43.3017C2.23182 50.1736 6.48513 56.1356 12.4646 59.8901C18.4441 63.6447 25.6658 64.888 32.5583 63.3494C39.4507 61.8108 45.4561 57.6149 49.2674 51.6748C53.0788 45.7347 54.3877 38.5311 52.9093 31.6316C52.5289 29.9316 51.9084 28.2817 51.448 26.5517C51.448 26.5517 51.7382 26.4417 51.8883 26.4017C54.6779 25.5472 57.2774 24.1655 59.5455 22.3317C60.7392 21.4134 61.7342 20.263 62.4705 18.9499C63.2068 17.6367 63.6691 16.1882 63.8296 14.6916C64.35 10.2216 62.9287 6.25165 60.8568 2.48165ZM20.1686 2.09163C20.3088 2.09163 20.5089 2.21165 20.6691 2.29165C20.7191 2.33671 20.7599 2.39105 20.7892 2.45165L28.0961 12.4516L26.0942 12.0817C24.4827 11.7717 22.8711 11.4716 21.2696 11.1316C21.0129 11.0829 20.7801 10.949 20.609 10.7516C18.894 8.44497 17.1891 6.11164 15.4942 3.75164C15.4141 3.62035 15.3439 3.4833 15.284 3.34163C16.9256 2.87163 18.5371 2.48164 20.1686 2.06164V2.09163ZM27.8758 14.3816L25.5938 16.0517C23.2115 17.8017 20.8193 19.5316 18.4571 21.2916C18.325 21.4169 18.1549 21.4947 17.9737 21.5128C17.7925 21.5309 17.6104 21.4883 17.4561 21.3917C15.8086 20.5125 14.2869 19.416 12.9319 18.1316L13.6224 17.6117C15.6243 16.1217 17.6963 14.6117 19.7482 13.1417C19.9895 12.9605 20.2879 12.8718 20.5891 12.8917C22.9213 13.3117 25.2434 13.7817 27.5956 14.2417C27.6926 14.2684 27.7865 14.3053 27.8758 14.3516V14.3816ZM13.5224 4.31164L18.0366 10.4716L7.2565 8.38164C9.13087 6.71317 11.2425 5.33148 13.5224 4.28164V4.31164ZM11.5806 16.7717C9.73941 14.7741 8.13712 12.5693 6.80612 10.2016L17.6663 12.3116L11.5806 16.7717ZM13.5023 51.7717C8.70785 49.0717 5.37479 37.5017 7.81708 31.8317C8.32756 32.7617 8.81799 33.6316 9.28843 34.5416C9.60273 35.2272 10.0703 35.8316 10.6551 36.3084C11.2399 36.7851 11.9263 37.1215 12.6616 37.2916C14.6635 37.8316 14.7636 38.1417 13.9428 40.0517C13.4223 41.2617 12.8318 42.4217 12.3013 43.6217C11.9638 44.242 11.8029 44.9429 11.8365 45.6482C11.87 46.3535 12.0965 47.0361 12.4914 47.6217C13.2447 48.8657 13.5976 50.3108 13.5023 51.7616V51.7717ZM46.183 33.1916C46.2259 33.3394 46.2593 33.4897 46.2831 33.6417C46.7035 36.0098 46.7035 38.4335 46.2831 40.8017C45.5338 44.9161 43.4921 48.6851 40.4541 51.562C37.4161 54.4389 33.5397 56.2742 29.3872 56.8017C24.6528 57.3117 20.9894 56.7117 15.7444 53.6417C15.594 53.5741 15.4717 53.4562 15.3987 53.3085C15.3256 53.1607 15.3063 52.9921 15.344 52.8317C15.6519 50.9056 15.2991 48.9322 14.3431 47.2316C13.9777 46.68 13.7829 46.0332 13.7829 45.3717C13.7829 44.7102 13.9777 44.0633 14.3431 43.5116C14.517 43.1895 14.6676 42.8553 14.7936 42.5116C15.254 41.4316 15.7945 40.3716 16.1248 39.2516C16.3539 38.6239 16.3282 37.9315 16.0533 37.3224C15.7784 36.7133 15.276 36.2357 14.6534 35.9917C14.1419 35.7287 13.601 35.5273 13.042 35.3917C12.5875 35.2905 12.1629 35.0851 11.8015 34.7918C11.4402 34.4985 11.1522 34.1253 10.96 33.7016C10.2394 32.3517 9.42859 31.0417 8.68789 29.7017C8.65098 29.6164 8.63193 29.5245 8.63193 29.4317C8.63193 29.3388 8.65098 29.2469 8.68789 29.1616C9.96404 26.2794 11.9136 23.7452 14.3732 21.7717C15.6944 22.4217 16.9056 23.1416 18.2068 23.6316C19.508 24.1216 20.8493 24.3816 22.2106 24.7516L21.67 25.2216C20.162 26.4685 19.1675 28.2276 18.8774 30.1616C18.7537 30.926 18.7935 31.7079 18.9942 32.4557C19.1949 33.2036 19.552 33.9004 20.0419 34.5004C20.5318 35.1004 21.1433 35.5898 21.8363 35.9365C22.5293 36.2832 23.288 36.4792 24.0623 36.5116C25.5947 36.496 27.1237 36.3657 28.6365 36.1217C30.5283 35.8817 30.7386 35.9717 30.8186 37.9017C30.9287 40.1717 30.8786 42.4316 30.9887 44.7016C31.0247 45.8537 31.1926 46.9978 31.4892 48.1117C31.5726 48.5377 31.7502 48.9397 32.0087 49.2886C32.2673 49.6374 32.6004 49.9243 32.9839 50.1283C33.3674 50.3324 33.7916 50.4484 34.2256 50.468C34.6597 50.4876 35.0926 50.4103 35.4929 50.2417C36.9873 49.7994 38.3344 48.9619 39.3916 47.8177C40.4488 46.6736 41.1767 45.2652 41.4986 43.7417C41.6133 42.5987 41.5492 41.4449 41.3084 40.3216C41.1183 38.4816 41.0381 36.6616 42.6196 35.3216C43.7006 34.4116 44.8918 33.6416 46.0629 32.7816C46.113 32.9117 46.1531 33.0455 46.183 33.1817V33.1916ZM45.5324 30.8116C45.5324 30.8916 45.5825 30.9717 45.6125 31.0517C44.6116 31.6517 43.7006 32.2316 42.7698 32.8216C41.4622 33.5696 40.4309 34.7188 39.8287 36.0986C39.2264 37.4784 39.0855 39.0154 39.4267 40.4816C39.4867 40.9016 39.5467 41.3216 39.6168 41.7316C39.7286 43.2281 39.3307 44.7183 38.4876 45.9601C37.6444 47.2019 36.4056 48.1223 34.9725 48.5716C34.0517 48.7816 33.461 48.5116 33.2609 47.5716C33.0377 46.5316 32.9038 45.4744 32.8605 44.4116C32.7704 42.1916 32.8005 39.9716 32.6904 37.7516C32.632 37.0012 32.4528 36.2651 32.1599 35.5716C31.9953 35.0911 31.6629 34.686 31.2234 34.4307C30.784 34.1753 30.267 34.0869 29.7676 34.1817C28.6165 34.2917 27.4755 34.5017 26.3344 34.6417C25.7833 34.7148 25.2286 34.7582 24.6728 34.7717C24.0436 34.8018 23.4166 34.6753 22.8484 34.4035C22.2801 34.1318 21.7884 33.7232 21.4172 33.2146C21.0461 32.706 20.8072 32.1133 20.722 31.4896C20.6368 30.866 20.7081 30.231 20.9293 29.6417C21.4797 28.1231 22.5134 26.8268 23.872 25.9517C24.4226 25.5417 24.9831 25.1516 25.5537 24.7616C25.6805 24.6764 25.8237 24.6185 25.9741 24.5916C29.6748 24.0053 33.209 22.642 36.3438 20.5916C36.5205 20.4521 36.7392 20.3762 36.9644 20.3762C37.1896 20.3762 37.4083 20.4521 37.585 20.5916C41.3008 23.0131 44.0985 26.6073 45.5324 30.8017V30.8116ZM38.7961 16.6117C35.3457 19.4327 31.3064 21.4453 26.9751 22.5016C24.7053 23.0296 22.3403 22.9918 20.0886 22.3917L22.0905 20.9017C24.733 18.9717 27.3653 17.0317 30.0078 15.1217C30.2501 14.9432 30.5487 14.858 30.8487 14.8816C33.4211 15.3516 35.9935 15.8817 38.5659 16.3717C38.6588 16.3925 38.7493 16.4226 38.8362 16.4617C38.8462 16.4817 38.8361 16.5716 38.7961 16.6016V16.6117ZM39.2464 14.6117C36.5339 14.0717 33.8115 13.5517 31.0889 12.9917C30.8654 12.9133 30.6749 12.7617 30.5484 12.5616C28.0527 9.1883 25.5671 5.80497 23.0914 2.41164C22.9913 2.28164 22.9212 2.13165 22.7911 1.92165C24.3079 1.93081 25.8104 2.21543 27.2253 2.76165C29.0905 3.49995 30.8192 4.54431 32.3401 5.85164C32.4502 6.01164 35.0927 8.50163 36.3438 10.0616C37.4549 11.4616 38.3457 13.0016 39.3466 14.4716L39.2464 14.6117ZM51.558 8.20165C53.5618 6.49794 55.8765 5.19741 58.3745 4.37166C56.8931 7.92166 55.4718 11.3116 53.9904 14.8416C53.0995 12.6716 52.2687 10.6617 51.448 8.64165C51.422 8.56069 51.4185 8.4742 51.4379 8.39144C51.4573 8.30867 51.4989 8.23272 51.558 8.17165V8.20165ZM50.437 23.4017C50.3953 23.4835 50.345 23.5606 50.2868 23.6316C47.9847 19.0716 47.2841 13.3116 49.9666 10.0016C50.0462 10.1263 50.1164 10.2567 50.1767 10.3917C51.0676 12.5317 51.9584 14.6817 52.8293 16.8317C52.9189 17.0736 52.9189 17.3397 52.8293 17.5817C52.0285 19.4817 51.2077 21.4817 50.437 23.4017ZM60.4464 18.7616C58.9492 20.6776 57.0084 22.2013 54.7911 23.2017C53.9603 23.6217 53.0995 23.9617 52.2488 24.3317L52.1186 24.2017C52.8693 22.4117 53.6701 20.6316 54.3507 18.8116C54.4815 18.4096 54.7057 18.0442 55.0049 17.7453C55.3041 17.4463 55.6699 17.2224 56.0723 17.0916C58.0742 16.3516 60.016 15.5016 62.0779 14.6616C61.9119 16.1497 61.3483 17.5658 60.4464 18.7616ZM61.8477 12.6916C59.9259 13.5116 57.994 14.3016 55.9021 15.1616C57.3434 11.7416 58.7048 8.46165 60.1261 5.08165C61.2276 7.33243 61.9061 9.76609 62.128 12.2616C62.1177 12.3526 62.0849 12.4396 62.0325 12.5147C61.98 12.5898 61.9096 12.6506 61.8277 12.6916H61.8477Z" fill="#00B9C0"/>
</g>
<defs>
<clipPath id="clip0_706_7643">
<rect width="64" height="64" fill="white"/>
</clipPath>
</defs>
</svg>
