<svg width="20" height="20" viewBox="0 0 20 20" fill="none" xmlns="http://www.w3.org/2000/svg">
<path d="M6.91992 9.98906C6.91992 8.49906 8.12992 7.28906 9.61992 7.28906C11.1099 7.28906 12.3199 8.49906 12.3199 9.98906" fill="white"/>
<path d="M6.91992 9.98906C6.91992 8.49906 8.12992 7.28906 9.61992 7.28906C11.1099 7.28906 12.3199 8.49906 12.3199 9.98906" stroke="#00BAC1" stroke-width="1.4"/>
<path d="M6.91992 9.98906C6.91992 8.49906 8.12992 7.28906 9.61992 7.28906C11.1099 7.28906 12.3199 8.49906 12.3199 9.98906M12.3199 9.98906C12.3199 11.4791 11.1099 12.6891 9.61992 12.6891C8.12992 12.6891 6.91992 11.4791 6.91992 9.98906" fill="white"/>
<path d="M6.91992 9.98906C6.91992 8.49906 8.12992 7.28906 9.61992 7.28906C11.1099 7.28906 12.3199 8.49906 12.3199 9.98906C12.3199 11.4791 11.1099 12.6891 9.61992 12.6891C8.12992 12.6891 6.91992 11.4791 6.91992 9.98906Z" stroke="#00BAC1" stroke-width="1.4"/>
<path d="M16.3701 9.99001C16.3701 9.69001 16.3401 9.40001 16.3101 9.11001L17.9001 7.87001C18.2501 7.59001 18.3501 7.10001 18.1201 6.71001L16.7101 4.27001C16.6031 4.08237 16.4313 3.94024 16.2269 3.87027C16.0225 3.80031 15.7996 3.80733 15.6001 3.89001L14.1801 4.46001C14.0409 4.51346 13.8908 4.53229 13.7428 4.51487C13.5947 4.49745 13.4531 4.4443 13.3301 4.36001C13.1101 4.21001 12.8801 4.08001 12.6501 3.96001C12.3801 3.82001 12.1801 3.58001 12.1401 3.28001L11.9201 1.77001C11.8899 1.55576 11.7831 1.35972 11.6194 1.21816C11.4558 1.07659 11.2464 0.999096 11.0301 1.00001H8.21009C7.76009 1.00001 7.38009 1.33001 7.32009 1.77001L7.10009 3.28001C7.06009 3.58001 6.86009 3.82001 6.59009 3.96001C6.35009 4.08001 6.13009 4.21001 5.91009 4.36001C5.78711 4.4443 5.64549 4.49745 5.49742 4.51487C5.34935 4.53229 5.19927 4.51346 5.06009 4.46001L3.64009 3.89001C3.23009 3.72001 2.75009 3.89001 2.53009 4.27001L1.12009 6.71001C1.01286 6.89795 0.976109 7.11794 1.01643 7.33053C1.05675 7.54312 1.17149 7.73438 1.34009 7.87001L2.93009 9.11001C2.89009 9.40001 2.87009 9.69001 2.87009 9.99001" fill="white"/>
<path d="M16.3701 9.99001C16.3701 9.69001 16.3401 9.40001 16.3101 9.11001L17.9001 7.87001C18.2501 7.59001 18.3501 7.10001 18.1201 6.71001L16.7101 4.27001C16.6031 4.08237 16.4313 3.94024 16.2269 3.87027C16.0225 3.80031 15.7996 3.80733 15.6001 3.89001L14.1801 4.46001C14.0409 4.51346 13.8908 4.53229 13.7428 4.51487C13.5947 4.49745 13.4531 4.4443 13.3301 4.36001C13.1101 4.21001 12.8801 4.08001 12.6501 3.96001C12.3801 3.82001 12.1801 3.58001 12.1401 3.28001L11.9201 1.77001C11.8899 1.55576 11.7831 1.35972 11.6194 1.21816C11.4558 1.07659 11.2464 0.999096 11.0301 1.00001H8.21009C7.76009 1.00001 7.38009 1.33001 7.32009 1.77001L7.10009 3.28001C7.06009 3.58001 6.86009 3.82001 6.59009 3.96001C6.35009 4.08001 6.13009 4.21001 5.91009 4.36001C5.78711 4.4443 5.64549 4.49745 5.49742 4.51487C5.34935 4.53229 5.19927 4.51346 5.06009 4.46001L3.64009 3.89001C3.23009 3.72001 2.75009 3.89001 2.53009 4.27001L1.12009 6.71001C1.01286 6.89795 0.976109 7.11794 1.01643 7.33053C1.05675 7.54312 1.17149 7.73438 1.34009 7.87001L2.93009 9.11001C2.89009 9.40001 2.87009 9.69001 2.87009 9.99001" stroke="#00BAC1" stroke-width="1.4"/>
<path d="M16.3701 9.98828C16.3701 10.2883 16.3401 10.5783 16.3101 10.8683L17.9001 12.1083C18.2501 12.3883 18.3501 12.8783 18.1201 13.2683L16.7101 15.7083C16.4901 16.0983 16.0101 16.2583 15.6001 16.0883L14.1801 15.5183C14.0409 15.4648 13.8908 15.446 13.7428 15.4634C13.5947 15.4808 13.4531 15.534 13.3301 15.6183C13.1101 15.7683 12.8801 15.8983 12.6501 16.0183C12.3801 16.1583 12.1801 16.3983 12.1401 16.6983L11.9201 18.2083C11.8601 18.6483 11.4801 18.9783 11.0301 18.9783H8.21009C7.76009 18.9783 7.38009 18.6483 7.32009 18.2083L7.10009 16.6983C7.06009 16.3983 6.86009 16.1583 6.59009 16.0183C6.35456 15.9006 6.12736 15.767 5.91009 15.6183C5.78711 15.534 5.64549 15.4808 5.49742 15.4634C5.34935 15.446 5.19927 15.4648 5.06009 15.5183L3.64009 16.0883C3.23009 16.2583 2.75009 16.0883 2.53009 15.7083L1.12009 13.2683C1.01286 13.0803 0.976109 12.8603 1.01643 12.6478C1.05675 12.4352 1.17149 12.2439 1.34009 12.1083L2.93009 10.8683C2.89009 10.5783 2.87009 10.2883 2.87009 9.98828" fill="white"/>
<path d="M16.3701 9.98828C16.3701 10.2883 16.3401 10.5783 16.3101 10.8683L17.9001 12.1083C18.2501 12.3883 18.3501 12.8783 18.1201 13.2683L16.7101 15.7083C16.4901 16.0983 16.0101 16.2583 15.6001 16.0883L14.1801 15.5183C14.0409 15.4648 13.8908 15.446 13.7428 15.4634C13.5947 15.4808 13.4531 15.534 13.3301 15.6183C13.1101 15.7683 12.8801 15.8983 12.6501 16.0183C12.3801 16.1583 12.1801 16.3983 12.1401 16.6983L11.9201 18.2083C11.8601 18.6483 11.4801 18.9783 11.0301 18.9783H8.21009C7.76009 18.9783 7.38009 18.6483 7.32009 18.2083L7.10009 16.6983C7.06009 16.3983 6.86009 16.1583 6.59009 16.0183C6.35456 15.9006 6.12736 15.767 5.91009 15.6183C5.78711 15.534 5.64549 15.4808 5.49742 15.4634C5.34935 15.446 5.19927 15.4648 5.06009 15.5183L3.64009 16.0883C3.23009 16.2583 2.75009 16.0883 2.53009 15.7083L1.12009 13.2683C1.01286 13.0803 0.976109 12.8603 1.01643 12.6478C1.05675 12.4352 1.17149 12.2439 1.34009 12.1083L2.93009 10.8683C2.89009 10.5783 2.87009 10.2883 2.87009 9.98828" stroke="#00BAC1" stroke-width="1.4"/>
<circle cx="9.5" cy="10" r="2.4" stroke="#00B9C0" stroke-width="1.2"/>
</svg>
