<svg width="0" height="0" style="position:absolute"><symbol fill="none" viewBox="0 0 9 5" id="angle-down" xmlns="http://www.w3.org/2000/svg"><path d="M0 .709A.633.633 0 01.202.235.735.735 0 01.707.036c.189 0 .37.072.505.2l3.282 3.118L7.776.2A.735.735 0 018.28 0c.188 0 .37.071.504.199.132.127.206.3.206.48 0 .179-.074.351-.206.479L5 4.798a.735.735 0 01-.505.2.735.735 0 01-.505-.2L.202 1.158A.655.655 0 010 .708z" fill="currentColor"/></symbol><symbol fill="none" viewBox="0 0 5 8" id="arrow-r" xmlns="http://www.w3.org/2000/svg"><path d="M.58 7.12A.51.51 0 01.19 7a.57.57 0 010-.8l2.57-2.64L.16 1a.57.57 0 010-.8.57.57 0 01.8-.04l3 3a.57.57 0 010 .84l-3 3a.52.52 0 01-.38.12z" fill="currentColor"/></symbol><symbol fill="none" viewBox="0 0 20 16" id="burger" xmlns="http://www.w3.org/2000/svg"><path stroke="currentColor" stroke-width="2" d="M0 1h20M0 8h20M0 15h20"/></symbol><symbol fill="none" viewBox="0 0 16 14" id="button-burger" xmlns="http://www.w3.org/2000/svg"><path d="M0 0h7v2H0V0zM0 6h16v2H0V6zM0 12h16v2H0v-2z" fill="currentColor"/></symbol><symbol fill="none" viewBox="0 0 74 64" id="call-me" xmlns="http://www.w3.org/2000/svg"><g clip-path="url(#aeclip0_706_7590)" fill="currentColor"><path d="M71.192 7.048a2.888 2.888 0 00-.31-.36 21.495 21.495 0 00-4.593-3.92 20.357 20.357 0 00-20.144-.14 1.316 1.316 0 01-1.264.07c-11.37-4.57-22.06-3.36-32.087 3.76a37.932 37.932 0 00-3.53 3.08l-.07.07a42.761 42.761 0 00-3.539 4.23 30.957 30.957 0 00-5.013 11.56c-.301 1.48-.482 3-.712 4.47v4.18c.05.23.09.46.13.69.28 1.7.441 3.44.852 5.1A31.82 31.82 0 0013.89 58.463a31.974 31.974 0 0022.118 5.275c10.438-1.33 18.36-6.7 23.744-15.68a30.404 30.404 0 004.222-18.57.998.998 0 01.652-1.15 26.391 26.391 0 004.07-2.58c6.017-4.94 7-12.75 2.497-18.71zm-9.395 28.27a28.165 28.165 0 01-7.42 16.54c-7.731 8.32-17.287 11.49-28.447 9.33a28.406 28.406 0 01-17.517-10.96A29.17 29.17 0 013.02 39.351a29.123 29.123 0 01-.493-12.123 28.866 28.866 0 014.923-12.18s2.397-3 3.279-3.95c.12-.13.25-.23.37-.35 8.023-7.55 17.458-10 28.187-7.65 1.384.3 2.717.83 4.071 1.25-.06.18-.06.21-.08.22l-.471.45c-3.62 3.48-5.365 7.62-4.412 12.67a13.998 13.998 0 005.715 8.71.87.87 0 01.411.95c-.21 1.52-.37 3.05-.521 4.58a1.427 1.427 0 00.772 1.57 1.528 1.528 0 001.724-.34 231.09 231.09 0 014.011-3.16c.291-.205.651-.288 1.003-.23 2.119.466 4.298.594 6.458.38 1.283-.13 2.546-.39 3.83-.6.1 1.922.1 3.848 0 5.77zm7.13-12.74c-4.373 4.83-10.028 6.21-16.225 5.13-1.664-.28-2.908-.16-4.09 1a25.13 25.13 0 01-2.247 1.75c.15-1.24.23-2.29.421-3.33a1.994 1.994 0 00-1.002-2.23 11.745 11.745 0 01-3.801-3.855 11.707 11.707 0 01-1.664-5.145 11.232 11.232 0 01.896-5.249A11.262 11.262 0 0144.43 6.4c5.465-4.9 14.409-5.61 20.906-1.7a36.632 36.632 0 012.798 2.37 11.278 11.278 0 013.118 4.76 10.702 10.702 0 01-2.326 10.75z"/><path d="M33.48 17.23c-.11 1.22-.17 2.44-.34 3.65a4.244 4.244 0 01-1.059 2.412 4.264 4.264 0 01-2.28 1.327 1.706 1.706 0 00-1.314 1.42c-.4 1.716-.362 3.503.11 5.2a14.372 14.372 0 002.898 6.28c.236.272.487.529.753.77a1.806 1.806 0 001.754.51 4.515 4.515 0 014.853 1.63 42.08 42.08 0 013.59 5.3c1.213 2.18.551 4.16-1.664 5.35a11.506 11.506 0 01-10.429.15 18.31 18.31 0 01-8.553-8.09 34.119 34.119 0 01-4.883-18.61 14.977 14.977 0 013.71-9.91 10.854 10.854 0 018.212-3.76 4.182 4.182 0 013.205 1.1 4.16 4.16 0 011.328 3.11v2.16h.11zm-2.205 0h-.06v-2c-.12-1.55-.813-2.22-2.367-2.2a8.654 8.654 0 00-6.507 2.95 12.74 12.74 0 00-3.239 8.49 31.994 31.994 0 004.953 18.2 15.55 15.55 0 007.892 6.88 9.287 9.287 0 007.5-.19c1.504-.73 1.805-1.51 1.003-2.94-.803-1.43-2.006-3-3.009-4.4a2.757 2.757 0 00-3.268-1 2.543 2.543 0 01-2.337-.38 11.75 11.75 0 01-2.135-1.91 16.876 16.876 0 01-3.36-7.93 10.802 10.802 0 01.321-5.89 3.109 3.109 0 012.397-2.24 2.368 2.368 0 001.506-.816c.382-.45.582-1.025.56-1.615.05-1.01.09-2.01.15-3.01zM56.683 10.838h7.02c.902 0 1.383.39 1.383 1.09 0 .7-.491 1.07-1.343 1.07H49.704c-1.003 0-1.545-.6-1.324-1.35a1.16 1.16 0 011.283-.82l7.02.01zM56.654 18.71h-6.779a4.297 4.297 0 01-.722-.05 1.003 1.003 0 01-.852-1.09.998.998 0 01.882-1c.24-.02.482-.02.722 0h13.567c.265-.013.53.003.792.05a1.004 1.004 0 01.802 1 .998.998 0 01-.762 1.07c-.26.05-.526.07-.792.06l-6.858-.04z"/></g><defs><clipPath id="aeclip0_706_7590"><path fill="currentColor" d="M0 0h74v64H0z"/></clipPath></defs></symbol><symbol fill="none" viewBox="0 0 16 16" id="call-mobile" xmlns="http://www.w3.org/2000/svg"><path d="M14.23 9.932a1.992 1.992 0 00-2.816 0l-.78.815A10.831 10.831 0 015.252 5.38l.735-.736a2.02 2.02 0 00.071-2.887L5.021.71a2.443 2.443 0 00-3.444 0l-.575.576a3.543 3.543 0 00-.939 3.136 15.629 15.629 0 0011.51 11.516c.225.038.453.058.682.062a3.46 3.46 0 002.452-1.001l.576-.576a2.428 2.428 0 000-3.446l-1.054-1.045zm.097 3.544l-.576.575a2.15 2.15 0 01-1.948.567A14.297 14.297 0 011.365 4.183a2.18 2.18 0 01.575-1.95l.576-.584a1.097 1.097 0 01.779-.319c.294 0 .576.115.788.32l1.036 1.044a.701.701 0 01-.071 1.01l-.735.736a1.33 1.33 0 00-.283 1.453 12.115 12.115 0 006.073 6.067 1.31 1.31 0 001.435-.274l.814-.815a.664.664 0 01.939 0l1.036 1.037a1.099 1.099 0 010 1.568z" fill="currentColor"/></symbol><symbol fill="none" viewBox="0 0 20 20" id="cart" xmlns="http://www.w3.org/2000/svg"><path d="M19.534 4.046A2.03 2.03 0 0018 3.317H4.44L3.84.615a.152.152 0 010-.071A1.01 1.01 0 003.677.26a.528.528 0 00-.111-.1.721.721 0 00-.143-.102l-.132-.05a.52.52 0 00-.172 0H.843A.845.845 0 000 .847a.839.839 0 00.843.84h1.493l.6 2.702 1.98 9.202a2.025 2.025 0 001.971 1.478h9.468a1.962 1.962 0 001.92-1.549l1.696-7.845a2.018 2.018 0 00-.437-1.63zm-2.946 9.11a.283.283 0 01-.274.224H6.887a.275.275 0 01-.274-.223l-1.757-8.15H18.06a.275.275 0 01.277.213.261.261 0 01-.002.122l-1.748 7.815zM16.7 17.48a1.292 1.292 0 00-.904.364 1.263 1.263 0 001.795 1.782 1.263 1.263 0 00.273-1.372 1.256 1.256 0 00-1.164-.775zM7.01 17.48c-.335-.001-.657.13-.895.364a1.234 1.234 0 00-.365.89c0 .334.132.655.368.892s.556.371.891.374a1.263 1.263 0 001.173-1.748 1.256 1.256 0 00-1.173-.773z" fill="currentColor"/></symbol><symbol fill="none" viewBox="0 0 28 21" id="catalog" xmlns="http://www.w3.org/2000/svg"><path d="M25 18l1.833 1.375" stroke="currentColor" stroke-width="1.5" stroke-linecap="round"/><circle cx="21.375" cy="14.766" r="3.833" stroke="currentColor" stroke-width="1.5"/><path fill-rule="evenodd" clip-rule="evenodd" d="M20.532 1.261C20.248.674 19.544.13 18.944.034 18.8.01 15.471-.004 11.551.001 4.806.005 4.35-.01 3.993.174c-.055.028-.108.06-.181.099-.302.153-.77.65-.936.983-.267.554-.272.592-.272 3.552L2.6 7.5l-.214.181c-.259.22-.574.721-.692 1.108-.048.157-.1.506-.118.768l-.03.482-.167.058c-.223.071-.564.415-.722.73l-.13.253-.014 3.165L.5 17.41l.114.277c.197.472.621.845 1.076.935l.162.034.017.415c.022.477.105.687.342.835a.687.687 0 00.708-.01c.228-.152.298-.352.298-.84v-.41h14.118a5.614 5.614 0 01-1.023-1.48h-4.608c-9.642 0-9.795 0-9.843-.09-.027-.063-.044-1.017-.044-2.774 0-1.756.017-2.711.044-2.773.048-.09.2-.09 9.843-.09h5.164c.44-.595.994-1.099 1.631-1.48H2.897l.027-.306c.043-.492.197-.773.533-.974.123-.076.78-.081 8.181-.09 4.428-.005 8.107.009 8.177.033.279.092.486.316.596.626a5.635 5.635 0 011.383-.067 2.648 2.648 0 00-.093-.426c-.123-.391-.43-.873-.696-1.093l-.197-.162-.004-2.692c0-2.955-.005-2.998-.271-3.547zm-16.296.497a.878.878 0 01.354-.225c.315-.1 13.943-.1 14.24 0a.921.921 0 01.534.525c.075.177.084.358.084 2.611v2.425h-.823l-.017-.85c-.014-.782-.022-.863-.123-1.083-.127-.282-.407-.601-.643-.73-.324-.182-.569-.2-2.463-.2-1.894 0-2.14.018-2.463.2-.236.129-.516.448-.643.73-.1.22-.11.3-.123 1.084l-.017.85h-.858l-.017-.85c-.013-.783-.022-.864-.123-1.084a1.522 1.522 0 00-1.04-.878c-.316-.072-3.811-.072-4.13 0-.456.105-.78.372-1.003.816l-.148.3-.014.846-.017.85h-.822V4.683c0-2.206-.003-2.549.155-2.782.033-.048.072-.09.12-.144zm9.27 4.697c-.008-.41.005-.635.04-.678.074-.1 3.592-.1 3.666 0 .035.043.048.267.04.678l-.014.615H13.52l-.014-.615zm-7.35 0c-.008-.41.005-.635.04-.678.04-.057.363-.067 1.829-.067.975 0 1.802.02 1.833.038.04.034.052.2.044.683l-.014.64H6.17l-.012-.616z" fill="currentColor"/></symbol><symbol fill="none" viewBox="0 0 11 11" id="checkbox" xmlns="http://www.w3.org/2000/svg"><path d="M1 5.5L5.5 10l5-9" stroke="currentColor" stroke-linejoin="round"/></symbol><symbol fill="none" viewBox="0 0 15 15" id="close" xmlns="http://www.w3.org/2000/svg"><path d="M1 1l13 13m0-13L1 14" stroke="currentColor"/></symbol><symbol fill="none" viewBox="0 0 18 18" id="close-banner" xmlns="http://www.w3.org/2000/svg"><circle cx="9" cy="9" r="9" fill="currentColor"/><path d="M9.724 8.752l2.014 2.014-.724.724L9 9.476 6.986 11.49l-.724-.724 2.014-2.014-2.014-2.014.724-.724L9 8.028l2.014-2.014.724.724-2.014 2.014z" fill="currentColor"/></symbol><symbol fill="none" viewBox="0 0 8 8" id="close-sm" xmlns="http://www.w3.org/2000/svg"><path d="M7.12.584A.51.51 0 007 .194a.57.57 0 00-.8 0l-2.64 2.57L1 .164a.57.57 0 00-.8 0 .57.57 0 00-.04.8l3 3a.57.57 0 00.84 0l3-3a.52.52 0 00.12-.38z" fill="currentColor"/><path d="M.003 6.424a.51.51 0 00.12.39.57.57 0 00.8 0l2.64-2.57 2.56 2.6a.57.57 0 00.8 0 .57.57 0 00.04-.8l-3-3a.57.57 0 00-.84 0l-3 3a.52.52 0 00-.12.38z" fill="currentColor"/></symbol><symbol fill="none" viewBox="0 0 15 15" id="comparision" xmlns="http://www.w3.org/2000/svg"><path d="M5.406 14.375a.526.526 0 01-.531-.531V8.177a.532.532 0 111.063 0v5.667a.531.531 0 01-.532.531zM13.906 14.375a.527.527 0 01-.531-.531V4.635a.532.532 0 011.063 0v9.209a.531.531 0 01-.532.531zM9.656 14.375a.526.526 0 01-.531-.531V1.094a.532.532 0 111.063 0v12.75a.531.531 0 01-.532.531zM1.156 14.375a.526.526 0 01-.531-.531V4.635a.532.532 0 111.063 0v9.209a.531.531 0 01-.532.531z" fill="currentColor"/></symbol><symbol fill="none" viewBox="0 0 64 64" id="consultation" xmlns="http://www.w3.org/2000/svg"><g clip-path="url(#anclip0_706_7599)" fill="currentColor"><path d="M62.35 15.861a5.481 5.481 0 00-3.891-1.4H44.387v-2a12.188 12.188 0 00-6.221-10.84 12.363 12.363 0 00-18.003 7.3 24.81 24.81 0 00-.5 3.76c-.03.583-.03 1.168 0 1.75H5.51a5 5 0 00-5.001 2.93 5.7 5.7 0 00-.54 2.41v32.67a5.25 5.25 0 005.46 5.34h13.122v3.85c0 .1-.32.26-.5.27h-3.56v2.11h35.005v-2.07h-3.31c-.62 0-.83-.14-.79-.79.06-1.07 0-2.16 0-3.32h13.062a5.152 5.152 0 005-3c.216-.515.39-1.047.52-1.59v-34.23a5.79 5.79 0 00-1.63-3.15zm-40.007-7.13a10.32 10.32 0 0116.174-4.325 10.32 10.32 0 013.46 5.385c.35 2.017.467 4.067.35 6.11-.74-.15-1.391-.26-2.001-.41a.71.71 0 01-.44-.33c-1.28-2.42-3.38-3.35-6.001-2.39a5.302 5.302 0 01-3.88 0 4.473 4.473 0 00-5.892 2.4.75.75 0 01-.44.34c-.64.15-1.28.26-2 .4.04-2.43-.21-4.84.68-7.18h-.01zm20.003 10.85a2.001 2.001 0 01-2.06 2v-4a1.92 1.92 0 012.03 2h.03zm0 17.62v6.14H21.713v-6.15h-2v6.13h-4.09v-.45-4.31a5.09 5.09 0 013.56-5c1.35-.46 2.74-.81 4.15-1.23 1.08 2.5 2.14 5 3.22 7.49l1.941-1.54c1-.84 2.12-1.67 3.16-2.54a.6.6 0 01.94 0c1.46 1.21 3.001 2.38 4.431 3.56l.68.53 1.62-3.76c.53-1.22 1-2.44 1.6-3.74 1.591.49 3.212.86 4.712 1.49a4.61 4.61 0 012.94 4c.14 1.79 0 3.61 0 5.46h-4.06v-6.12l-2.17.04zm-11.892-3.19l-3.2 2.56-2-4.75c.74-.22 1.41-.43 2.09-.6a.61.61 0 01.48.14c.89.83 1.7 1.7 2.63 2.65zm-1.62-5.69c1.999.77 4.212.77 6.211 0a1.639 1.639 0 01-.48 1.74c-.88.78-1.67 1.66-2.55 2.55l-3-3c-.19-.26-.11-.79-.18-1.32v.03zm7.911 8.25l-3.19-2.55c.94-.94 1.82-1.84 2.73-2.72a.44.44 0 01.38-.1c.7.19 1.39.4 2.12.62-.69 1.56-1.35 3.11-2.07 4.72l.03.03zm-4.75-9.69a6.122 6.122 0 01-5.841-4.34 13.75 13.75 0 01-.34-2.95 18.8 18.8 0 010-2.81 2.449 2.449 0 013.24-2.16c.84.25 1.65.56 2.49.8.273.07.558.07.83 0 .82-.24 1.62-.54 2.441-.78a2.47 2.47 0 013.31 2.21c.06.76 0 1.54 0 2.31h.16a26.995 26.995 0 01-.49 3.38 6.13 6.13 0 01-5.8 4.31v.03zm-8.262-9.22v4a1.932 1.932 0 01-2-1.93 1.998 1.998 0 011.98-2.1l.02.03zm-21.663 2.4a3.16 3.16 0 013.51-3.52h14.003v2.87a4.28 4.28 0 00.83 2.7 4.13 4.13 0 003.41 1.66.79.79 0 01.75.48c.47.802 1.013 1.558 1.62 2.26a1.89 1.89 0 01.64 1.51c-.08 1.45.23 1.08-1.12 1.48-2.3.7-4.62 1.36-7 2a7.16 7.16 0 00-5.311 6.52c-.07 2.43 0 4.87 0 7.35h37.135v-1.13c0-2.08 0-4.17-.08-6.24a7.15 7.15 0 00-5.34-6.5c-2.46-.69-4.911-1.43-7.371-2.11-.53-.15-.73-.38-.66-.9a7.153 7.153 0 010-.81 2.62 2.62 0 01.38-.91c.61-.87 1.27-1.69 1.87-2.56.19-.27.32-.44.7-.45a4.143 4.143 0 004.27-4.38v-2.87H58.43a3.121 3.121 0 013.42 3.36V49.541H18.442a1.9 1.9 0 01-1.14-.34 7.5 7.5 0 00-5.64-1.73c-3.001.16-5.912 0-8.872 0h-.73v-.71l.01-26.7zm56.429 35.71H22.763v2.06h20.563v4.08H20.643v-6.14H5.64c-2.29 0-3.521-1.21-3.531-3.49v-2.68h11.532a1.56 1.56 0 011 .31c1.7 1.51 3.67 1.82 5.92 1.8 13.513-.08 27.005 0 40.557 0h.79a3.22 3.22 0 01-3.41 4.03v.03z"/><path d="M4.17 28.871h13.323v-2H4.171v2zM4.18 22.762v2h13.313v-2H4.18zM17.503 18.64H4.171v2h13.332v-2zM59.839 33.059h-7.121v2h7.16l-.04-2zM52.718 37.191v2h7.16v-2h-7.16zM52.718 43.328h7.16v-2h-7.16v2zM52.718 47.46h7.16v-2h-7.16v2zM4.17 53.629h2v-2h-2v2zM8.291 53.612h2v-1.94h-2v1.94zM12.412 53.621h2v-2h-2v2z"/></g><defs><clipPath id="anclip0_706_7599"><path fill="currentColor" d="M0 0h64v64H0z"/></clipPath></defs></symbol><symbol fill="none" viewBox="0 0 12 2" id="decrement" xmlns="http://www.w3.org/2000/svg"><path d="M1 1h10" stroke="currentColor" stroke-width="1.5" stroke-linecap="square" stroke-linejoin="round"/></symbol><symbol fill="none" viewBox="0 0 64 64" id="eco" xmlns="http://www.w3.org/2000/svg"><g clip-path="url(#apclip0_706_7643)"><path d="M60.857 2.482a.94.94 0 00-1.201-.45 23.15 23.15 0 00-9.099 4.54 11.39 11.39 0 00-4.174 10.55c.08.68.18 1.36.26 1.95-1.4-1.19-2.842-2.37-4.244-3.59a7 7 0 01-1.07-1.23c-1.312-1.92-4.565-7-7.758-9.8-4.003-3.43-8.598-5.11-13.933-4.17-5.855 1-10.71 4-15.154 7.81a1 1 0 00-.22 1.38 35.223 35.223 0 004.364 6.75c1.301 1.54 2.732 3 4.144 4.5l-.19.18c-5.666 5.15-8.238 11.54-7.237 19.12 1.07 8.14 5.565 13.92 13.012 17.22a23.233 23.233 0 0012.682 1.24c9.239-1.93 16.565-9.77 17.296-19.14.64-8.31-2.512-14.94-9.229-19.88l-.46-.36 2.622-2.06c.2.14.38.26.55.4 7.818 6.37 11.181 14.54 9.35 24.49a24.859 24.859 0 01-10.17 16.088 24.903 24.903 0 01-34.68-5.968 24.842 24.842 0 01-4.196-18.56c.12-.78-.12-1.22-.741-1.31-.62-.09-1 .2-1.101 1a25.706 25.706 0 00.35 10.12A26.76 26.76 0 0012.465 59.89a26.806 26.806 0 0020.093 3.46 26.785 26.785 0 0016.71-11.675 26.739 26.739 0 003.641-20.043c-.38-1.7-1-3.35-1.461-5.08 0 0 .29-.11.44-.15a22.8 22.8 0 007.657-4.07 11.143 11.143 0 004.285-7.64c.52-4.47-.901-8.44-2.973-12.21zm-40.688-.39c.14 0 .34.12.5.2.05.045.09.1.12.16l7.307 10-2.002-.37c-1.611-.31-3.223-.61-4.824-.95a1.16 1.16 0 01-.661-.38 525.059 525.059 0 01-5.115-7 3.12 3.12 0 01-.21-.41c1.642-.47 3.253-.86 4.885-1.28v.03zm7.707 12.29l-2.282 1.67c-2.383 1.75-4.775 3.48-7.137 5.24a.821.821 0 01-1 .1 20.835 20.835 0 01-4.525-3.26l.69-.52c2.002-1.49 4.074-3 6.126-4.47.241-.181.54-.27.841-.25 2.332.42 4.654.89 7.007 1.35.097.026.19.063.28.11v.03zM13.522 4.312l4.515 6.16-10.78-2.09a25.406 25.406 0 016.265-4.1v.03zm-1.941 12.46a35.002 35.002 0 01-4.775-6.57l10.86 2.11-6.085 4.46zm1.921 35c-4.794-2.7-8.127-14.27-5.685-19.94.51.93 1.001 1.8 1.471 2.71a4.931 4.931 0 003.374 2.75c2.002.54 2.102.85 1.28 2.76-.52 1.21-1.11 2.37-1.64 3.57a3.856 3.856 0 00.19 4 7.095 7.095 0 011.01 4.14v.01zm32.681-18.58c.043.147.076.298.1.45.42 2.368.42 4.791 0 7.16a19.674 19.674 0 01-5.829 10.76 19.707 19.707 0 01-11.067 5.24c-4.734.51-8.398-.09-13.643-3.16a.71.71 0 01-.4-.81 8.643 8.643 0 00-1-5.6 3.368 3.368 0 010-3.72c.173-.322.324-.657.45-1 .46-1.08 1-2.14 1.33-3.26a2.558 2.558 0 00-1.47-3.26 7.274 7.274 0 00-1.612-.6 3.005 3.005 0 01-2.082-1.69c-.72-1.35-1.531-2.66-2.272-4a.68.68 0 010-.54 19.7 19.7 0 015.685-7.39c1.321.65 2.533 1.37 3.834 1.86 1.301.49 2.642.75 4.004 1.12l-.541.47a7.938 7.938 0 00-2.793 4.94 5.476 5.476 0 002.96 5.775 5.488 5.488 0 002.225.575 30.688 30.688 0 004.575-.39c1.891-.24 2.102-.15 2.182 1.78.11 2.27.06 4.53.17 6.8.036 1.152.204 2.296.5 3.41a2.92 2.92 0 002.737 2.356c.434.02.867-.058 1.267-.226a8.65 8.65 0 006.006-6.5c.114-1.143.05-2.297-.19-3.42-.19-1.84-.27-3.66 1.31-5 1.082-.91 2.273-1.68 3.444-2.54.05.13.09.264.12.4v.01zm-.65-2.38c0 .08.05.16.08.24-1.001.6-1.912 1.18-2.843 1.77a7.002 7.002 0 00-3.343 7.66c.06.42.12.84.19 1.25a6.646 6.646 0 01-4.645 6.84c-.92.21-1.511-.06-1.711-1a18.684 18.684 0 01-.4-3.16c-.09-2.22-.06-4.44-.17-6.66a6.999 6.999 0 00-.531-2.18 2.11 2.11 0 00-2.392-1.39c-1.152.11-2.293.32-3.434.46-.55.073-1.105.116-1.661.13a3.807 3.807 0 01-3.951-3.282 3.796 3.796 0 01.207-1.848 7.381 7.381 0 012.943-3.69c.55-.41 1.111-.8 1.682-1.19.127-.086.27-.143.42-.17 3.7-.587 7.235-1.95 10.37-4a1.002 1.002 0 011.241 0 19.853 19.853 0 017.947 10.21v.01zm-6.737-14.2a29.849 29.849 0 01-11.82 5.89c-2.27.528-4.636.49-6.887-.11l2.002-1.49c2.642-1.93 5.274-3.87 7.917-5.78.242-.179.54-.264.84-.24 2.573.47 5.145 1 7.718 1.49.093.02.183.05.27.09.01.02 0 .11-.04.14v.01zm.45-2c-2.712-.54-5.434-1.06-8.157-1.62a1.051 1.051 0 01-.54-.43 1890 1890 0 01-7.458-10.15c-.1-.13-.17-.28-.3-.49 1.517.009 3.02.293 4.434.84a18.022 18.022 0 015.115 3.09c.11.16 2.753 2.65 4.004 4.21 1.11 1.4 2.002 2.94 3.003 4.41l-.1.14zm12.312-6.41a20.415 20.415 0 016.816-3.83c-1.48 3.55-2.902 6.94-4.384 10.47-.89-2.17-1.721-4.18-2.542-6.2a.469.469 0 01.11-.47v.03zm-1.121 15.2a1.278 1.278 0 01-.15.23c-2.302-4.56-3.003-10.32-.32-13.63.08.124.15.255.21.39.89 2.14 1.781 4.29 2.652 6.44.09.242.09.508 0 .75-.8 1.9-1.621 3.9-2.392 5.82zm10.01-4.64a15.012 15.012 0 01-5.656 4.44c-.83.42-1.691.76-2.542 1.13l-.13-.13c.75-1.79 1.551-3.57 2.232-5.39a2.679 2.679 0 011.721-1.72c2.002-.74 3.944-1.59 6.006-2.43a8.345 8.345 0 01-1.632 4.1zm1.4-6.07c-1.921.82-3.853 1.61-5.945 2.47 1.441-3.42 2.803-6.7 4.224-10.08a20.455 20.455 0 012.002 7.18.55.55 0 01-.3.43h.02z" fill="currentColor"/></g><defs><clipPath id="apclip0_706_7643"><path fill="currentColor" d="M0 0h64v64H0z"/></clipPath></defs></symbol><symbol fill="none" viewBox="0 0 64 64" id="faq" xmlns="http://www.w3.org/2000/svg"><g clip-path="url(#aqclip0_706_7615)" fill="currentColor"><path d="M63.04 12.619a17.622 17.622 0 00-4.913-7.87A17.6 17.6 0 0049.901.47c-.92-.23-1.869-.34-2.808-.5h-5.746a1.71 1.71 0 01-.3.09 18.14 18.14 0 00-11.196 5.224 18.166 18.166 0 00-5.26 11.186 18.014 18.014 0 00.25 5.3c-4.327 0-12.271-.07-16.488 0a8.05 8.05 0 00-6.994 4.13 21.323 21.323 0 00-1.35 3.58v21.25a21.212 21.212 0 001.35 3.57 8.177 8.177 0 006.994 4.15c2.418.1 4.856 0 7.284.05.337.013.659.144.91.37 1.359 1.32 2.678 2.67 3.997 4 .4.39.829.74 1.249 1.11h.75a1.63 1.63 0 00.878-1.7V58.469h11.911c.725.01 1.45-.06 2.158-.21a8.694 8.694 0 006.915-8.57v-13.31a32.696 32.696 0 005.466-.56.8.8 0 01.82.24c1.358 1.38 2.737 2.74 4.096 4.11a1.309 1.309 0 002.368-1v-6.31a1.3 1.3 0 01.46-1 29.278 29.278 0 002.997-3.39 17.198 17.198 0 002.428-15.85zm-21.073 36.74a6.304 6.304 0 01-4.06 6.244 6.29 6.29 0 01-2.605.396h-12.74c-1.109 0-1.569.46-1.579 1.55v2.08c-.999-1-2.068-2-2.997-3a1.84 1.84 0 00-1.45-.68H9.104a6.292 6.292 0 01-6.212-4.047 6.304 6.304 0 01-.403-2.593v-18.39a6.315 6.315 0 014.08-6.282 6.303 6.303 0 012.625-.388H24.94c.187-.003.372-.034.55-.09a18.473 18.473 0 001.928 3.88 17.387 17.387 0 0010.322 7.58 22.76 22.76 0 004.227.71v13.03zm19.355-29.29a14.673 14.673 0 01-5.146 9.75 3.42 3.42 0 00-1.489 3.23c.11 1.08 0 2.19 0 3.48-1-1-1.898-1.88-2.758-2.78a1.708 1.708 0 00-1.908-.51c-2.618.611-5.317.8-7.994.56a14.752 14.752 0 01-9.133-3.39 15.66 15.66 0 01-5.773-14.191 15.666 15.666 0 019.09-12.33 14.489 14.489 0 016.346-1.38 44.572 44.572 0 015.785.26 14.756 14.756 0 019.702 5.72 15.176 15.176 0 013.278 11.58z"/><path d="M34.433 38.769a4.327 4.327 0 00-.62 0H8.334c-.999 0-1.618.47-1.618 1.25s.6 1.24 1.619 1.25h25.48c.206.015.413.015.62 0a1.238 1.238 0 00.772-2.05 1.239 1.239 0 00-.773-.41v-.04zM29.087 45.751H8.364a3.999 3.999 0 00-.49 0 1.24 1.24 0 000 2.46c.206.015.413.015.62 0h20.853a1.238 1.238 0 001.23-1.7 1.39 1.39 0 00-1.49-.76zM7.874 34.23c.206.015.413.015.62 0H25.85c1 0 1.619-.47 1.619-1.25s-.6-1.25-1.61-1.25H8.455a4.27 4.27 0 00-.62 0 1.239 1.239 0 00-.773 2.05c.2.226.474.372.773.41l.04.04zM34.333 45.762a1.27 1.27 0 00-1.219 1.26 1.24 1.24 0 002.115.877 1.24 1.24 0 00.363-.877 1.3 1.3 0 00-1.259-1.26zM46.834 9.3a5.253 5.253 0 00-6.88 2.22 5.263 5.263 0 00-.644 2.55 1.221 1.221 0 001.118 1.197 1.218 1.218 0 001.3-.997c0-.2.07-.41.1-.62a2.75 2.75 0 012.638-2.38 2.776 2.776 0 012.817 2.205 2.782 2.782 0 01-1.688 3.155c-.23.09-.48.15-.71.24a2.269 2.269 0 00-1.548 2.14v2.87c0 .88.49 1.44 1.208 1.46.72.02 1.27-.56 1.29-1.46v-2.06c0-.48.13-.68.59-.84a5.166 5.166 0 003.426-4.62 5.083 5.083 0 00-3.017-5.06zM44.575 25.809a1.228 1.228 0 00-.87 2.1 1.228 1.228 0 101.739-1.74c-.23-.23-.543-.36-.87-.36z"/></g><defs><clipPath id="aqclip0_706_7615"><path fill="currentColor" d="M0 0h64v64H0z"/></clipPath></defs></symbol><symbol fill="none" viewBox="0 0 16 14" id="favourite" xmlns="http://www.w3.org/2000/svg"><path d="M15.438 5.361c0-2.288-1.862-4.736-4.623-4.736A4.24 4.24 0 008 1.638 4.249 4.249 0 005.178.625C2.416.625.563 3.073.563 5.361c0 3.978 5.705 7.351 7.132 7.92.09.057.196.09.305.094a.575.575 0 00.29-.095c1.442-.568 7.148-3.941 7.148-7.919zM8 12.224c-1.236-.59-6.293-3.592-6.293-6.863 0-1.756 1.396-3.643 3.47-3.643.456-.005.907.087 1.32.27.413.183.778.452 1.068.787l.092.05.06.037c.072.025.146.04.222.044a.746.746 0 00.214-.044l.06-.036a.363.363 0 00.092-.051h.038c.29-.333.655-.6 1.066-.781.412-.182.86-.274 1.314-.269 2.083 0 3.479 1.887 3.479 3.643.091 3.264-4.974 6.266-6.202 6.856z" fill="currentColor"/></symbol><symbol viewBox="0 0 20 20" fill="none" id="filter" xmlns="http://www.w3.org/2000/svg"><path d="M16 3h3-3zM1 3h11H1zm7 7h11H8zm-7 0h2-2zm15 7h3-3zM1 17h11H1zM14 5a2 2 0 100-4 2 2 0 000 4zm-8 7a2 2 0 100-4 2 2 0 000 4zm8 7a2 2 0 100-4 2 2 0 000 4z" fill="currentColor"/><path d="M16 3h3M1 3h11m-4 7h11M1 10h2m13 7h3M1 17h11m2-12a2 2 0 100-4 2 2 0 000 4zm-8 7a2 2 0 100-4 2 2 0 000 4v0zm8 7a2 2 0 100-4 2 2 0 000 4z" stroke="currentColor" stroke-width="1.5" stroke-miterlimit="10" stroke-linecap="round" stroke-linejoin="round"/></symbol><symbol fill="none" viewBox="0 0 12 18" id="height" xmlns="http://www.w3.org/2000/svg"><path d="M11.1.188H.6c-.3 0-.6.3-.6.6v16c0 .3.3.6.6.6h10.5c.3 0 .6-.3.6-.6v-16c0-.3-.3-.6-.6-.6zm-.6 16H1.2v-14.8h9.2v1.9H6.7c-.3 0-.6.4-.5.7.1.3.4.6.7.5h3.5v2.2H4.3c-.3.1-.5.3-.6.6 0 .3.2.7.5.7h6.2v1.9H6.7c-.3 0-.6.4-.5.7.1.3.4.6.7.6h3.5v1.9H4.3c-.3 0-.5.3-.5.5 0 .3.2.7.5.7h6.2v1.9z" fill="currentColor"/></symbol><symbol fill="none" viewBox="0 0 10 10" id="increment" xmlns="http://www.w3.org/2000/svg"><path d="M5 0v10M0 4.737h10" stroke="currentColor" stroke-width="1.5" stroke-linejoin="round"/></symbol><symbol fill="none" viewBox="0 0 56 64" id="laboratory" xmlns="http://www.w3.org/2000/svg"><g clip-path="url(#avclip0_706_7630)" fill="currentColor"><path d="M54.263 58.009h-2.235c0-.44 0-.78-.07-1.12-.15-1.71-.22-3.43-.48-5.11a51.8 51.8 0 00-12.282-26.21 2 2 0 01-.37-.64c-.3-.91-.579-1.83-.858-2.75l-.27-.07c.218-.134.421-.288.61-.46l5.428-5.46c.828-.84.838-1.22 0-2.07-.38-.38-.839-.69-1.148-1l4.81-4.82c.229.24.498.55.798.84a.883.883 0 001.247-.01.884.884 0 00-.01-1.25l-1.427-1.38L41.88.369a.87.87 0 00-1.338-.1c-.449.39-.419.88.09 1.38.262.23.539.444.828.64l-4.849 4.85c-.42-.44-.868-1-1.367-1.44a.937.937 0 00-1.457.07c-6.845 6.893-13.7 13.77-20.565 20.63a.908.908 0 00-.288 1.076.91.91 0 00.228.324c.25.3.51.58.649.73-.689.77-1.357 1.48-1.996 2.22-.638.74-.618 1.1 0 1.77l5.388 5.41c.739.74 1.108.74 1.846 0 .739-.74 1.328-1.38 1.996-2.13.21.25.3.39.41.5.997.94 1.237.94 2.155 0 1.696-1.7 3.402-3.4 5.088-5.11.31-.31.59-.64.769-.84.998.34 1.746.59 2.504.89a.847.847 0 01.46.49c.239.89.458 1.79.618 2.7a23.29 23.29 0 01.21 9.1c-.62 2.9-2.086 5.23-5.19 5.72a70.7 70.7 0 01-7.483.39v-2.23H25.585c.748 0 1.058-.3 1.068-1.05v-3.82c0-.8-.3-1.09-1.098-1.09H2.825c-.759 0-1.058.29-1.068 1v3.89c0 .8.29 1.05 1.118 1.06h4.989v2.16a.75.75 0 01-.28.5 7.31 7.31 0 00-2.993 4.29c-.35 1.14-.539 2.33-.818 3.58H1.418c-.798 0-.998.32-.998 1v4.1a.852.852 0 00.908.92h52.885c.928 0 1.197-.27 1.207-1.2v-3.54c.07-.92-.21-1.2-1.157-1.2zm-4.052-.05c-.144.03-.291.05-.439.06H41.79c-.34 0-.609 0-.669-.46a75.709 75.709 0 01-.798-14.87c.143-1.653.416-3.291.818-4.9.203-.752.541-1.46.998-2.09a5.44 5.44 0 011.217-1c3.812 5.46 7.155 17 6.855 23.26zm-7.533-54.05l3.193 3.17-4.56 4.56-3.143-3.14c1.506-1.54 3.033-3.1 4.51-4.59zM18.18 36.099l-4.59-4.6 1.547-1.49 4.64 4.64-1.597 1.45zm10.218-7.2l-5.748 5.79-7.483-7.51 19.447-19.49 7.494 7.5-5.708 5.59a5.21 5.21 0 00-3.811-1 5.983 5.983 0 00-3.443 1.78c-2.045 2.11-2.255 4.32-.748 7.36v-.02zm4.9.66a3.794 3.794 0 01-2.923-1.088 3.811 3.811 0 01-1.129-2.912 3.887 3.887 0 011.096-2.854 3.871 3.871 0 014.34-.84 3.87 3.87 0 012.078 2.239c.176.494.251 1.02.22 1.545a3.737 3.737 0 01-1.004 2.753 3.72 3.72 0 01-2.679 1.177v-.02zm-29.636 16v-2.34h21.303v2.34H3.663zm15.167 1.87v2.06H9.78v-2.06h9.05zm-11.176 5a2.994 2.994 0 012.505-1.19h15.316c.967.01 1.932-.07 2.884-.24 3.752-.77 5.817-3.26 6.666-6.87a22.93 22.93 0 00.07-9c-.21-1.3-.5-2.58-.759-3.94a6.062 6.062 0 004.24-3.78c1.388 1.92 2.705 3.73 3.992 5.59-2.904 1.6-3.442 4.38-3.822 7.17a61.542 61.542 0 00.34 15.5c.09.73.17 1.45.259 2.23H5.728c.112-1.942.78-3.81 1.926-5.38v-.09zm46.04 9.69H2.336v-2.38h51.358v2.38z"/><path d="M33.179 22.7a3.13 3.13 0 00-2.035.938 3.143 3.143 0 00-.89 2.061c.045.72.356 1.399.873 1.902a2.89 2.89 0 001.922.818 3.05 3.05 0 002.1-.896c.558-.559.878-1.313.893-2.104a3.002 3.002 0 00-.921-1.9 2.99 2.99 0 00-1.942-.82zm0 3.94c-.43.07-.898-.5-.879-1a1.001 1.001 0 01.829-1c.429-.07.888.51.878 1.1a1 1 0 01-.858.9h.03z"/></g><defs><clipPath id="avclip0_706_7630"><path fill="currentColor" transform="translate(.5)" d="M0 0h55v64H0z"/></clipPath></defs></symbol><symbol fill="none" viewBox="0 0 13 17" id="location" xmlns="http://www.w3.org/2000/svg"><path d="M5.655.035C3.041.382.97 2.181.232 4.74-.24 6.387.022 8.385.89 9.693c.24.366.188.303 2.855 3.434 1.708 2.007 2.396 2.796 2.477 2.833.14.069.385.069.526 0 .08-.037.766-.822 2.47-2.824 2.652-3.115 2.621-3.074 2.862-3.443.497-.748.807-1.733.875-2.774a6.524 6.524 0 00-1.838-4.989C10.162.945 9 .336 7.594.076c-.331-.06-1.592-.088-1.939-.04zM6.9 1.158c1.664.138 3.068.96 3.997 2.342.519.77.822 1.63.907 2.58.103 1.123-.222 2.374-.83 3.178-.268.357-4.456 5.27-4.49 5.27-.035 0-4.225-4.92-4.488-5.27-.338-.447-.591-1.026-.735-1.673-.353-1.62.116-3.371 1.26-4.676a5.288 5.288 0 013.494-1.748c.428-.037.478-.037.885-.003z" fill="currentColor"/><path d="M6.03 3.338c-1.12.178-2.089.95-2.486 1.983-.344.897-.25 1.96.244 2.758a3.137 3.137 0 002.69 1.523c1.323 0 2.495-.81 2.958-2.045.132-.35.185-.657.185-1.098 0-.713-.17-1.251-.566-1.814a3.095 3.095 0 00-1.23-1.029c-.44-.21-.74-.275-1.263-.288-.24-.003-.478 0-.532.01zm.935 1.185c.55.14 1.048.541 1.298 1.045.291.59.294 1.172.007 1.764a1.966 1.966 0 01-1.786 1.113c-.888 0-1.626-.547-1.911-1.423-.094-.285-.103-.81-.016-1.095.1-.337.266-.606.535-.875.275-.276.566-.444.907-.529.253-.062.726-.062.966 0z" fill="currentColor"/></symbol><symbol fill="none" viewBox="0 0 21 20" id="logo" xmlns="http://www.w3.org/2000/svg"><path d="M8.966.153c-.642.301-1.015 1.103-.836 1.78.365 1.421 2.216 1.672 2.825.385.641-1.38-.65-2.792-1.99-2.165zM14.575 2.202c-1.08.51-1.502 1.772-.958 2.875.747 1.546 2.825 1.555 3.629.025.406-.785.284-1.78-.3-2.424-.61-.66-1.584-.86-2.371-.476zM3.112 3.179c-.503.325-.633 1.128-.26 1.613.618.81 1.77.501 1.982-.519.073-.35-.195-.927-.52-1.128-.325-.192-.877-.184-1.202.034zM17.052 7.255c-1.055.351-1.81 1.246-1.94 2.29-.122.953.187 1.848.836 2.466.569.543 1.015.71 1.835.719.6.008.755-.025 1.153-.226.6-.3 1.218-.995 1.412-1.58.439-1.328-.097-2.758-1.274-3.41-.447-.242-.61-.284-1.17-.309-.357-.008-.738.009-.852.05zM.961 9.147c-.463.267-.609.927-.292 1.337.56.744 1.607.41 1.607-.51 0-.702-.73-1.162-1.315-.827zM14.576 13.986c-.447.209-.893.677-1.072 1.12-.194.493-.154 1.228.114 1.763.763 1.53 2.825 1.546 3.629.017.446-.861.268-1.88-.439-2.541-.64-.593-1.469-.727-2.232-.36zM3.112 14.964c-.503.326-.633 1.128-.26 1.613.618.81 1.77.501 1.982-.519.073-.35-.195-.927-.52-1.128-.325-.192-.877-.184-1.202.034zM9.015 16.968c-.82.334-1.177 1.446-.715 2.256.39.677 1.332.978 1.99.627 1.104-.585 1.112-2.214.024-2.816-.309-.176-.958-.2-1.3-.067z" fill="currentColor"/></symbol><symbol fill="none" viewBox="0 0 64 60" id="marka" xmlns="http://www.w3.org/2000/svg"><g clip-path="url(#ayclip0_706_7638)"><path d="M8.533 60H4.399a4.06 4.06 0 01-3.21-1.192A4.157 4.157 0 010 55.575V22.682a4.156 4.156 0 011.186-3.24A4.06 4.06 0 014.4 18.247h8.5a4.124 4.124 0 013.239 1.208 4.22 4.22 0 011.214 3.26v2.089l1.615-1.715c.563-.578 1.063-1.167 1.647-1.778a31.378 31.378 0 005.727-10.286c.404-1.071.83-2.207 1.265-3.31.542-1.383 1.063-2.83 1.594-4.286A4.471 4.471 0 0130.801.922 4.407 4.407 0 0133.61-.01a7.55 7.55 0 011.934.268c.915.23 1.775.647 2.526 1.224a6.991 6.991 0 011.84 2.13 7.384 7.384 0 01.607 5.743c-.606 2.046-1.233 4.082-1.85 6.128l-.913 2.968-.138.482-.213.804h20.614a5.673 5.673 0 013.53 1.042 5.751 5.751 0 012.166 2.997 5.7 5.7 0 01-.191 3.886 5.638 5.638 0 01-2.636 2.843l-.456.225-.596.289.213.354a5.958 5.958 0 01.638 4.917 6.063 6.063 0 01-1.319 2.216 6.002 6.002 0 01-2.114 1.46l-.34.15.139.342c1.689 4.157.903 6.504-2.901 8.657l-.351.193.212.343a5.685 5.685 0 01.819 4.2 5.54 5.54 0 01-1.871 3.295 5.456 5.456 0 01-3.538 1.301h-7.247c-3.761 0-7.225 0-10.626-.107a22.718 22.718 0 01-10.827-3.214l-1.924-1.071-1.53-.879v2.272a4.221 4.221 0 01-1.214 3.259 4.125 4.125 0 01-3.238 1.209L8.533 60zM4.505 20.486c-1.562 0-2.252.696-2.252 2.26v32.658c0 1.585.69 2.292 2.242 2.292h8.182c1.721 0 2.359-.642 2.359-2.378V22.832c0-1.64-.66-2.314-2.274-2.314H4.505v-.032zM46.35 56.164h3.114a3.322 3.322 0 002.14-.894 3.374 3.374 0 001.047-2.084 3.419 3.419 0 00-.543-2.291 3.37 3.37 0 00-1.89-1.384 4.281 4.281 0 00-1.211-.129h-4.091a1.127 1.127 0 01-.868-.257 1.144 1.144 0 01-.407-.814c0-.686.488-1.125 1.306-1.157h7.045a4.86 4.86 0 001.435-.204 3.353 3.353 0 001.78-1.458 3.399 3.399 0 00.43-2.27 3.33 3.33 0 00-1.072-2.022 3.279 3.279 0 00-2.115-.84h-5.93a1.444 1.444 0 01-1.062-.396 1.075 1.075 0 01-.255-.867c.074-.89.892-1.072 1.37-1.072h8.405c.433.014.865-.03 1.286-.128a3.38 3.38 0 001.871-1.347c.449-.656.655-1.45.584-2.243a3.343 3.343 0 00-1.014-2.145 3.29 3.29 0 00-2.174-.919h-7.077c-1.742 0-1.742-.857-1.753-1.146a.983.983 0 01.266-.729c.416-.327.94-.48 1.466-.429h10.03c.718.01 1.42-.22 1.995-.65a3.3 3.3 0 001.194-1.739 3.239 3.239 0 00-.006-2.1 3.21 3.21 0 00-1.29-1.65 4.592 4.592 0 00-2.307-.632H38.275a2.667 2.667 0 01-1.41-.184 2.69 2.69 0 01-1.119-.882 2.723 2.723 0 01-.287-2.748c.297-.997.605-1.982.913-2.979.68-2.207 1.382-4.49 2.02-6.75a4.838 4.838 0 00-.723-4.157 4.859 4.859 0 00-1.63-1.457 4.816 4.816 0 00-2.1-.59h-.361c-1.18 0-1.711.397-2.19 1.65l-.902 2.38c-.882 2.324-1.775 4.65-2.657 6.985a31.574 31.574 0 01-9.893 13.693 1.54 1.54 0 00-.616 1.317V49.8c-.029.3.038.603.191.863s.384.465.66.584c.807.428 1.604.889 2.4 1.36l1.148.665a22.47 22.47 0 0011.083 3.042H46.33l.021-.15z" fill="currentColor"/></g><defs><clipPath id="ayclip0_706_7638"><path fill="currentColor" d="M0 0h64v60H0z"/></clipPath></defs></symbol><symbol fill="none" viewBox="0 0 16 16" id="menu-call" xmlns="http://www.w3.org/2000/svg"><path d="M13.166 10.394a1.844 1.844 0 00-2.606 0l-.72.753a10.014 10.014 0 01-4.981-4.96l.68-.68a1.866 1.866 0 00.065-2.667l-.958-.966a2.262 2.262 0 00-3.187 0l-.532.532a3.273 3.273 0 00-.869 2.897 14.434 14.434 0 003.828 6.816 14.454 14.454 0 006.822 3.824c.208.035.42.054.63.057a3.205 3.205 0 002.27-.925l.532-.532a2.242 2.242 0 000-3.183l-.974-.966zm.09 3.274l-.533.532a1.991 1.991 0 01-1.802.523 13.234 13.234 0 01-6.17-3.48 13.214 13.214 0 01-3.488-6.16 2.01 2.01 0 01.532-1.801l.533-.54a1.016 1.016 0 01.72-.295c.273 0 .534.106.73.295l.958.965a.647.647 0 01-.065.933l-.68.68a1.228 1.228 0 00-.263 1.342 11.2 11.2 0 005.62 5.606 1.213 1.213 0 001.327-.253l.754-.754a.614.614 0 01.868 0l.959.958a1.013 1.013 0 010 1.449zM10.708 5.303a2.58 2.58 0 01.77 1.891.614.614 0 00.606.622.614.614 0 00.615-.606 3.842 3.842 0 00-2.403-3.622 3.853 3.853 0 00-1.505-.282.615.615 0 00-.606.622.582.582 0 00.622.606c.71 0 1.391.277 1.901.77z" fill="currentColor"/><path d="M13.895 2.112A7.16 7.16 0 008.807 0a.615.615 0 000 1.228c1.583.002 3.1.631 4.218 1.75a5.964 5.964 0 011.746 4.216.613.613 0 001.229 0 7.124 7.124 0 00-2.105-5.082z" fill="currentColor"/></symbol><symbol fill="none" viewBox="0 0 20 20" id="personal-account" xmlns="http://www.w3.org/2000/svg"><path d="M10 9.708a4.85 4.85 0 004.482-2.997A4.856 4.856 0 0010.946.093a4.849 4.849 0 00-5.797 4.76A4.865 4.865 0 0010 9.709zm0-8.21a3.312 3.312 0 013.25 3.961 3.316 3.316 0 01-2.604 2.605 3.311 3.311 0 01-3.959-3.251A3.326 3.326 0 0110 1.539V1.5zM10 11.288c-4.913 0-10 2.206-10 5.89v1.026A1.796 1.796 0 001.795 20h16.41A1.794 1.794 0 0020 18.204v-1.026c0-3.715-5.077-5.89-10-5.89zm8.462 6.916a.257.257 0 01-.257.257H1.795a.256.256 0 01-.257-.257v-1.026c0-2.596 4.38-4.35 8.462-4.35s8.462 1.754 8.462 4.35v1.026z" fill="currentColor"/></symbol><symbol fill="none" viewBox="0 0 18 19" id="phone" xmlns="http://www.w3.org/2000/svg"><path d="M14.812 11.7a2.074 2.074 0 00-2.93 0l-.812.847a11.27 11.27 0 01-5.603-5.583l.765-.764a2.1 2.1 0 00.073-3.003L5.227 2.11a2.544 2.544 0 00-3.585 0l-.6.598A3.684 3.684 0 00.067 5.97a16.248 16.248 0 0011.981 11.976c.235.04.472.06.71.064a3.604 3.604 0 002.553-1.04l.6-.6a2.523 2.523 0 000-3.583l-1.098-1.087zm.102 3.684l-.6.599a2.24 2.24 0 01-2.027.589A14.886 14.886 0 011.421 5.72a2.264 2.264 0 01.599-2.027l.599-.608a1.143 1.143 0 01.81-.332c.307 0 .601.12.821.332l1.078 1.087a.729.729 0 01-.073 1.05l-.765.765a1.382 1.382 0 00-.295 1.51 12.605 12.605 0 006.322 6.31 1.365 1.365 0 001.494-.285l.847-.848a.691.691 0 01.977 0l1.079 1.079a1.14 1.14 0 010 1.63zM12.047 5.97a2.903 2.903 0 01.867 2.127.69.69 0 00.682.7.691.691 0 00.691-.681 4.328 4.328 0 00-4.396-4.394.692.692 0 00-.682.7.655.655 0 00.7.681 3.08 3.08 0 012.138.866z" fill="currentColor"/><path d="M15.633 2.377A8.056 8.056 0 009.909 0a.692.692 0 000 1.382 6.72 6.72 0 016.71 6.715.69.69 0 001.382 0 8.02 8.02 0 00-2.368-5.72z" fill="currentColor"/></symbol><symbol fill="none" viewBox="0 0 22 22" id="sale" xmlns="http://www.w3.org/2000/svg"><path d="M21.116 8.849L20.089 7.82a1.459 1.459 0 01-.431-1.027V5.325a3.01 3.01 0 00-3.009-3.01h-1.468a1.519 1.519 0 01-1.026-.432L13.128.856a3.08 3.08 0 00-4.261 0L7.84 1.883a1.519 1.519 0 01-1.026.432H5.345a3.018 3.018 0 00-3.018 3.01v1.47a1.449 1.449 0 01-.421 1.026L.879 8.85a3.01 3.01 0 000 4.253l1.027 1.027a1.45 1.45 0 01.42 1.028v1.479a3.021 3.021 0 003.02 3.01h2.053l1.468 1.47a3.007 3.007 0 004.26 0l1.028-1.028a1.478 1.478 0 011.026-.432h1.468a3.007 3.007 0 003.009-3.01v-1.48a1.46 1.46 0 01.431-1.027l1.027-1.027a3.01 3.01 0 000-4.263zm-1.089 3.164l-1.026 1.027a3 3 0 00-.883 2.127v1.48a1.47 1.47 0 01-1.469 1.468h-1.468a2.956 2.956 0 00-2.125.884l-1.027 1.027a1.509 1.509 0 01-2.053 0l-1.694-1.695a.77.77 0 00-.544-.226H5.345a1.478 1.478 0 01-1.478-1.47v-1.478a2.991 2.991 0 00-.873-2.127l-1.026-1.027a1.46 1.46 0 010-2.055l1.026-1.027a2.99 2.99 0 00.873-2.127V5.325a1.48 1.48 0 011.478-1.47h1.469a2.997 2.997 0 002.125-.883l1.027-1.027a1.509 1.509 0 012.053 0l1.027 1.027a3 3 0 002.125.884h1.468a1.468 1.468 0 011.468 1.469v1.47a3.001 3.001 0 00.883 2.126l1.027 1.027a1.49 1.49 0 010 2.055l.01.01z" fill="currentColor"/><path d="M13.61 12.527a1.15 1.15 0 100 2.299 1.15 1.15 0 000-2.3zM8.261 9.424a1.15 1.15 0 00.813-1.964 1.15 1.15 0 10-1.626 1.627c.216.216.508.337.813.337zM13.487 7.349l-6.16 6.164a.77.77 0 000 1.089c.147.14.341.221.544.226a.77.77 0 00.544-.226l6.16-6.164a.771.771 0 00-1.088-1.09z" fill="currentColor"/></symbol><symbol fill="none" viewBox="0 0 44 24" id="sale-lable" xmlns="http://www.w3.org/2000/svg"><g clip-path="url(#bdclip0_1118_7135)"><path d="M8.57 22.58l-7.15-7.15a4.86 4.86 0 010-6.86l7.15-7.15A4.86 4.86 0 0112 0h27.43a4.85 4.85 0 014.85 4.84v14.3A4.851 4.851 0 0139.43 24H12a4.86 4.86 0 01-3.43-1.42z" fill="currentColor"/></g><defs><clipPath id="bdclip0_1118_7135"><path fill="currentColor" d="M0 0h44v24H0z"/></clipPath></defs></symbol><symbol fill="none" viewBox="0 0 16 16" id="search" xmlns="http://www.w3.org/2000/svg"><path d="M15.776 14.658l-2.906-2.89a6.976 6.976 0 001.66-4.542c0-1.43-.425-2.826-1.224-4.015A7.257 7.257 0 0010.046.55 7.302 7.302 0 005.848.139a7.278 7.278 0 00-3.72 1.977 7.214 7.214 0 00-1.988 3.7 7.19 7.19 0 00.413 4.175 7.235 7.235 0 002.676 3.243 7.293 7.293 0 004.036 1.218 7.53 7.53 0 004.463-1.549l2.906 2.89c.104.207.312.207.52.207a.791.791 0 00.518-.207.733.733 0 00.104-1.135zm-8.51-1.755a5.73 5.73 0 01-3.172-.957A5.684 5.684 0 011.99 9.4 5.649 5.649 0 013.23 3.21a5.738 5.738 0 016.221-1.23 5.702 5.702 0 012.562 2.09c.627.934.962 2.032.962 3.155a5.713 5.713 0 01-1.687 4 5.776 5.776 0 01-4.022 1.677z" fill="currentColor"/></symbol><symbol fill="none" viewBox="0 0 5 9" id="slider-arrow-left" xmlns="http://www.w3.org/2000/svg"><path d="M4.291.008a.633.633 0 01.474.202.735.735 0 01.199.505c0 .189-.072.37-.2.505L1.647 4.502 4.8 7.783A.735.735 0 015 8.288c0 .19-.071.37-.199.505a.667.667 0 01-.48.206.667.667 0 01-.479-.206L.202 5.006a.735.735 0 01-.2-.504c0-.19.072-.37.2-.505L3.842.21a.655.655 0 01.45-.202z" fill="currentColor"/></symbol><symbol fill="none" viewBox="0 0 5 9" id="slider-arrow-right" xmlns="http://www.w3.org/2000/svg"><path d="M.709 8.992a.633.633 0 01-.474-.202.735.735 0 01-.199-.505c0-.189.072-.37.2-.505l3.118-3.282L.2 1.217A.735.735 0 010 .712c0-.19.071-.37.199-.505A.667.667 0 01.679 0c.179 0 .351.074.479.206l3.64 3.787a.735.735 0 01.2.504c0 .19-.072.37-.2.505L1.158 8.79a.655.655 0 01-.45.202z" fill="currentColor"/></symbol><symbol fill="none" viewBox="0 0 16 16" id="store" xmlns="http://www.w3.org/2000/svg"><g clip-path="url(#bhclip0_1020_15564)"><path d="M1.716.569c-.091.06-.194.247-.66 1.165L.5 2.828l.01 1.188c.009 1.303.012 1.312.218 1.796.135.31.303.56.563.832l.209.222V14.5h-1v1h15v-1h-1V6.856l.144-.137c.303-.297.572-.71.7-1.082.144-.409.156-.553.153-1.709v-1.1l-.553-1.094c-.466-.921-.569-1.106-.66-1.165L14.178.5H1.822l-.106.069zm12.2 1.415c.13.266.24.491.24.5 0 .01-2.769.016-6.156.016-3.388 0-6.156-.006-6.156-.016 0-.009.11-.234.24-.5l.244-.484h11.344l.244.484zm-8.76 2.21c0 .812-.031 1.012-.215 1.384a1.8 1.8 0 01-2.213.89c-.547-.19-.987-.668-1.156-1.25-.034-.127-.053-.371-.063-.946L1.494 3.5h3.662v.694zm4.657-.006c0 .375-.016.759-.035.85-.131.64-.681 1.212-1.328 1.384a2.183 2.183 0 01-.9 0c-.503-.135-.95-.5-1.169-.956a2.43 2.43 0 01-.16-.429c-.018-.09-.034-.474-.034-.85V3.5h3.626v.688zm4.678.021c-.013.507-.032.766-.066.891a1.87 1.87 0 01-1.3 1.319c-.203.062-.64.069-.863.015-.668-.159-1.228-.74-1.371-1.418-.032-.15-.047-.42-.047-.87V3.5h3.665l-.018.71zM6.016 6.706c.537.528 1.206.797 1.984.797.578 0 1.047-.131 1.525-.428.228-.144.578-.463.728-.66l.075-.103.16.188c.425.49.99.831 1.58.95.3.063.907.063 1.182.003.113-.025.213-.044.228-.047.013 0 .022 1.597.022 3.547V14.5h-3v-1.887c0-1.766-.003-1.9-.06-2.079a1.527 1.527 0 00-1-.984c-.143-.04-.374-.05-1.443-.05-1.163 0-1.29.006-1.463.06-.459.143-.85.537-.984 1-.044.146-.05.428-.05 2.056V14.5h-3v-3.547c0-1.95.01-3.547.025-3.547.013.003.113.022.225.047.275.06.881.06 1.181-.003.59-.119 1.157-.46 1.582-.953l.159-.184.06.084c.034.05.162.187.284.31zm3.2 3.872a.513.513 0 01.253.347c.015.066.031.9.031 1.847V14.5H6.497l.01-1.806c.009-1.738.012-1.807.071-1.91a.534.534 0 01.331-.253c.06-.015.579-.025 1.154-.022.984.007 1.053.01 1.153.07z" fill="currentColor"/></g><defs><clipPath id="bhclip0_1020_15564"><path fill="currentColor" d="M0 0h16v16H0z"/></clipPath></defs></symbol><symbol fill="none" viewBox="0 0 25 25" id="total" xmlns="http://www.w3.org/2000/svg"><path d="M9.281 12.525a.975.975 0 00-.962.963v5.042a.962.962 0 101.925 0v-5.042a.962.962 0 00-.963-.963z" fill="currentColor"/><path d="M25 9.33A9.275 9.275 0 0017.018.09 9.278 9.278 0 006.792 6.766 9.29 9.29 0 00.322 18.14a9.289 9.289 0 0017.916.07A9.316 9.316 0 0025 9.33zM9.28 23.124a7.379 7.379 0 01-7.236-8.817 7.377 7.377 0 0113.371-2.659 7.376 7.376 0 011.244 4.099 7.39 7.39 0 01-7.379 7.377zm9.29-7.005v-.372A9.314 9.314 0 009.27 6.444h-.36a7.365 7.365 0 119.65 9.648l.012.026z" fill="currentColor"/></symbol><symbol fill="none" viewBox="0 0 17 19" id="weight" xmlns="http://www.w3.org/2000/svg"><path d="M7.73 9.813a.62.62 0 01-.32-.09L.3 5.483a.6.6 0 01-.3-.53.62.62 0 01.3-.54L7.41.173a.66.66 0 01.64 0l7.11 4.24a.63.63 0 01.31.54.61.61 0 01-.31.53l-7.11 4.24a.59.59 0 01-.32.09zm-5.89-4.86l5.89 3.5 5.89-3.5-5.89-3.51-5.89 3.51z" fill="currentColor"/><path d="M7.73 13.572a.62.62 0 01-.32-.09L.3 9.252a.63.63 0 01.64-1.08l6.79 4 6.8-4a.63.63 0 01.63 1.08l-7.11 4.23a.59.59 0 01-.32.09z" fill="currentColor"/><path d="M7.73 17.345a.62.62 0 01-.32-.09L.3 13.015a.62.62 0 01-.21-.85.61.61 0 01.85-.22l6.79 4 6.8-4a.62.62 0 01.63 1.07l-7.11 4.24a.59.59 0 01-.32.09z" fill="currentColor"/></symbol></svg>