<svg width="40" height="40" viewBox="0 0 40 40" fill="none" xmlns="http://www.w3.org/2000/svg">
<path fill-rule="evenodd" clip-rule="evenodd" d="M18.1581 11.042C16.3267 11.2293 14.629 12.0399 13.314 13.3548C12.4013 14.2675 11.7846 15.2631 11.3915 16.4585C10.8695 18.0462 10.8695 19.6949 11.3915 21.2825C11.7864 22.4835 12.4052 23.4803 13.3216 24.392C15.1308 26.1917 17.5983 27.0081 20.1428 26.6488C21.4524 26.464 22.7652 25.9243 23.7952 25.1476C23.9064 25.0637 24.0092 24.9995 24.0236 25.0049C24.0379 25.0103 25.1617 26.1091 26.5208 27.4465C28.0675 28.9685 29.0438 29.9022 29.1304 29.9422C29.495 30.1107 29.9027 29.8953 29.9784 29.4941C30.0373 29.1822 30.244 29.4054 26.1801 25.3911L24.9092 24.1356L25.1263 23.8837C26.0518 22.8102 26.6655 21.4523 26.8971 19.9657C26.9874 19.3862 26.9879 18.3231 26.8982 17.7382C26.6368 16.0329 25.8901 14.5732 24.6454 13.3338C22.9413 11.637 20.5615 10.7963 18.1581 11.042ZM19.9341 12.2831C21.4347 12.5039 22.7505 13.157 23.7919 14.1981C25.0696 15.4755 25.7322 17.071 25.7322 18.8705C25.7322 19.5339 25.6749 19.9913 25.5195 20.5686C24.7321 23.4941 22.0648 25.516 18.9928 25.516C17.1642 25.516 15.4653 24.8199 14.1976 23.5513C13.3365 22.6895 12.7593 21.6946 12.4503 20.5397C12.1758 19.5138 12.1758 18.2273 12.4503 17.2013C13.0721 14.877 14.9168 13.0453 17.2412 12.4442C18.0862 12.2257 19.1223 12.1637 19.9341 12.2831Z" fill="#212121"/>
<path d="M18.632 19.654H16V18.674H18.632V16H19.682V18.674H22.356V19.654H19.682V22.356H18.632V19.654Z" fill="#212121"/>
<rect x="0.5" y="0.5" width="39" height="39" rx="19.5" stroke="#212121"/>
</svg>
