<svg width="19" height="19" viewBox="0 0 19 19" fill="none" xmlns="http://www.w3.org/2000/svg">
<path fill-rule="evenodd" clip-rule="evenodd" d="M7.15811 0.0420349C5.32671 0.229333 3.62901 1.03989 2.31397 2.35484C1.40125 3.26754 0.784617 4.26306 0.391529 5.45854C-0.13051 7.04617 -0.13051 8.69492 0.391529 10.2825C0.786398 11.4835 1.40515 12.4803 2.32161 13.392C4.13083 15.1917 6.59831 16.0081 9.14284 15.6488C10.4524 15.464 11.7652 14.9243 12.7952 14.1476C12.9064 14.0637 13.0092 13.9995 13.0236 14.0049C13.0379 14.0103 14.1617 15.1091 15.5208 16.4465C17.0675 17.9685 18.0438 18.9022 18.1304 18.9422C18.495 19.1107 18.9027 18.8953 18.9784 18.4941C19.0373 18.1822 19.244 18.4054 15.1801 14.3911L13.9092 13.1356L14.1263 12.8837C15.0518 11.8102 15.6655 10.4523 15.8971 8.96575C15.9874 8.38622 15.9879 7.32314 15.8982 6.73822C15.6368 5.03293 14.8901 3.57323 13.6454 2.33379C11.9413 0.637008 9.56146 -0.203736 7.15811 0.0420349ZM8.93406 1.28306C10.4347 1.50385 11.7505 2.157 12.7919 3.19815C14.0696 4.47546 14.7322 6.07096 14.7322 7.87055C14.7322 8.53387 14.6749 8.99126 14.5195 9.56856C13.7321 12.4941 11.0648 14.516 7.99281 14.516C6.16416 14.516 4.4653 13.8199 3.1976 12.5513C2.33649 11.6895 1.75925 10.6946 1.45026 9.53975C1.17581 8.51379 1.17581 7.22731 1.45026 6.20134C2.07209 3.87703 3.91681 2.04532 6.24121 1.44419C7.08622 1.22567 8.12232 1.16367 8.93406 1.28306Z" fill="#212121"/>
<path d="M7.632 8.65402H5V7.67402H7.632V5.00001H8.682V7.67402H11.356V8.65402H8.682V11.356H7.632V8.65402Z" fill="#212121"/>
</svg>
