<svg width="64" height="64" viewBox="0 0 64 64" fill="none" xmlns="http://www.w3.org/2000/svg">
<g clip-path="url(#clip0_706_7615)">
<path d="M63.0405 12.6187C62.1348 9.60333 60.4383 6.88587 58.1274 4.74908C55.8166 2.6123 52.9759 1.13427 49.9007 0.46875C48.9814 0.23875 48.0322 0.12875 47.093 -0.03125H41.3475C41.2505 0.00786428 41.1501 0.037987 41.0476 0.0587463C36.8198 0.435883 32.8579 2.28434 29.8511 5.28256C26.8442 8.28079 24.9828 12.239 24.5905 16.4688C24.4117 18.2381 24.4959 20.0241 24.8403 21.7687C20.5137 21.7687 12.5699 21.6987 8.35322 21.7687C6.92628 21.7753 5.52667 22.1612 4.29768 22.8868C3.06868 23.6125 2.05445 24.6519 1.35869 25.8987C0.802687 27.0492 0.351244 28.2474 0.00976562 29.4788V50.7288C0.351245 51.9569 0.802699 53.1517 1.35869 54.2987C2.06133 55.5412 3.07658 56.5779 4.30365 57.306C5.53072 58.034 6.92687 58.428 8.35322 58.4488C10.7713 58.5488 13.2093 58.4487 15.6374 58.4987C15.9743 58.5124 16.2959 58.6433 16.5468 58.8687C17.9057 60.1887 19.2247 61.5387 20.5436 62.8687C20.9433 63.2587 21.373 63.6088 21.7927 63.9788H22.5421C22.8491 63.8244 23.0994 63.5769 23.2573 63.2715C23.4153 62.9662 23.4727 62.6187 23.4214 62.2787C23.4214 61.5687 23.4214 60.8587 23.4214 60.1487V58.4688C27.4183 58.4688 31.4152 58.4688 35.3321 58.4688C36.0571 58.4792 36.7811 58.4088 37.4905 58.2588C39.455 57.8498 41.2172 56.7726 42.4778 55.2102C43.7384 53.6479 44.4194 51.6968 44.405 49.6888C44.405 46.9788 44.405 39.2388 44.405 36.3788C46.2394 36.3458 48.0677 36.1585 49.8707 35.8188C50.016 35.7772 50.1702 35.7777 50.3152 35.8201C50.4602 35.8626 50.5902 35.9453 50.6901 36.0587C52.0491 37.4387 53.428 38.7988 54.7869 40.1688C54.9561 40.4215 55.2081 40.6075 55.4994 40.6946C55.7907 40.7818 56.1031 40.7648 56.3832 40.6465C56.6633 40.5282 56.8936 40.3161 57.0344 40.0464C57.1753 39.7768 57.2179 39.4665 57.1551 39.1688C57.1551 37.0688 57.1551 34.9588 57.1551 32.8588C57.1539 32.6686 57.1944 32.4804 57.2739 32.3076C57.3533 32.1349 57.4696 31.9817 57.6147 31.8588C58.6998 30.8079 59.702 29.6745 60.6123 28.4688C62.2737 26.2232 63.3631 23.6063 63.7862 20.8445C64.2093 18.0826 63.9534 15.2592 63.0405 12.6187ZM41.967 49.3588C42.0165 50.2463 41.8778 51.1343 41.5599 51.9644C41.2421 52.7945 40.7525 53.5479 40.123 54.175C39.4935 54.8022 38.7384 55.2889 37.9075 55.6032C37.0767 55.9175 36.1888 56.0523 35.3021 55.9987H22.5621C21.453 55.9987 20.9934 56.4587 20.9834 57.5487V59.6288C19.9841 58.6288 18.915 57.6288 17.9857 56.6288C17.811 56.4135 17.5899 56.2405 17.339 56.1227C17.0881 56.005 16.8139 55.9455 16.5368 55.9488C14.0587 55.9488 11.5407 55.9488 9.10264 55.9488C8.22007 55.995 7.33758 55.8548 6.51274 55.5372C5.68791 55.2196 4.93922 54.7318 4.31524 54.1054C3.69126 53.4791 3.20603 52.7283 2.89118 51.9018C2.57633 51.0754 2.4389 50.1919 2.48781 49.3087V30.9188C2.4349 30.0256 2.5724 29.1313 2.89118 28.2954C3.20997 27.4595 3.70276 26.701 4.33683 26.0702C4.9709 25.4394 5.73168 24.9508 6.56885 24.6367C7.40602 24.3227 8.30039 24.1905 9.19253 24.2487H24.9402C25.1268 24.2457 25.312 24.2153 25.4899 24.1588C25.9783 25.5233 26.6255 26.8256 27.4183 28.0388C29.7703 31.7874 33.4615 34.498 37.7403 35.6187C39.1238 35.9878 40.5389 36.2255 41.967 36.3287C41.967 36.3287 41.967 36.3888 41.967 36.4088V49.3588ZM61.3218 20.0688C60.9387 23.8648 59.0928 27.3621 56.1758 29.8188C55.6555 30.1687 55.2414 30.6551 54.9788 31.2248C54.7162 31.7945 54.6153 32.4255 54.687 33.0487C54.7969 34.1287 54.687 35.2387 54.687 36.5287C53.6878 35.5287 52.7885 34.6488 51.9292 33.7487C51.703 33.4764 51.3978 33.2811 51.0559 33.1898C50.7141 33.0984 50.3523 33.1155 50.0206 33.2387C47.4028 33.8502 44.7042 34.0393 42.0269 33.7987C38.687 33.7357 35.4672 32.5406 32.894 30.4088C30.7975 28.7364 29.1656 26.5531 28.1546 24.0681C27.1437 21.5831 26.7876 18.8799 27.1207 16.2176C27.4537 13.5554 28.4646 11.0234 30.0565 8.8645C31.6483 6.70563 33.7678 4.99228 36.2115 3.88876C38.195 2.95462 40.3644 2.48276 42.5565 2.50874C44.4886 2.4699 46.4212 2.55675 48.342 2.76875C52.2044 3.31716 55.6927 5.37369 58.0444 8.48874C59.3512 10.0931 60.316 11.9481 60.8797 13.9395C61.4433 15.931 61.5938 18.0169 61.3218 20.0688Z" fill="#00B9C0"/>
<path d="M34.4332 38.7689C34.2269 38.7541 34.0199 38.7541 33.8137 38.7689H8.33357C7.33435 38.7689 6.71484 39.2389 6.71484 40.0189C6.71484 40.7989 7.31437 41.2589 8.33357 41.2689H33.8137C34.0199 41.2837 34.2269 41.2837 34.4332 41.2689C34.7322 41.2307 35.007 41.0847 35.2061 40.8583C35.4053 40.6319 35.5152 40.3406 35.5152 40.0389C35.5152 39.7373 35.4053 39.446 35.2061 39.2196C35.007 38.9932 34.7322 38.8472 34.4332 38.8089V38.7689Z" fill="#00B9C0"/>
<path d="M29.0874 45.7514H8.36364C8.20059 45.7414 8.03709 45.7414 7.87403 45.7514C7.57505 45.7897 7.30024 45.9357 7.10108 46.1621C6.90191 46.3885 6.79199 46.6798 6.79199 46.9815C6.79199 47.2831 6.90191 47.5744 7.10108 47.8008C7.30024 48.0272 7.57505 48.1732 7.87403 48.2114C8.08027 48.2262 8.2873 48.2262 8.49354 48.2114H26.5994C27.5187 48.2114 28.428 48.2114 29.3472 48.2114C29.5562 48.2249 29.7651 48.1851 29.9546 48.0958C30.144 48.0065 30.3078 47.8707 30.4305 47.7009C30.5533 47.5311 30.631 47.3329 30.6565 47.1249C30.682 46.9169 30.6544 46.7059 30.5763 46.5114C30.4442 46.2402 30.2274 46.0193 29.9588 45.8822C29.6902 45.7451 29.3844 45.6992 29.0874 45.7514Z" fill="#00B9C0"/>
<path d="M7.874 34.23C8.08023 34.2451 8.28728 34.2451 8.49351 34.23H25.8499C26.8492 34.23 27.4687 33.76 27.4687 32.98C27.4687 32.2 26.8692 31.73 25.8599 31.73H8.4535C8.24727 31.715 8.04023 31.715 7.83399 31.73C7.53501 31.7682 7.26021 31.9142 7.06104 32.1406C6.86187 32.367 6.75195 32.6583 6.75195 32.96C6.75195 33.2616 6.86187 33.5529 7.06104 33.7793C7.26021 34.0058 7.53501 34.1518 7.83399 34.19L7.874 34.23Z" fill="#00B9C0"/>
<path d="M34.3333 45.7617C34.0072 45.7746 33.6985 45.9127 33.4715 46.1473C33.2445 46.382 33.1166 46.6951 33.1143 47.0217C33.1143 47.3506 33.2448 47.666 33.4771 47.8985C33.7095 48.1311 34.0247 48.2617 34.3533 48.2617C34.6819 48.2617 34.9969 48.1311 35.2293 47.8985C35.4617 47.666 35.5923 47.3506 35.5923 47.0217C35.5823 46.6907 35.4463 46.376 35.2123 46.1419C34.9784 45.9077 34.664 45.7718 34.3333 45.7617Z" fill="#00B9C0"/>
<path d="M46.8338 9.30021C46.0307 8.91569 45.1431 8.74165 44.2544 8.79438C43.3657 8.84711 42.505 9.1249 41.7529 9.60169C41.0008 10.0785 40.3821 10.7386 39.9548 11.5202C39.5274 12.3018 39.3054 13.1793 39.3096 14.0702C39.3144 14.373 39.4315 14.6633 39.6382 14.8845C39.845 15.1056 40.1265 15.242 40.4281 15.2669C40.7297 15.2919 41.0298 15.2036 41.27 15.0194C41.5102 14.8352 41.6734 14.5681 41.7278 14.2702C41.7278 14.0702 41.7977 13.8602 41.8277 13.6502C41.9149 13.0053 42.2278 12.4122 42.7108 11.9764C43.1938 11.5406 43.8156 11.2904 44.4656 11.2702C45.1194 11.2469 45.7604 11.4553 46.2757 11.8586C46.7911 12.2619 47.1477 12.8343 47.2826 13.475C47.4176 14.1156 47.3222 14.7834 47.0134 15.3606C46.7047 15.9378 46.2023 16.3874 45.5948 16.6302C45.3649 16.7202 45.1151 16.7802 44.8852 16.8702C44.4362 17.0205 44.0454 17.3077 43.7677 17.6914C43.4899 18.0752 43.3392 18.5364 43.3365 19.0102C43.3365 19.4802 43.3365 19.9602 43.3365 20.4402V21.8802C43.3365 22.7602 43.8261 23.3202 44.5455 23.3402C45.265 23.3602 45.8146 22.7802 45.8346 21.8802C45.8346 21.1902 45.8346 20.5002 45.8346 19.8202C45.8346 19.3402 45.9644 19.1402 46.4241 18.9802C47.3884 18.6366 48.2291 18.0141 48.8393 17.1915C49.4495 16.3689 49.8018 15.3835 49.8514 14.3602C49.9364 13.3075 49.6914 12.2545 49.1506 11.3476C48.6097 10.4407 47.7999 9.72505 46.8338 9.30021Z" fill="#00B9C0"/>
<path d="M44.5747 25.8086C44.2488 25.8086 43.9361 25.9382 43.7057 26.1689C43.4752 26.3995 43.3457 26.7124 43.3457 27.0386C43.3457 27.3648 43.4752 27.6777 43.7057 27.9083C43.9361 28.139 44.2488 28.2686 44.5747 28.2686C44.9007 28.2686 45.2133 28.139 45.4438 27.9083C45.6743 27.6777 45.8037 27.3648 45.8037 27.0386C45.8037 26.7124 45.6743 26.3995 45.4438 26.1689C45.2133 25.9382 44.9007 25.8086 44.5747 25.8086Z" fill="#00B9C0"/>
</g>
<defs>
<clipPath id="clip0_706_7615">
<rect width="64" height="64" fill="white"/>
</clipPath>
</defs>
</svg>
