<svg width="64" height="60" viewBox="0 0 64 60" fill="none" xmlns="http://www.w3.org/2000/svg">
<g clip-path="url(#clip0_706_7638)">
<path d="M8.53256 60.0001H4.39906C3.81052 60.0466 3.21891 59.9642 2.66495 59.7584C2.11099 59.5527 1.60782 59.2285 1.18987 58.8081C0.771932 58.3877 0.449167 57.881 0.243762 57.323C0.0383568 56.7649 -0.0448371 56.1686 -9.48329e-05 55.5751V22.6822C-0.0464562 22.0878 0.0354481 21.4904 0.24013 20.931C0.444812 20.3716 0.767337 19.8636 1.18546 19.442C1.60359 19.0204 2.10746 18.6952 2.66223 18.4888C3.21699 18.2824 3.80956 18.1998 4.39906 18.2465H12.8998C13.4939 18.2021 14.0906 18.287 14.6493 18.4955C15.2081 18.704 15.7158 19.0312 16.138 19.4549C16.5603 19.8787 16.8873 20.3891 17.0967 20.9515C17.3062 21.5139 17.3933 22.1151 17.352 22.7144V23.7858V24.8037L18.9672 23.0894C19.5303 22.5108 20.0298 21.9215 20.6142 21.3108C23.1525 18.2791 25.096 14.7886 26.3415 11.0251C26.7453 9.95367 27.1704 8.81793 27.6061 7.71436C28.148 6.33221 28.6687 4.88578 29.2 3.42864C29.4333 2.4329 29.9986 1.54812 30.8012 0.922123C31.6039 0.296124 32.5953 -0.0331528 33.6097 -0.010636C34.2631 -0.00545417 34.913 0.0845724 35.5436 0.257221C36.4593 0.487888 37.3188 0.90419 38.0696 1.48076C38.8204 2.05733 39.4469 2.78208 39.9109 3.6108C40.3917 4.47698 40.6935 5.43254 40.7976 6.41964C40.9017 7.40674 40.8061 8.40485 40.5166 9.35364C39.9109 11.4001 39.284 13.4358 38.6677 15.4822L37.7539 18.4501L37.6157 18.9322L37.4031 19.7358H58.0175C59.2758 19.6808 60.517 20.0473 61.5472 20.7779C62.5774 21.5086 63.3389 22.5624 63.713 23.7751C64.1069 25.0525 64.0391 26.4294 63.5216 27.6612C63.0042 28.8931 62.0705 29.9002 60.8864 30.5037L60.4296 30.7287L59.8345 31.0179L60.0471 31.3715C60.4994 32.0961 60.7906 32.9109 60.9007 33.7599C61.0108 34.6089 60.937 35.4719 60.6846 36.2894C60.4085 37.1149 59.9588 37.8706 59.3665 38.5048C58.7741 39.1391 58.0531 39.6369 57.2524 39.9644L56.9123 40.1144L57.0505 40.4572C58.74 44.6144 57.9537 46.9608 54.1496 49.1144L53.799 49.3072L54.0115 49.6501C54.8203 50.8876 55.1142 52.3961 54.8297 53.8501C54.6114 55.1368 53.9486 56.3041 52.9588 57.1453C51.9689 57.9866 50.7157 58.4475 49.4211 58.4465C47.0091 58.4465 44.5863 58.4465 42.1742 58.4465C38.4126 58.4465 34.9485 58.4465 31.5482 58.3394C27.7292 58.1975 24.0065 57.0924 20.7205 55.1251L18.7971 54.0536L17.267 53.1751V55.4465C17.3083 56.0458 17.2212 56.647 17.0118 57.2094C16.8023 57.7718 16.4754 58.2822 16.0531 58.7059C15.6308 59.1297 15.123 59.4569 14.5643 59.6654C14.0055 59.8739 13.4089 59.9588 12.8147 59.9144L8.53256 60.0001ZM4.50529 20.4858C2.94328 20.4858 2.2526 21.1822 2.2526 22.7465V55.4037C2.2526 56.9894 2.94327 57.6965 4.49466 57.6965H12.6766C14.398 57.6965 15.0356 57.0537 15.0356 55.318V22.8322C15.0356 21.1929 14.3768 20.5179 12.7617 20.5179H4.50529V20.4858ZM46.3502 56.1644C47.4128 56.1644 48.4753 56.1644 49.4636 56.1644C50.2602 56.1338 51.0197 55.8166 51.6044 55.2702C52.1892 54.7238 52.5605 53.9844 52.6513 53.1858C52.7472 52.3813 52.5547 51.5687 52.1085 50.8947C51.6623 50.2208 50.9918 49.73 50.2181 49.5108C49.8224 49.4104 49.4145 49.3671 49.0067 49.3822H46.3928H44.9158C44.7613 49.4016 44.6046 49.3887 44.4553 49.3445C44.306 49.3003 44.1674 49.2257 44.0479 49.1252C43.9283 49.0248 43.8305 48.9007 43.7604 48.7606C43.6904 48.6205 43.6496 48.4674 43.6406 48.3108C43.6406 47.6251 44.1293 47.1858 44.9475 47.1537H51.9925C52.4781 47.1579 52.9616 47.0893 53.4271 46.9501C54.1719 46.6904 54.8018 46.174 55.2061 45.492C55.6104 44.8099 55.7631 44.0059 55.6373 43.2215C55.529 42.4408 55.149 41.7244 54.565 41.2003C53.981 40.6762 53.2311 40.3786 52.4495 40.3608H50.0161H46.5203C46.3259 40.3697 46.1317 40.3392 45.9492 40.2711C45.7667 40.203 45.5995 40.0987 45.4577 39.9644C45.3549 39.8472 45.2788 39.7088 45.2347 39.5589C45.1907 39.409 45.1797 39.2512 45.2025 39.0965C45.2769 38.2072 46.0952 38.0251 46.5733 38.0251H54.9785C55.4108 38.0387 55.8429 37.9954 56.2642 37.8965C57.0249 37.6819 57.687 37.2053 58.1354 36.5496C58.5838 35.8939 58.7903 35.1005 58.7188 34.3072C58.6539 33.4907 58.293 32.7268 57.705 32.1616C57.117 31.5963 56.3431 31.2693 55.5311 31.243C54.4685 31.243 53.3315 31.243 52.2264 31.243H48.4541C46.7115 31.243 46.7115 30.3858 46.7008 30.0965C46.6933 29.9632 46.713 29.8297 46.7587 29.7044C46.8044 29.5791 46.8751 29.4646 46.9665 29.368C47.3829 29.0411 47.9077 28.8877 48.4329 28.9394H58.4638C59.1815 28.9487 59.8822 28.7198 60.4583 28.2881C61.0343 27.8564 61.4536 27.2457 61.6516 26.5501C61.8834 25.8689 61.8815 25.1291 61.6464 24.4491C61.4113 23.7691 60.9566 23.1884 60.3551 22.8001C59.6548 22.3892 58.8597 22.1712 58.0494 22.1679C54.4366 22.1679 50.8237 22.1679 47.2109 22.1679H38.2745C37.797 22.2352 37.3102 22.1718 36.8654 21.9842C36.4205 21.7967 36.0339 21.4919 35.746 21.1019C35.458 20.7119 35.2795 20.251 35.2289 19.7675C35.1784 19.2839 35.2577 18.7956 35.4586 18.3537C35.7562 17.3572 36.0643 16.3715 36.3725 15.3751C37.0525 13.168 37.7539 10.8858 38.3914 8.62508C38.5931 7.92244 38.6327 7.18263 38.5075 6.46214C38.3823 5.74165 38.0954 5.05954 37.6688 4.46793C37.242 3.8637 36.6843 3.36541 36.0381 3.01083C35.3918 2.65626 34.674 2.45475 33.9391 2.42153H33.5778C32.3984 2.42153 31.867 2.81793 31.3888 4.0715L30.4856 6.45008C29.6037 8.77508 28.7111 11.1001 27.8292 13.4358C25.8297 18.8233 22.4091 23.5579 17.9365 27.1287C17.734 27.2801 17.5719 27.4797 17.4643 27.7096C17.3568 27.9395 17.3072 28.1926 17.3201 28.4465C17.3201 31.1894 17.3201 33.9215 17.3201 36.6644V41.7537C17.3201 44.4322 17.3201 47.1108 17.3201 49.8001C17.2914 50.1009 17.3582 50.4032 17.511 50.6632C17.6638 50.9232 17.8947 51.1275 18.1702 51.2465C18.9778 51.6751 19.7748 52.1358 20.5717 52.6072L21.7193 53.2715C25.0922 55.2308 28.9097 56.2789 32.8022 56.3144H46.329L46.3502 56.1644Z" fill="#00B9C0"/>
</g>
<defs>
<clipPath id="clip0_706_7638">
<rect width="64" height="60" fill="white"/>
</clipPath>
</defs>
</svg>
