<svg width="32" height="32" viewBox="0 0 32 32" fill="none" xmlns="http://www.w3.org/2000/svg">
<g clip-path="url(#clip0_1203_8321)">
<path d="M16 0C12.8355 0 9.74207 0.938386 7.11089 2.69649C4.4797 4.45459 2.42893 6.95345 1.21793 9.87707C0.00692786 12.8007 -0.309919 16.0178 0.307444 19.1214C0.924808 22.2251 2.44865 25.0761 4.68629 27.3137C6.92393 29.5513 9.77486 31.0752 12.8786 31.6926C15.9823 32.3099 19.1993 31.9931 22.1229 30.7821C25.0466 29.5711 27.5454 27.5203 29.3035 24.8891C31.0616 22.2579 32 19.1645 32 16C31.9939 11.7584 30.3062 7.69231 27.307 4.69305C24.3077 1.6938 20.2416 0.00611915 16 0ZM16 30.8434C13.0643 30.8434 10.1944 29.9728 7.75346 28.3418C5.31248 26.7108 3.40997 24.3926 2.28651 21.6803C1.16305 18.9681 0.86911 15.9835 1.44185 13.1042C2.01458 10.2249 3.42827 7.58004 5.50416 5.50415C7.58004 3.42827 10.2249 2.01458 13.1042 1.44184C15.9835 0.869107 18.9681 1.16305 21.6803 2.28651C24.3926 3.40997 26.7108 5.31248 28.3418 7.75346C29.9728 10.1944 30.8434 13.0643 30.8434 16C30.8373 19.9348 29.2714 23.7067 26.4891 26.4891C23.7067 29.2714 19.9348 30.8373 16 30.8434Z" fill="#D8D8D8"/>
<path d="M14.7086 20.9921C14.6208 20.9932 14.5336 20.9759 14.4523 20.9412C14.371 20.9065 14.2972 20.8551 14.2353 20.7902C14.1079 20.6556 14.0364 20.4742 14.0364 20.2853C14.0364 20.0963 14.1079 19.915 14.2353 19.7804L17.3543 16.4985L14.1989 13.2165C14.0715 13.0819 14 12.9006 14 12.7116C14 12.5227 14.0715 12.3413 14.1989 12.2067C14.3263 12.0749 14.4986 12.0009 14.6783 12.0009C14.858 12.0009 15.0303 12.0749 15.1577 12.2067L18.7984 15.9935C18.9259 16.1281 18.9974 16.3095 18.9974 16.4985C18.9974 16.6874 18.9259 16.8688 18.7984 17.0034L15.1577 20.7902C15.038 20.9142 14.8775 20.9864 14.7086 20.9921Z" fill="#00B6C9"/>
</g>
<defs>
<clipPath id="clip0_1203_8321">
<rect width="32" height="32" fill="white"/>
</clipPath>
</defs>
</svg>
