<svg width="148" height="38" viewBox="0 0 148 38" fill="none" xmlns="http://www.w3.org/2000/svg">
<g clip-path="url(#clip0_706_8449)">
<path d="M14.2524 0.249611C13.1727 0.74022 12.544 2.04851 12.8447 3.15238C13.4597 5.46915 16.5758 5.87799 17.6008 3.77928C18.6805 1.53065 16.5074 -0.772494 14.2524 0.249611Z" fill="#00B6C9"/>
<path d="M78.2689 0.0716939C78.2009 0.126206 78.1602 5.64556 78.1602 12.3505V24.5204H82.397V20.2957C82.397 17.9653 82.4378 16.071 82.5058 16.0847C82.5609 16.0847 84.1051 17.979 85.9505 20.3093L89.2987 24.5204H91.7452C93.6722 24.5204 94.1502 24.4795 94.0551 24.3432C93.9727 24.2615 92.3327 22.2036 90.4056 19.7915L86.8929 15.4032L90.0643 11.8191C91.8132 9.843 93.3581 8.09857 93.5084 7.92142L93.7817 7.6216L91.2665 7.63528H88.752L85.6772 11.1649C83.982 13.1137 82.5609 14.6946 82.5058 14.7082C82.4378 14.7082 82.397 11.8191 82.397 8.30301C82.397 1.42087 82.4106 1.50264 81.6857 0.862119C81.1118 0.330627 80.4557 0.0989497 79.4038 0.0308098C78.8299 -0.0100743 78.324 0.00355373 78.2689 0.0716939Z" fill="#00B6C9"/>
<path d="M23.6964 3.59007C21.8787 4.42138 21.168 6.47921 22.0837 8.27814C23.3411 10.7993 26.8399 10.813 28.1929 8.31903C28.8763 7.03796 28.6713 5.41623 27.6872 4.36687C26.6622 3.29025 25.0221 2.96318 23.6964 3.59007Z" fill="#00B6C9"/>
<path d="M4.39787 5.18457C3.5505 5.71606 3.33183 7.02436 3.96053 7.81479C4.99924 9.13673 6.93999 8.63247 7.29534 6.96984C7.41834 6.39747 6.96732 5.45713 6.42063 5.13006C5.87394 4.81662 4.94457 4.83024 4.39787 5.18457Z" fill="#00B6C9"/>
<path d="M48.2286 7.75726C46.8892 8.0434 45.3038 8.58855 44.3744 9.09281L43.7184 9.43344L44.2924 10.4692C45.0851 11.9274 45.0305 11.8865 45.6318 11.5731C47.2446 10.7554 50.4291 10.2648 51.8778 10.6055C53.1898 10.9189 54.0918 12.05 54.1055 13.3993C54.1055 14.0261 54.0918 14.0534 53.7912 13.9716C52.9302 13.7536 50.6204 13.59 49.4587 13.6718C45.3585 13.9307 43.1854 15.6751 42.9394 18.9049C42.8027 20.5948 43.4314 22.2166 44.6068 23.1842C46.1102 24.438 49.0213 24.9694 51.3584 24.438C51.8778 24.3289 52.7662 23.9882 53.3538 23.6884L54.4062 23.1569L54.9255 23.6884C55.5679 24.3425 56.4563 24.656 57.6864 24.656H58.6157V18.6188C58.6157 11.9411 58.5747 11.5595 57.7684 10.292C57.249 9.48801 56.0189 8.56127 54.9529 8.16607C53.0669 7.45741 50.3744 7.29388 48.2286 7.75726ZM52.5612 16.2202C54.2558 16.4383 54.1055 16.2202 54.1055 18.4553V20.4313L53.5315 20.7175C51.2081 21.9031 48.8437 21.9167 47.8459 20.772C46.7116 19.491 47.0122 17.3922 48.4336 16.6427C49.404 16.1249 50.8254 15.9749 52.5612 16.2202Z" fill="#00B6C9"/>
<path d="M65.4907 7.67707C62.9349 8.26303 61.3495 10.0483 61.3495 12.3242C61.3495 15.077 63.2219 16.5216 68.4838 17.8572C70.9302 18.4704 71.3266 18.7431 71.3266 19.8742C71.3266 20.3783 71.2583 20.5419 70.8619 20.9099C69.4815 22.2045 66.379 21.7548 63.5499 19.8333C63.1536 19.5607 62.7846 19.3426 62.7299 19.3426C62.6889 19.3563 62.2926 19.8333 61.8552 20.4056L61.0488 21.455L61.7185 22.041C62.6479 22.8723 64.2333 23.7854 65.5181 24.2078C66.502 24.5485 66.8164 24.5758 68.5931 24.5894C70.1922 24.5894 70.7252 24.5349 71.3266 24.3305C73.24 23.6764 74.3607 22.8042 75.0304 21.4414C75.4131 20.6646 75.4815 20.4056 75.4678 19.5062C75.4678 18.1843 75.0851 17.244 74.2651 16.4944C73.4997 15.7993 72.666 15.3769 70.9849 14.8727C70.2332 14.6409 68.9075 14.2321 68.0328 13.9732C66.2287 13.4281 65.5727 13.0465 65.4087 12.4468C65.231 11.82 65.5727 11.1386 66.215 10.8251C67.5544 10.1846 70.6022 10.5389 73.1034 11.6291C73.2537 11.6973 73.4724 11.4111 73.9644 10.498L74.6204 9.27155L73.6227 8.79457C71.805 7.936 70.4109 7.6089 68.2514 7.54076C66.912 7.49988 66.0784 7.5544 65.4907 7.67707Z" fill="#00B6C9"/>
<path d="M100.575 7.68935C97.8963 8.27539 95.8326 9.77441 94.7936 11.9004C94.1789 13.1406 93.9736 14.2172 93.96 16.0706C93.96 18.8098 94.5618 20.4316 96.2011 22.0806C97.8412 23.7159 99.7546 24.5063 102.351 24.629C103.664 24.6835 104.128 24.6426 105.085 24.3973C109.322 23.3343 111.645 20.4043 111.645 16.1523C111.645 11.8596 109.486 8.90224 105.564 7.82562C104.416 7.51219 101.71 7.43042 100.575 7.68935ZM104.634 10.9737C105.523 11.3962 106.343 12.3229 106.753 13.3314C107.026 13.9991 107.067 14.3398 107.067 16.1523V18.1966L106.548 19.2459C106.165 20.0227 105.864 20.4179 105.4 20.7723C103.308 22.3531 100.206 21.6718 99.0169 19.355C98.4566 18.2784 98.224 16.0025 98.5246 14.4216C98.5933 14.0128 98.853 13.2905 99.0992 12.7999C100.137 10.7693 102.57 9.96525 104.634 10.9737Z" fill="#00B6C9"/>
<path d="M114.201 7.58092C114.147 7.62177 114.105 11.4649 114.105 16.0984V24.5206H118.616V11.7102L119.067 11.4377C120.188 10.7426 122.375 10.4973 123.468 10.9471C124.657 11.4513 125.258 12.3916 125.449 14.0679C125.532 14.6811 125.586 17.2841 125.586 19.8461V24.5206H129.96V18.9603C129.96 15.5533 129.905 13.0866 129.809 12.5824C129.372 10.1566 127.513 8.27598 124.958 7.67634C123.153 7.25384 120.584 7.64906 119.122 8.57573C118.766 8.79385 118.438 8.98461 118.411 8.98461C118.37 8.98461 118.096 8.73928 117.809 8.45314C117.454 8.09875 117.017 7.83982 116.552 7.70355C115.828 7.48552 114.365 7.40375 114.201 7.58092Z" fill="#00B6C9"/>
<path d="M137.613 7.76016C136.273 8.0463 134.688 8.59144 133.759 9.0957L133.102 9.43633L133.54 10.1995C133.772 10.622 134.086 11.1672 134.223 11.3988L134.483 11.8485L135.016 11.576C136.629 10.7583 139.799 10.2677 141.262 10.6084C142.547 10.9218 143.367 11.9167 143.53 13.334L143.613 14.0563L143.176 13.9745C141.986 13.7428 140.005 13.5929 138.843 13.6747C136.438 13.8246 134.647 14.5196 133.581 15.7053C132.706 16.6728 132.378 17.6269 132.365 19.2077C132.351 20.8703 132.624 21.688 133.512 22.6555C134.319 23.5414 135.208 24.032 136.602 24.3863C138.665 24.9178 140.825 24.6725 142.738 23.6913L143.79 23.1598L144.31 23.6913C144.952 24.3454 145.84 24.6589 147.07 24.6589H148V18.5399C148 12.8025 147.986 12.3664 147.727 11.5624C147.07 9.46362 145.253 8.14168 142.342 7.63749C141.125 7.41942 138.925 7.47393 137.613 7.76016ZM141.918 16.2095C142.451 16.2913 143.039 16.3867 143.257 16.4276L143.626 16.5093V20.2979L143.189 20.5705C142.479 21.0066 141.316 21.4018 140.319 21.5653C138.706 21.8243 137.408 21.3337 136.833 20.2434C136.479 19.5892 136.519 18.1583 136.902 17.5451C137.64 16.3458 139.458 15.8688 141.918 16.2095Z" fill="#00B6C9"/>
<path d="M27.8651 11.8352C26.0884 12.4075 24.8173 13.8657 24.5986 15.5693C24.3936 17.1229 24.913 18.5811 26.0064 19.5895C26.9631 20.4754 27.7147 20.7479 29.0951 20.7615C30.1065 20.7752 30.3662 20.7206 31.0359 20.3936C32.0473 19.903 33.086 18.7718 33.414 17.8179C34.152 15.6511 33.25 13.3207 31.2682 12.2577C30.5165 11.8625 30.2432 11.7943 29.3001 11.7534C28.6988 11.7398 28.0564 11.767 27.8651 11.8352Z" fill="#00B6C9"/>
<path d="M0.776291 14.9121C-0.00274015 15.3482 -0.248751 16.4248 0.284272 17.0925C1.22731 18.3054 2.99039 17.7604 2.99039 16.2613C2.99039 15.1165 1.76034 14.367 0.776291 14.9121Z" fill="#00B6C9"/>
<path d="M23.6962 22.8059C22.9445 23.1466 22.1928 23.9097 21.8921 24.632C21.5641 25.4361 21.6324 26.6354 22.0834 27.5076C23.3681 30.0015 26.8396 30.0287 28.1926 27.5348C28.9444 26.1311 28.6437 24.4685 27.4546 23.3919C26.3749 22.4243 24.9808 22.2063 23.6962 22.8059Z" fill="#00B6C9"/>
<path d="M4.39787 24.3994C3.5505 24.9309 3.33183 26.2392 3.96053 27.0296C4.99924 28.3516 6.93999 27.8473 7.29534 26.1847C7.41834 25.6123 6.96732 24.672 6.42063 24.3449C5.87394 24.0314 4.94457 24.0451 4.39787 24.3994Z" fill="#00B6C9"/>
<path d="M14.3345 27.67C12.9541 28.2151 12.3527 30.0276 13.1318 31.3495C13.7878 32.4534 15.3732 32.944 16.4802 32.3717C18.339 31.4177 18.3526 28.7602 16.5212 27.779C16.0019 27.4928 14.9085 27.452 14.3345 27.67Z" fill="#00B6C9"/>
<path d="M115.895 30.1886C115.8 30.4203 115.417 30.6928 114.734 31.0063C112.998 31.7967 112.52 32.3555 112.369 33.7864C112.177 35.6943 113.408 36.989 115.226 36.7437C117.221 36.4711 117.836 33.7319 116.127 32.6962C115.526 32.3282 114.46 32.3282 113.873 32.6962C113.627 32.8461 113.421 32.9142 113.421 32.8597C113.421 32.6144 114.091 32.1374 115.075 31.6877C115.977 31.2789 116.701 30.6928 116.701 30.3794C116.701 30.3248 116.551 30.175 116.374 30.0659C116.073 29.8615 116.046 29.8752 115.895 30.1886ZM115.594 33.2958C116.21 33.6229 116.497 34.645 116.155 35.2991C115.964 35.6398 115.307 35.9669 114.788 35.9669C114.269 35.9669 113.613 35.6398 113.421 35.2991C113.23 34.9311 113.257 34.0317 113.476 33.7591C113.927 33.1595 114.897 32.9414 115.594 33.2958Z" fill="#00B6C9"/>
<path d="M67.2944 31.8661C66.2284 32.125 65.5723 32.8882 65.4767 33.9921C65.3947 34.9597 65.504 35.314 66.0234 35.9136C66.9801 37.0039 68.5655 37.0993 69.5905 36.1317C70.0552 35.6956 70.0552 35.5048 69.6179 35.314C69.3992 35.2186 69.2762 35.205 69.2762 35.2868C69.2762 35.532 68.4015 35.9682 67.9368 35.9682C66.5427 35.9682 65.7227 34.3192 66.6111 33.2562C67.2808 32.4657 68.3332 32.4112 69.0849 33.1199C69.3309 33.3516 69.4402 33.3788 69.6726 33.2562C70.0142 33.0654 70.0279 32.9836 69.7546 32.6157C69.3719 32.0569 68.1008 31.6753 67.2944 31.8661Z" fill="#00B6C9"/>
<path d="M88.2059 31.8678C87.29 32.0859 86.6066 32.7537 86.3612 33.6667C85.9232 35.2476 87.1261 36.7739 88.7934 36.7875C89.4224 36.7875 90.2288 36.5014 90.6253 36.147C90.953 35.8472 90.9394 35.7246 90.5429 35.5474C90.2696 35.4111 90.1465 35.4384 89.8324 35.6837C89.5862 35.8745 89.2721 35.9699 88.8621 35.9699C88.1787 35.9699 87.7687 35.8064 87.4266 35.3702C86.9487 34.7979 87.0717 34.757 89.1354 34.7161L91.0761 34.6752L91.1168 34.3345C91.1855 33.8848 90.9394 33.0944 90.5837 32.6446C90.0786 32.0041 89.0531 31.6634 88.2059 31.8678ZM89.5047 32.7673C89.846 32.9444 90.3247 33.585 90.3247 33.8575C90.3247 33.8984 89.6134 33.9257 88.7526 33.9257C87.7279 33.9257 87.1812 33.8712 87.1812 33.7757C87.1812 33.2579 88.0556 32.5628 88.7254 32.5628C88.9301 32.5628 89.2857 32.6582 89.5047 32.7673Z" fill="#00B6C9"/>
<path d="M108.228 31.909C107.148 32.2224 106.451 33.1356 106.451 34.253C106.451 35.7249 107.477 36.7878 108.898 36.7878C109.868 36.7878 110.73 36.2699 111.18 35.3978C111.454 34.8663 111.427 33.6806 111.112 33.1083C110.606 32.1406 109.294 31.5956 108.228 31.909ZM110.114 33.1764C110.483 33.5716 110.551 33.7488 110.551 34.3075C110.551 35.0435 110.32 35.4659 109.731 35.7658C108.911 36.1882 107.859 35.902 107.477 35.1524C107.176 34.5665 107.217 33.7624 107.572 33.3127C108.256 32.4405 109.363 32.386 110.114 33.1764Z" fill="#00B6C9"/>
<path d="M71.0537 36.6487H71.8738V32.6966H74.3338V36.6487H75.1538V31.8789H71.0537V36.6487Z" fill="#00B6C9"/>
<path d="M76.6572 36.6487H77.0393C77.3542 36.6351 77.6139 36.3762 78.6386 35.0543L79.8687 33.4734L79.951 36.6487H80.7574V34.2639C80.7574 31.8789 80.7574 31.8789 80.4561 31.8789C80.2243 31.8926 79.8007 32.3151 78.844 33.5416L77.5452 35.2042L77.4637 31.8789H76.6572V36.6487Z" fill="#00B6C9"/>
<path d="M81.7139 32.6966H83.3539V36.6487H84.174V32.6966H85.8141V31.8789H81.7139V32.6966Z" fill="#00B6C9"/>
<path d="M96.8838 32.8329C96.8838 34.6863 97.4305 35.2314 99.1665 35.1224L100.164 35.0543V35.8583C100.164 36.6487 100.164 36.6487 100.574 36.6487H100.984V31.8789H100.164V34.1821L99.6588 34.3184C98.8388 34.55 98.4015 34.4955 98.0459 34.1276C97.7454 33.8414 97.7038 33.6778 97.7038 32.8329V31.8789H96.8838V32.8329Z" fill="#00B6C9"/>
<path d="M101.901 31.9744C101.846 32.0152 101.805 32.206 101.805 32.3832C101.805 32.683 101.86 32.6966 102.625 32.6966H103.445V36.6487H104.251L104.334 32.7648L105.126 32.7239C105.891 32.683 105.905 32.6694 105.905 32.2878V31.8789H103.951C102.871 31.8789 101.941 31.9198 101.901 31.9744Z" fill="#00B6C9"/>
<path d="M118.205 36.676L119.654 36.6215C121.089 36.5806 121.102 36.5806 121.499 36.1309C122.141 35.4223 121.991 34.4137 121.185 33.9232C120.857 33.7323 120.488 33.6505 119.887 33.6505H119.025V31.8789H118.205V36.676ZM120.884 34.6727C121.13 34.9998 121.13 35.2996 120.884 35.6266C120.734 35.8311 120.515 35.8855 119.9 35.8992H119.094L119.052 35.2996C118.984 34.3592 119.052 34.2911 119.941 34.3592C120.474 34.4001 120.761 34.4955 120.884 34.6727Z" fill="#00B6C9"/>
<path d="M122.579 36.6506H123.399L123.372 34.293L123.331 31.949L122.962 31.9081L122.579 31.8672V36.6506Z" fill="#00B6C9"/>
<path d="M127.171 32.0425C127.239 32.1378 127.636 32.6557 128.073 33.1872C128.511 33.7187 128.866 34.1821 128.866 34.2366C128.866 34.2775 128.428 34.8362 127.909 35.4767L126.952 36.6487L127.458 36.6351C127.936 36.6351 128.032 36.5534 128.838 35.5312L129.686 34.4274V36.6487H130.506V34.441L131.394 35.5449C132.214 36.5534 132.338 36.6487 132.775 36.6487H133.253L132.296 35.4767C131.763 34.8362 131.326 34.2775 131.326 34.223C131.326 34.1685 131.722 33.6506 132.214 33.0782C132.706 32.5058 133.102 32.0016 133.102 31.9607C133.102 31.9198 132.898 31.8789 132.652 31.8789C132.269 31.8789 132.119 32.0016 131.394 32.9283L130.574 33.964L130.492 31.8789H129.699L129.618 33.964L128.798 32.9283C128.073 32.0016 127.936 31.8789 127.526 31.8789C127.198 31.8789 127.102 31.9198 127.171 32.0425Z" fill="#00B6C9"/>
<path d="M134.292 31.9744C134.237 32.0152 134.196 33.0919 134.196 34.3592V36.6487H134.579C134.893 36.6487 135.153 36.4034 136.246 34.9998L137.545 33.3508L137.627 36.6487H138.433V31.8789H138.092C137.832 31.8789 137.476 32.2333 136.424 33.5416L135.085 35.2178L135.044 33.5416C135.003 31.9062 135.003 31.8789 134.689 31.8789C134.525 31.8789 134.333 31.9198 134.292 31.9744Z" fill="#00B6C9"/>
<path d="M139.349 31.9744C139.294 32.0152 139.253 32.206 139.253 32.3832C139.253 32.683 139.307 32.6966 140.073 32.6966H140.893V36.6487H141.713V32.6966H143.353V31.8789H141.399C140.319 31.8789 139.39 31.9198 139.349 31.9744Z" fill="#00B6C9"/>
<path d="M144.31 36.676L145.731 36.6215C147.016 36.5806 147.193 36.5534 147.507 36.2535C148.205 35.5994 148.082 34.4137 147.262 33.9095C146.961 33.7323 146.579 33.6505 145.99 33.6505H145.13V31.8789H144.31V36.676ZM146.702 34.4955C147.112 34.6727 147.262 35.1496 147.057 35.5448C146.893 35.8447 146.25 36.0219 145.594 35.9401C145.239 35.8992 145.198 35.8447 145.157 35.2996C145.13 34.9725 145.143 34.6182 145.184 34.5228C145.28 34.2911 146.209 34.2639 146.702 34.4955Z" fill="#00B6C9"/>
<path d="M92.1963 35.927C92.1555 36.0633 92.0868 36.4176 92.046 36.7174C91.9917 37.0173 91.9229 37.4397 91.8822 37.6441C91.8134 37.9985 91.8278 38.0257 92.1827 37.9848C92.5248 37.9439 92.5791 37.8621 92.8661 36.8128L93.1666 35.6953H92.7158C92.3881 35.6953 92.2378 35.7635 92.1963 35.927Z" fill="#00B6C9"/>
</g>
<defs>
<clipPath id="clip0_706_8449">
<rect width="148" height="38" fill="white"/>
</clipPath>
</defs>
</svg>
